<svg width="111" height="111" viewBox="0 0 111 111" fill="none" xmlns="http://www.w3.org/2000/svg">
<path fill-rule="evenodd" clip-rule="evenodd" d="M44.8616 56.4602H55.4981C55.4497 56.5181 60.1228 67.6072 60.1228 67.713H69.9888C70.0035 67.7425 54.9489 33.4043 54.8817 33.3366C55.0304 33.2211 44.9576 56.4886 44.8616 56.4602ZM22.8177 12.2492C22.8415 12.2104 22.8944 67.5589 22.8944 67.6365C22.9714 67.7087 46.0078 12.2347 45.9406 12.2492H22.8177ZM63.5427 12.2492C63.5427 12.2492 87.4507 67.8442 87.4361 67.6647C87.4361 67.7423 87.4528 12.3889 87.4528 12.2492H63.5427Z" fill="#FCFCFC"/>
<path fill-rule="evenodd" clip-rule="evenodd" d="M28.612 76.3886L23.475 98.3712H27.2173L28.0737 94.2572H32.7214L33.6022 98.3712H37.3452L32.208 76.3886H28.612ZM28.783 90.5205L30.3975 82.2926L32.0122 90.5205H28.783ZM45.4192 83.5169C44.4895 82.2926 43.8782 81.8211 42.5815 81.8211C38.8632 81.8211 37.8358 86.2494 37.8358 90.3319C37.8358 95.1053 39.23 98.9676 42.5325 98.9676C43.9272 98.9676 45.0274 97.9634 45.5414 96.4551H45.6635L45.7615 98.3712H48.7214V76.3886H45.4192V83.5169ZM43.4134 95.7958C41.5296 95.7958 41.2606 92.4671 41.2606 90.3948C41.2606 85.935 42.5082 85.0555 43.4134 85.0555C44.2938 85.0555 45.5657 85.935 45.5657 90.3948C45.5655 92.8129 45.2236 95.7958 43.4134 95.7958ZM56.6495 81.8211C52.7601 81.8211 51.0474 85.4329 51.0474 90.3633C51.0474 95.3566 52.7846 98.9676 56.6495 98.9676C60.4904 98.9676 62.2513 95.3568 62.2513 90.3633C62.2513 85.4329 60.5145 81.8211 56.6495 81.8211ZM56.6495 95.7646C55.6468 95.7646 54.4724 95.0425 54.4724 90.3636C54.4724 85.7781 55.6465 85.0243 56.6495 85.0243C57.9212 85.0243 58.827 86.0296 58.827 90.3636C58.827 94.4461 58.0682 95.7646 56.6495 95.7646ZM70.6645 81.8211C69.8324 81.8211 68.536 82.1355 67.8513 83.7055V76.3884H64.5244V98.3709H67.4843L67.5819 96.4549H67.6792C68.3888 98.2452 69.2451 98.9674 70.6886 98.9674C74.1872 98.9674 75.4345 95.1363 75.4345 90.3317C75.4347 85.4958 74.1623 81.8211 70.6645 81.8211ZM69.8567 95.7646C67.9732 95.7646 67.7048 92.4359 67.7048 90.3636C67.7048 85.9038 68.952 85.0243 69.8567 85.0243C70.738 85.0243 72.0095 85.9038 72.0095 90.3636C72.0093 92.7815 71.6665 95.7646 69.8567 95.7646ZM88.1823 90.6779C88.1823 83.0464 85.0756 81.8211 82.8734 81.8211C79.3758 81.8211 77.1255 84.8983 77.1255 90.3633C77.1255 98.214 80.599 98.9676 82.6293 98.9676C84.4396 98.9676 87.13 98.5914 87.9623 93.7551H84.6355C84.3169 95.5454 83.5338 95.7646 82.7761 95.7646C81.8465 95.7646 80.5498 95.3254 80.5498 91.5564H88.1823V90.6779ZM80.5498 88.8876C80.5739 87.6937 80.8925 85.0243 82.7761 85.0243C83.8765 85.0243 84.6596 85.653 84.7572 88.8876H80.5498Z" fill="#FCFCFC"/>
</svg>
