<svg width="175" height="175" viewBox="0 0 175 175" fill="none" xmlns="http://www.w3.org/2000/svg">
<path fill-rule="evenodd" clip-rule="evenodd" d="M35.2953 86.5112L31.1951 88.7144L38.9337 88.3046V96.5566C37.396 97.1711 35.7058 97.8373 32.4249 97.8373C21.2533 97.8373 14.282 88.7664 14.282 79.1314C14.282 70.1624 20.381 64.0124 28.4799 64.0124C34.5256 64.0124 37.7043 67.1385 39.4468 68.829L38.1657 70.8798L39.9591 70.47L44.2128 66.4217C43.0852 65.6517 41.2911 64.32 37.4476 63.243C35.0393 62.5779 32.374 62.167 29.6064 62.167C16.5378 62.167 8.90106 71.3918 8.90106 81.3347C8.90106 89.4834 14.282 99.8877 28.4276 99.8877C31.246 99.8877 33.9114 99.4776 36.8843 99.0158L44.2128 97.325V91.0728C44.2128 90.5605 44.2637 89.074 44.315 88.6126C44.4172 88.2024 44.4695 88.1002 44.8283 87.7936L46.1603 86.5115H35.2953V86.5112Z" fill="#FCFCFC"/>
<path fill-rule="evenodd" clip-rule="evenodd" d="M61.8478 73.0478C53.5377 73.0478 47.6882 79.1711 47.6882 86.3321C47.6882 92.455 52.3349 99.2325 61.0275 99.2325C69.9381 99.2325 74.912 92.3997 74.912 85.9493C74.912 79.3345 69.8831 73.0478 61.8478 73.0478ZM67.86 94.8056C66.6032 96.5545 64.4171 97.5933 62.2849 97.5933C55.6702 97.5933 52.9908 88.6823 52.9908 83.2706C52.9908 80.9201 53.3736 78.5145 55.5051 76.6008C56.8179 75.4534 58.6223 74.7421 60.4263 74.7421C67.2044 74.7421 69.5003 83.9258 69.5003 88.7366C69.5003 90.8691 69.1725 93.0559 67.86 94.8056Z" fill="#FCFCFC"/>
<path fill-rule="evenodd" clip-rule="evenodd" d="M90.9292 73.0478C82.6212 73.0478 76.7717 79.1711 76.7717 86.3321C76.7717 92.455 81.4184 99.2325 90.1103 99.2325C99.0202 99.2325 103.996 92.3997 103.996 85.9493C103.996 79.3345 98.9669 73.0478 90.9292 73.0478ZM96.9435 94.8056C95.6864 96.5545 93.4989 97.5933 91.3667 97.5933C84.753 97.5933 82.0743 88.6823 82.0743 83.2706C82.0743 80.9201 82.4578 78.5145 84.5886 76.6008C85.9007 75.4534 87.7051 74.7421 89.508 74.7421C96.2872 74.7421 98.5838 83.9258 98.5838 88.7366C98.5838 90.8691 98.2557 93.0559 96.9435 94.8056Z" fill="#FCFCFC"/>
<path fill-rule="evenodd" clip-rule="evenodd" d="M125.152 97.4292L123.183 95.898C122.582 95.4064 121.762 94.7509 121.762 93.5481C121.762 92.3463 122.582 91.5797 123.294 90.8694C125.588 89.0651 127.885 87.1521 127.885 83.1069C127.885 78.952 125.26 76.7652 124.004 75.7265H127.393L130.891 73.7587H119.63C116.678 73.7587 112.962 74.1952 109.846 76.7652C107.494 78.7876 106.346 81.5756 106.346 84.0906C106.346 88.3548 109.627 92.6734 115.421 92.6734C115.969 92.6734 116.569 92.6181 117.172 92.5641C116.897 93.22 116.624 93.7665 116.624 94.6962C116.624 96.3908 117.498 97.4292 118.263 98.4132C115.805 98.5773 111.211 98.85 107.822 100.927C104.597 102.841 103.613 105.629 103.613 107.597C103.613 111.642 107.439 115.415 115.366 115.415C124.769 115.415 129.743 110.221 129.743 105.083C129.743 101.31 127.559 99.4509 125.152 97.4292ZM117.99 91.1429C113.289 91.1429 111.156 85.0739 111.156 81.4112C111.156 79.9904 111.429 78.5142 112.36 77.3661C113.236 76.2727 114.765 75.5617 116.186 75.5617C120.725 75.5617 123.075 81.6847 123.075 85.6208C123.075 86.6045 122.964 88.3545 121.709 89.6123C120.833 90.4856 119.355 91.1429 117.99 91.1429ZM118.045 113.117C112.196 113.117 108.423 110.33 108.423 106.45C108.423 102.567 111.923 101.256 113.125 100.818C115.421 100.052 118.373 99.9424 118.866 99.9424C119.411 99.9424 119.686 99.9424 120.122 99.9978C124.278 102.95 126.081 104.425 126.081 107.215C126.081 110.604 123.294 113.117 118.045 113.117Z" fill="#FCFCFC"/>
<path fill-rule="evenodd" clip-rule="evenodd" d="M141.169 97.0467C139.365 96.883 138.983 96.5549 138.983 94.4224V81.794C138.983 74.0315 139.039 67.362 139.475 63.1538C139.693 61.2397 140.24 60.9116 141.934 59.9276H134.118L130.017 61.896H134.28C134.226 64.4103 134.007 67.9096 133.952 70.6973C133.79 76.3824 133.734 82.451 133.734 86.7146V95.6259C133.734 96.7179 133.515 96.883 132.258 98.5223H141.934L143.957 97.3198C143.029 97.2108 142.1 97.1564 141.169 97.0467Z" fill="#FCFCFC"/>
<path fill-rule="evenodd" clip-rule="evenodd" d="M159.427 96.4995C154.234 96.4995 149.534 92.455 148.167 85.5125L152.376 85.1833L165.221 79.9904C164.84 78.7326 164.128 76.3817 161.397 74.578C159.757 73.5393 157.733 73.0475 155.767 73.0475C150.135 73.0475 143.248 77.2023 143.248 85.6751C143.248 89.775 144.941 94.4764 148.823 97.2105C151.609 99.2322 154.344 99.3416 156.093 99.3416C157.733 99.3416 159.591 99.1231 161.397 98.3032C161.996 98.0294 162.599 97.6469 163.199 97.3191L166.099 94.5858C164.239 95.5162 162.216 96.4995 159.427 96.4995ZM147.947 82.4506C147.947 76.5468 152.046 74.8518 154.234 74.8518C157.189 74.8518 159.647 77.3664 159.647 79.5532C159.647 80.3188 159.099 80.6463 158.062 81.0298L148.112 85.348C148.056 84.3633 147.947 83.3803 147.947 82.4506Z" fill="#FCFCFC"/>
</svg>
