<svg width="94" height="94" viewBox="0 0 94 94" fill="none" xmlns="http://www.w3.org/2000/svg">
<path d="M47 43.0833H90.0833V3.91666L47 7.83333V43.0833Z" fill="#FCFCFC"/>
<path d="M39.1667 43.0835V8.54568L3.91669 11.7502V43.0835H39.1667Z" fill="#FCFCFC"/>
<path opacity="0.2" d="M47 7.83333V8.8125L90.0833 4.89583V3.91666L47 7.83333Z" fill="#FCFCFC"/>
<path opacity="0.1" d="M90.0833 42.1042H47V43.0833H90.0833V42.1042Z" fill="#FCFCFC"/>
<path opacity="0.2" d="M3.91669 11.7502V12.7294L39.1667 9.52485V8.54568L3.91669 11.7502Z" fill="#FCFCFC"/>
<path opacity="0.1" d="M39.1667 42.1042H3.91669V43.0833H39.1667V42.1042Z" fill="#FCFCFC"/>
<path d="M47 50.9167H90.0833V90.0833L47 86.1667V50.9167Z" fill="#FCFCFC"/>
<path d="M39.1667 50.9167V85.4545L3.91669 82.25V50.9167H39.1667Z" fill="#FCFCFC"/>
<path opacity="0.1" d="M47 86.1667V85.1875L90.0833 89.1042V90.0833L47 86.1667Z" fill="#FCFCFC"/>
<path opacity="0.2" d="M90.0833 50.9167H47V51.8958H90.0833V50.9167Z" fill="#FCFCFC"/>
<path opacity="0.1" d="M3.91669 82.25V81.2708L39.1667 84.4753V85.4545L3.91669 82.25Z" fill="#FCFCFC"/>
<path opacity="0.2" d="M39.1667 50.9167H3.91669V51.8958H39.1667V50.9167Z" fill="#FCFCFC"/>
<path d="M47 7.83333V43.0833H90.0833V3.91666L47 7.83333ZM3.91669 43.0833H39.1667V8.54547L3.91669 11.75V43.0833ZM47 86.1667L90.0833 90.0833V50.9167H47V86.1667ZM3.91669 82.25L39.1667 85.4545V50.9167H3.91669V82.25Z" fill="#FCFCFC"/>
</svg>
