<svg width="175" height="60" viewBox="0 0 175 60" fill="none" xmlns="http://www.w3.org/2000/svg">
<path d="M23.0234 15.3303C25.7851 15.3303 28.4101 15.8808 30.8711 16.9817C33.332 18.0826 35.4922 19.5964 37.3515 21.4679C39.2109 23.3395 40.6875 25.5413 41.8086 28.0459C42.9023 30.5505 43.4492 33.2202 43.4492 36.0551C43.4492 38.8899 42.9023 41.5597 41.8359 44.0367C40.7695 46.5138 39.2929 48.6881 37.4609 50.5597C35.6289 52.4312 33.4687 53.9175 30.9804 54.9909C28.4922 56.0643 25.8125 56.6147 22.914 56.6147C20.0976 56.6147 17.4179 56.0918 14.957 55.0734C12.4687 54.0551 10.2812 52.6239 8.42184 50.7523C6.56247 48.9083 5.08591 46.734 4.0195 44.2294C2.95309 41.7248 2.40622 39 2.40622 36.0276C2.40622 33.1927 2.92575 30.523 3.96481 28.0459C5.00388 25.5688 6.45309 23.4221 8.33981 21.5505C10.1992 19.7065 12.3867 18.2202 14.9023 17.1193C17.4453 16.0734 20.1523 15.4404 23.0234 15.3303ZM22.9414 23.7798C21.3008 23.7798 19.7422 24.0826 18.2382 24.7156C16.7343 25.3487 15.4492 26.2019 14.3281 27.3303C13.2343 28.4312 12.3593 29.7248 11.7031 31.211C11.0468 32.6973 10.7187 34.3211 10.7187 36.0826C10.7187 37.734 11.0468 39.3028 11.7031 40.8165C12.3593 42.3303 13.2343 43.6514 14.3281 44.7798C15.4218 45.9083 16.7343 46.8165 18.2382 47.4771C19.7422 48.1376 21.3008 48.4679 22.9414 48.4679C24.582 48.4679 26.1406 48.1376 27.6445 47.4771C29.1484 46.8165 30.4336 45.9358 31.5547 44.7798C32.6484 43.6514 33.5234 42.3303 34.1797 40.8165C34.8359 39.3028 35.164 37.734 35.164 36.0826C35 32.7248 33.7968 29.8899 31.6093 27.578C29.3945 25.2661 26.5508 24 23.0508 23.7798H22.9414Z" fill="#FCFCFC"/>
<path d="M82.0312 2.20187C82.9882 2.14682 83.8906 2.53214 84.7382 3.35783C85.5859 4.18352 85.996 5.09177 85.996 6.05508V36C85.996 38.7799 85.4218 41.4221 84.3007 43.9266C83.1796 46.4312 81.6484 48.6331 79.7343 50.5046C77.8203 52.3762 75.6328 53.8624 73.1718 54.9909C70.7109 56.0918 68.1132 56.6422 65.4062 56.6422C62.6445 56.6422 60.0195 56.0918 57.5312 55.0184C55.0429 53.945 52.8554 52.4588 50.996 50.5872C49.1367 48.7156 47.6601 46.5138 46.539 44.0092C45.4453 41.5046 44.8984 38.8349 44.8984 36C44.8984 32.9175 45.3906 30.2202 46.375 27.8808C47.3593 25.5413 48.8359 23.367 50.832 21.3028V21.3854C52.9101 19.4037 55.2343 17.8899 57.75 16.8716C60.2656 15.8532 62.8632 15.3303 65.5156 15.3303C67.1015 15.3303 68.9882 15.578 71.1484 16.101C73.3359 16.6239 75.496 17.6147 77.6289 19.101V6.46792C77.6289 5.88994 77.7382 5.367 77.957 4.84407C78.1757 4.32113 78.4765 3.85324 78.8593 3.4404C79.2148 3.00003 79.6523 2.69728 80.1718 2.44957C80.6914 2.22939 81.1835 2.14682 81.7031 2.20187H82.0312ZM77.6289 36C77.6289 34.4588 77.3007 32.945 76.6445 31.4863C75.9882 30 75.1132 28.6789 73.9648 27.523C72.8437 26.367 71.5312 25.4312 70.0546 24.7432C68.5781 24.0551 67.0195 23.7248 65.3789 23.7248C63.7382 23.7248 62.1796 24.0551 60.6757 24.7156C59.1718 25.3762 57.8867 26.2569 56.7656 27.3578C55.6718 28.4587 54.7968 29.7799 54.1406 31.2936C53.4843 32.8074 53.1562 34.3762 53.1562 36.0276C53.1562 37.734 53.4843 39.3303 54.1406 40.8166C54.7968 42.3028 55.6718 43.5964 56.7656 44.6973C57.8593 45.7982 59.1718 46.6789 60.6757 47.3395C62.1796 48 63.7382 48.3303 65.3789 48.3303C67.0195 48.3303 68.5781 48 70.0546 47.3395C71.5312 46.6789 72.8164 45.7982 73.9648 44.6973C75.0859 43.5964 75.9882 42.3028 76.6445 40.8166C77.3007 39.3028 77.6289 37.7065 77.6289 36Z" fill="#FCFCFC"/>
<path d="M108.992 15.3303C111.754 15.3303 114.379 15.8808 116.84 16.9817C119.301 18.0826 121.461 19.5964 123.32 21.4679C125.18 23.3395 126.656 25.5413 127.777 28.0459C128.871 30.5505 129.418 33.2202 129.418 36.0551C129.418 38.8899 128.871 41.5597 127.805 44.0367C126.738 46.5138 125.262 48.6881 123.43 50.5597C121.598 52.4312 119.437 53.9175 116.949 54.9909C114.461 56.0643 111.781 56.6147 108.883 56.6147C106.066 56.6147 103.387 56.0918 100.926 55.0734C98.4375 54.0551 96.25 52.6239 94.3906 50.7523C92.5312 48.9083 91.0547 46.734 89.9883 44.2294C88.9219 41.7248 88.375 39 88.375 36.0276C88.375 33.1927 88.8945 30.523 89.9336 28.0459C90.9726 25.5688 92.4219 23.4221 94.3086 21.5505C96.1679 19.7065 98.3554 18.2202 100.871 17.1193C103.414 16.0734 106.121 15.4404 108.992 15.3303ZM108.91 23.7798C107.27 23.7798 105.711 24.0826 104.207 24.7156C102.703 25.3487 101.418 26.2019 100.297 27.3303C99.2031 28.4312 98.3281 29.7248 97.6719 31.211C97.0156 32.6973 96.6875 34.3211 96.6875 36.0826C96.6875 37.734 97.0156 39.3028 97.6719 40.8165C98.3281 42.3303 99.2031 43.6514 100.297 44.7798C101.391 45.9083 102.703 46.8165 104.207 47.4771C105.711 48.1376 107.27 48.4679 108.91 48.4679C110.551 48.4679 112.109 48.1376 113.613 47.4771C115.117 46.8165 116.402 45.9358 117.523 44.7798C118.617 43.6514 119.492 42.3303 120.148 40.8165C120.805 39.3028 121.133 37.734 121.133 36.0826C120.969 32.7248 119.766 29.8899 117.578 27.578C115.363 25.2661 112.52 24 109.02 23.7798H108.91Z" fill="#FCFCFC"/>
<path d="M152.059 15.3303C154.82 15.3303 157.445 15.8808 159.906 16.9817C162.367 18.0826 164.527 19.5964 166.387 21.4679C168.246 23.3395 169.723 25.5413 170.844 28.0459C171.937 30.5505 172.484 33.2202 172.484 36.0551C172.484 38.8899 171.937 41.5597 170.871 44.0367C169.805 46.5138 168.328 48.6881 166.496 50.5597C164.664 52.4312 162.504 53.9175 160.016 54.9909C157.527 56.0643 154.848 56.6147 151.949 56.6147C149.133 56.6147 146.453 56.0918 143.992 55.0734C141.504 54.0551 139.316 52.6239 137.457 50.7523C135.598 48.9083 134.121 46.734 133.055 44.2294C131.988 41.7248 131.441 39 131.441 36.0276C131.441 33.1927 131.961 30.523 133 28.0459C134.039 25.5688 135.488 23.4221 137.375 21.5505C139.234 19.7065 141.422 18.2202 143.937 17.1193C146.48 16.0734 149.187 15.4404 152.059 15.3303ZM151.977 23.7798C150.336 23.7798 148.777 24.0826 147.273 24.7156C145.77 25.3487 144.484 26.2019 143.363 27.3303C142.27 28.4312 141.395 29.7248 140.738 31.211C140.082 32.6973 139.754 34.3211 139.754 36.0826C139.754 37.734 140.082 39.3028 140.738 40.8165C141.395 42.3303 142.27 43.6514 143.363 44.7798C144.457 45.9083 145.77 46.8165 147.273 47.4771C148.777 48.1376 150.336 48.4679 151.977 48.4679C153.617 48.4679 155.176 48.1376 156.68 47.4771C158.184 46.8165 159.469 45.9358 160.59 44.7798C161.684 43.6514 162.559 42.3303 163.215 40.8165C163.871 39.3028 164.199 37.734 164.199 36.0826C164.035 32.7248 162.832 29.8899 160.645 27.578C158.43 25.2661 155.586 24 152.086 23.7798H151.977Z" fill="#FCFCFC"/>
</svg>
