<svg width="175" height="175" viewBox="0 0 175 175" fill="none" xmlns="http://www.w3.org/2000/svg">
<path fill-rule="evenodd" clip-rule="evenodd" d="M126.093 77.4809H122.763V97.8647H138.405L140.524 94.5345H126.093V77.4809ZM80.4371 78.4899L68.2267 97.8647H72.2634L75.9466 92.0114H83.8175L85.8864 88.6823H78.0151L82.3036 81.9714L92.3443 97.8647H96.3799L84.069 78.4397C83.313 77.1781 81.2943 77.1781 80.4371 78.4899ZM104.1 80.8045H118.101L120.166 77.4775L103.999 77.4867C98.3729 77.4867 94.6702 82.047 94.6702 87.6723C94.6702 93.2972 98.3729 97.8585 103.999 97.8585L117.675 97.8424L119.816 94.5403H104.1C100.307 94.5403 98.0899 91.4655 98.0899 87.6723C98.0895 83.8797 100.307 80.8045 104.1 80.8045ZM32.6491 77.4867H18.2188C12.5935 77.4867 8.89081 82.047 8.89081 87.6726C8.89081 93.2972 12.5935 97.8585 18.2188 97.8585H32.6491C38.2747 97.8585 41.9771 93.2972 41.9771 87.6726C41.9771 82.047 38.2747 77.4867 32.6491 77.4867ZM32.6491 94.5403H18.2188C14.4259 94.5403 12.209 91.4655 12.209 87.6726C12.209 83.8797 14.4262 80.8045 18.2188 80.8045H32.6491C36.442 80.8045 38.6593 83.8797 38.6593 87.6726C38.6593 91.4655 36.442 94.5403 32.6491 94.5403ZM144.189 89.2873H161.822L163.943 85.9571H144.189C144.766 83.0064 146.849 80.8049 150.041 80.8049H164.043L166.109 77.4778L149.941 77.4871C144.314 77.4871 140.614 82.0473 140.614 87.6726C140.614 93.2976 144.314 97.8588 149.941 97.8588L163.616 97.8428L165.757 94.5407H150.041C146.804 94.5403 144.73 92.3016 144.189 89.2873ZM60.9537 89.5826C64.2933 89.5826 67.0007 86.8752 67.0007 83.5352C67.0007 80.1955 64.2933 77.4884 60.9537 77.4884L43.9752 77.4813V97.865H47.709V80.8066H60.9537C62.461 80.8066 63.6829 82.0285 63.6829 83.5355C63.6829 85.0428 62.461 86.2647 60.9537 86.2647H50.333L62.3137 97.8417H67.134L58.557 89.5898L60.9537 89.5826Z" fill="#FCFCFC"/>
</svg>
