<svg width="199" height="130" viewBox="0 0 199 130" fill="none" xmlns="http://www.w3.org/2000/svg">
<path d="M50.3853 20.2452C47.9303 20.2465 45.5239 20.9273 43.4341 22.2118C41.3443 23.4963 39.6531 25.334 38.5489 27.5203C37.4448 29.7066 36.9709 32.1556 37.1802 34.5946C37.3896 37.0335 38.2738 39.3666 39.7344 41.3341C40.1946 39.4637 40.8171 37.6367 41.5948 35.8739C41.7246 35.5737 41.8616 35.271 42.0012 34.9659C41.9135 34.4703 41.8693 33.9681 41.869 33.4648C41.8716 31.6657 42.4461 29.9138 43.5101 28.4608C44.5741 27.0078 46.0727 25.9286 47.7905 25.3783C47.9961 25.1098 48.2066 24.8462 48.4171 24.5875C49.3318 23.4585 50.3283 22.3979 51.3987 21.4144C51.7977 21.0532 52.1918 20.7212 52.5737 20.4381C51.8507 20.3147 51.1188 20.2502 50.3853 20.2452ZM60.2185 24.607C60.0643 24.441 59.9101 24.2775 59.7485 24.1188C59.6628 24.031 59.5771 23.9504 59.4866 23.8748C59.1213 23.5257 58.7346 23.1996 58.3287 22.8984C58.0594 22.6958 57.7853 22.5055 57.5062 22.3248C57.0302 22.0217 56.5346 21.7502 56.0228 21.512C55.828 21.5942 55.6377 21.6862 55.4524 21.7879C54.6581 22.2553 53.9191 22.8104 53.2493 23.4427C52.7157 23.9309 52.1722 24.4728 51.6263 25.0732C53.5765 25.3594 55.3662 26.3129 56.6886 27.7703C56.8988 27.9951 57.0942 28.2332 57.2737 28.4831C57.5765 28.8978 57.8411 29.3389 58.0643 29.8011C58.2333 30.1453 58.3757 30.5019 58.4903 30.8678C58.7656 31.7094 58.9053 32.5893 58.904 33.4746C58.9009 35.3642 58.2677 37.1992 57.1039 38.6906C55.9402 40.1819 54.312 41.245 52.4758 41.7124C51.7921 41.8833 51.09 41.9693 50.3853 41.9687C50.1968 41.9687 50.0058 41.9687 49.8198 41.9492C49.5119 41.9291 49.2054 41.8916 48.9018 41.8369C46.735 41.4531 44.8009 40.2488 43.5042 38.4759C43.0196 39.7189 42.6268 40.9956 42.3292 42.2958C42.2558 42.6424 42.1921 42.9743 42.1456 43.2843C42.1187 43.4552 42.0966 43.6187 42.0771 43.7725C42.9933 44.514 44.0062 45.1281 45.088 45.5982C45.3695 45.7178 45.651 45.8301 45.9399 45.9326C46.3878 46.0899 46.8437 46.2236 47.3058 46.3329C47.6265 46.4061 47.9447 46.4745 48.2703 46.5233C51.2272 46.9978 54.2582 46.4629 56.8722 45.0051C56.5361 44.4561 56.359 43.825 56.3606 43.1818C56.3596 42.548 56.5294 41.9256 56.8522 41.3797C57.1751 40.8338 57.6391 40.3844 58.1958 40.0785C58.7525 39.7727 59.3814 39.6216 60.0167 39.6411C60.652 39.6606 61.2704 39.8499 61.8072 40.1893C63.2408 37.7618 63.8598 34.9413 63.574 32.1386C63.2883 29.3358 62.1127 26.6972 60.2185 24.607Z" fill="#FCFCFC"/>
<path d="M59.9125 45.8886C61.4159 45.8886 62.6346 44.6734 62.6346 43.1744C62.6346 41.6754 61.4159 40.4602 59.9125 40.4602C58.4091 40.4602 57.1904 41.6754 57.1904 43.1744C57.1904 44.6734 58.4091 45.8886 59.9125 45.8886Z" fill="#FCFCFC"/>
<path d="M58.0912 19.6546C56.9701 19.0077 55.4377 19.3519 53.5944 20.6309C53.543 20.6651 53.4941 20.7041 53.4378 20.7432L53.2835 20.8603C52.8093 21.2073 52.3557 21.5814 51.925 21.9807C51.6883 22.1971 51.4484 22.4241 51.2053 22.6617C50.4359 23.4288 49.7071 24.2354 49.0217 25.0781C48.7672 25.3873 48.5134 25.7078 48.2604 26.0398C47.0144 27.674 45.8746 29.3861 44.8481 31.1655C44.0966 32.469 43.4136 33.7772 42.8114 35.0709C42.7771 35.149 42.7404 35.2222 42.711 35.2954C42.574 35.5908 42.4418 35.8886 42.312 36.1839C41.9644 36.9975 41.6552 37.7859 41.3843 38.5491C41.3084 38.7443 41.2423 38.9396 41.1811 39.1324C41.1199 39.3253 41.0514 39.5181 40.9926 39.7085C40.9583 39.8183 40.9216 39.9281 40.8923 40.0355C40.8629 40.1429 40.8164 40.2796 40.7821 40.4163C40.7233 40.6165 40.6695 40.8093 40.623 41.0046C40.5838 41.1412 40.552 41.2731 40.5202 41.4049C40.4883 41.5367 40.4467 41.7173 40.4125 41.8686C40.4125 41.9125 40.3953 41.9516 40.3831 41.9931C40.3708 42.0346 40.3684 42.0761 40.3611 42.1151C39.6805 45.3932 40.0649 47.5509 41.4724 48.3588C41.8445 48.5715 42.2675 48.6795 42.6964 48.6712C43.5654 48.6712 44.7575 48.2929 46.3486 47.0993C46.4196 47.0481 46.4906 46.9944 46.5591 46.9382C46.2703 46.8577 45.9741 46.7674 45.6779 46.6624C45.5188 46.6038 45.3572 46.5453 45.1883 46.4769C43.8346 47.3996 42.711 47.6973 42.0624 47.3361C41.4137 46.9748 41.115 45.7886 41.2594 44.1069C41.2594 44.0361 41.2594 43.9653 41.2741 43.8921C41.2888 43.8188 41.2888 43.7481 41.3011 43.67C41.3133 43.5918 41.3206 43.504 41.3353 43.4259C41.35 43.3478 41.3598 43.2526 41.372 43.1671C41.3916 43.0548 41.3916 43.0548 41.4112 42.9426C41.4259 42.8498 41.443 42.7546 41.4602 42.6594C41.4773 42.5642 41.4993 42.4471 41.5238 42.3421L41.5703 42.1298C41.6095 41.9589 41.6487 41.7832 41.6927 41.6074C41.7368 41.4317 41.7808 41.2535 41.8274 41.0753C41.8739 40.8972 41.9302 40.7117 41.984 40.5286C42.0379 40.3455 42.0819 40.1991 42.1358 40.0404C42.268 39.6084 42.4222 39.169 42.5862 38.7175C42.6988 38.4026 42.8188 38.0829 42.9485 37.7607C42.957 37.733 42.9676 37.7061 42.9803 37.6801C43.0856 37.419 43.1908 37.1578 43.3034 36.8942C44.0548 35.1346 44.914 33.4228 45.8762 31.7684C47.1119 29.6105 48.5277 27.5603 50.1086 25.6395C50.2922 25.4174 50.4758 25.2001 50.6594 24.9902L50.9164 24.6973L51.1783 24.4142C51.2738 24.3092 51.3693 24.2043 51.4672 24.1018L51.8882 23.6697C51.9935 23.5623 52.1037 23.4525 52.2089 23.3524C52.3803 23.184 52.5516 23.0254 52.7254 22.8643C53.4399 22.1911 54.2292 21.6014 55.0779 21.1069C55.3133 20.9718 55.5588 20.8551 55.8122 20.7578C55.8921 20.7246 55.9738 20.6961 56.057 20.6724C56.6421 20.482 57.1292 20.482 57.4841 20.687C57.8391 20.8921 58.0716 21.2875 58.2185 21.8586C58.4143 21.988 58.6126 22.1271 58.8085 22.276C59.0533 22.4688 59.298 22.6592 59.5257 22.8545C59.4841 21.2582 58.9945 20.1769 58.0912 19.6546ZM57.3569 30.1331C57.2332 29.8822 57.0967 29.6378 56.9481 29.4008C56.0538 31.7753 54.9606 34.0704 53.6801 36.262C52.8723 37.6557 52.0106 38.9909 51.1171 40.2308C50.8724 40.5579 50.6447 40.8776 50.4097 41.1876C50.9462 41.1862 51.4811 41.1289 52.0057 41.0168C52.0302 40.9875 52.0547 40.9509 52.0767 40.9191C52.5369 40.2813 52.9873 39.623 53.428 38.9445C53.8637 38.2659 54.2945 37.5654 54.7033 36.8527C55.8274 34.9248 56.8131 32.9199 57.6531 30.8531C57.5723 30.6088 57.4758 30.3699 57.3642 30.138L57.3569 30.1331Z" fill="#FCFCFC"/>
<path d="M76.2204 39.4596C76.2204 40.575 75.9022 41.3707 75.3514 41.8565C74.8313 42.3004 74.1601 42.5285 73.4763 42.4935C72.059 42.4935 70.9134 41.6417 70.9134 39.8086V31.4292H66.4875V40.4603C66.4875 44.4316 69.0236 46.5502 72.0027 46.5502C73.3784 46.5502 74.5191 46.1987 75.3514 45.608C75.683 45.37 75.9761 45.0827 76.2204 44.7562V46.1353H80.6462V31.4292H76.2204V39.4596Z" fill="#FCFCFC"/>
<path d="M92.712 31.0216C90.7365 31.0216 89.2849 31.6977 88.318 32.8156V25.5492H83.8922V46.1401H88.318V44.7562C89.2971 45.8741 90.7365 46.5502 92.712 46.5502C96.5772 46.5502 99.762 43.1696 99.762 38.7859C99.762 34.4021 96.5772 31.0216 92.712 31.0216ZM91.8283 42.3739C89.7916 42.3739 88.318 40.9924 88.318 38.7859C88.318 36.5793 89.7867 35.1978 91.8283 35.1978C93.8698 35.1978 95.3386 36.5793 95.3386 38.7859C95.3386 40.9924 93.8625 42.3739 91.8283 42.3739Z" fill="#FCFCFC"/>
<path d="M104.484 26.135C103.959 26.1345 103.445 26.2894 103.008 26.5801C102.571 26.8709 102.23 27.2843 102.028 27.7682C101.827 28.252 101.774 28.7846 101.876 29.2985C101.978 29.8124 102.231 30.2845 102.603 30.6551C102.974 31.0257 103.447 31.2782 103.962 31.3806C104.478 31.4829 105.012 31.4306 105.497 31.2303C105.983 31.0299 106.398 30.6904 106.69 30.2549C106.982 29.8193 107.137 29.3072 107.137 28.7833C107.128 28.0843 106.845 27.4165 106.35 26.922C105.854 26.4274 105.185 26.1451 104.484 26.135Z" fill="#FCFCFC"/>
<path d="M102.269 32.1492V46.1376H106.694V32.1492C106.039 32.5838 105.269 32.8156 104.482 32.8156C103.694 32.8156 102.924 32.5838 102.269 32.1492Z" fill="#FCFCFC"/>
<path d="M115.541 27.314L111.115 28.6369V31.4292H108.753V35.669H111.115V40.8777C111.115 45.0003 112.797 46.7357 118.579 46.1426V42.1396C116.633 42.2592 115.541 42.1396 115.541 40.8728V35.669H118.579V31.4292H115.541V27.314Z" fill="#FCFCFC"/>
<path d="M144.781 35.3736C146.081 35.3736 147.141 35.9912 147.643 37.0212L151.508 34.7756C150.24 32.5105 147.704 31.0118 144.843 31.0118C140.358 31.0118 137.024 34.3924 137.024 38.7762C137.024 43.1599 140.358 46.5405 144.843 46.5405C147.734 46.5405 150.228 45.0418 151.508 42.7474L147.643 40.5506C147.173 41.5807 146.081 42.1982 144.781 42.1982C142.865 42.1982 141.45 40.8167 141.45 38.781C141.45 36.7454 142.865 35.3736 144.781 35.3736Z" fill="#FCFCFC"/>
<path d="M161.926 31.0216C160.551 31.0216 159.41 31.373 158.578 31.9637C158.246 32.1908 157.955 32.4712 157.716 32.7936C157.716 32.7936 157.716 32.8082 157.701 32.8156V25.5468H153.283V46.1377H157.701V38.1073C157.701 37.9755 157.701 37.8632 157.716 37.7265C157.777 36.8063 158.091 36.14 158.578 35.7177C159.097 35.2773 159.764 35.0496 160.445 35.0807C161.863 35.0807 163.016 35.9325 163.016 37.7656V46.1474H167.437V37.1163C167.437 33.1402 164.901 31.0216 161.926 31.0216Z" fill="#FCFCFC"/>
<path d="M127.908 31.0215C123.257 31.0215 120.075 34.402 120.075 38.7882C120.075 43.1744 123.203 46.5525 128.246 46.5525C131.046 46.5525 133.23 45.5201 134.674 43.5186L131.137 41.4902C130.952 41.6849 130.745 41.8569 130.52 42.0028C129.853 42.4107 129.084 42.6215 128.302 42.6106C127.595 42.631 126.893 42.4943 126.246 42.2103H126.231C125.888 42.0471 125.581 41.8171 125.329 41.5337C125.077 41.2502 124.884 40.9193 124.762 40.5603H135.234C135.353 39.9796 135.411 39.3882 135.408 38.7956C135.398 34.3459 132.216 31.0215 127.908 31.0215ZM125.215 37.2554H124.657C125.054 35.7909 126.126 34.9903 127.71 34.9415C127.901 34.9293 128.094 34.9342 128.285 34.9561C128.353 34.9561 128.424 34.9708 128.486 34.983C128.613 35.0049 128.73 35.0245 128.855 35.0586C128.95 35.0788 129.043 35.109 129.132 35.1489C129.231 35.1791 129.327 35.2192 129.418 35.2685C129.528 35.3222 129.646 35.3857 129.759 35.454C129.8 35.4833 129.842 35.5102 129.883 35.5444C129.912 35.558 129.938 35.577 129.959 35.6005C130.567 36.0137 131.048 36.5865 131.35 37.2554H125.215Z" fill="#FCFCFC"/>
<path d="M83.9631 54.1412L84.3156 53.9337C84.5017 54.5781 85.05 55.0126 85.9288 55.0126C86.8076 55.0126 87.28 54.5537 87.28 53.941C87.28 53.3284 86.7121 53.055 85.8896 52.7938C84.9913 52.5034 84.1761 52.2495 84.1761 51.3171C84.1761 50.436 84.8909 49.877 85.804 49.877C86.1728 49.8661 86.5361 49.9681 86.8451 50.1693C87.1541 50.3705 87.3938 50.6611 87.5322 51.0022L87.187 51.1926C87.0842 50.9124 86.895 50.6719 86.6464 50.5057C86.3979 50.3395 86.103 50.2561 85.804 50.2675C85.0696 50.2675 84.5922 50.7045 84.5922 51.3C84.5922 51.9444 85.1357 52.1421 85.9043 52.396C86.8565 52.7084 87.6839 53.0086 87.6839 53.9337C87.6839 54.8222 86.9863 55.3982 85.919 55.3982C84.9129 55.4031 84.2079 54.8978 83.9631 54.1412Z" fill="#FCFCFC"/>
<path d="M93.7132 52.6401C93.7127 52.0929 93.875 51.5579 94.1796 51.1028C94.4841 50.6476 94.9173 50.2928 95.4242 50.0832C95.9311 49.8736 96.4889 49.8186 97.0271 49.9252C97.5654 50.0318 98.0598 50.2953 98.4478 50.6822C98.8358 51.0691 99.1 51.5621 99.207 52.0987C99.3139 52.6354 99.2588 53.1917 99.0486 53.6971C98.8383 54.2025 98.4825 54.6344 98.026 54.9381C97.5695 55.2418 97.033 55.4036 96.4842 55.4031C96.1198 55.4051 95.7586 55.3349 95.4215 55.1968C95.0844 55.0586 94.7782 54.8551 94.5205 54.5982C94.2627 54.3412 94.0587 54.0359 93.9201 53.6998C93.7816 53.3637 93.7112 53.0035 93.7132 52.6401ZM98.8538 52.6401C98.8509 52.1744 98.7097 51.72 98.4482 51.3342C98.1866 50.9483 97.8162 50.6484 97.3839 50.4722C96.9516 50.296 96.4766 50.2514 96.0189 50.344C95.5611 50.4366 95.1411 50.6623 94.8119 50.9927C94.4827 51.323 94.2589 51.7431 94.1688 52.2001C94.0788 52.6571 94.1265 53.1304 94.3059 53.5604C94.4853 53.9904 94.7884 54.3578 95.1769 54.6162C95.5654 54.8747 96.0221 55.0126 96.4891 55.0126C96.8008 55.0133 97.1096 54.9522 97.3975 54.833C97.6854 54.7137 97.9466 54.5387 98.1662 54.318C98.3857 54.0973 98.5591 53.8353 98.6763 53.5473C98.7935 53.2593 98.8521 52.9509 98.8489 52.6401H98.8538Z" fill="#FCFCFC"/>
<path d="M108.601 54.9368V55.3201H105.664V49.9624H106.07V54.9368H108.601Z" fill="#FCFCFC"/>
<path d="M114.67 53.5285V49.9624H115.076V53.5285C115.076 54.4023 115.619 55.0125 116.633 55.0125C117.646 55.0125 118.2 54.4023 118.2 53.5285V49.9624H118.606V53.5285C118.606 54.661 117.815 55.4031 116.633 55.4031C115.451 55.4031 114.67 54.661 114.67 53.5285Z" fill="#FCFCFC"/>
<path d="M128.544 50.3432H126.855V55.3201H126.439V50.3432H124.75V49.9624H128.544V50.3432Z" fill="#FCFCFC"/>
<path d="M135.171 49.9624V55.3201H134.765V49.9624H135.171Z" fill="#FCFCFC"/>
<path d="M141.575 52.64C141.575 52.0935 141.737 51.5593 142.042 51.1049C142.346 50.6505 142.779 50.2964 143.285 50.0873C143.792 49.8781 144.349 49.8234 144.886 49.93C145.424 50.0367 145.917 50.2998 146.305 50.6862C146.693 51.0726 146.956 51.565 147.063 52.101C147.17 52.6369 147.115 53.1925 146.906 53.6974C146.696 54.2022 146.341 54.6338 145.885 54.9374C145.429 55.241 144.894 55.403 144.346 55.403C143.981 55.405 143.62 55.3348 143.283 55.1967C142.946 55.0585 142.64 54.8551 142.382 54.5981C142.124 54.3411 141.92 54.0358 141.782 53.6997C141.643 53.3636 141.573 53.0034 141.575 52.64ZM146.715 52.64C146.712 52.1743 146.571 51.7199 146.31 51.3341C146.048 50.9482 145.678 50.6483 145.245 50.4721C144.813 50.2959 144.338 50.2513 143.88 50.3439C143.423 50.4365 143.003 50.6622 142.673 50.9925C142.344 51.3229 142.12 51.743 142.03 52.2C141.94 52.657 141.988 53.1303 142.167 53.5603C142.347 53.9903 142.65 54.3577 143.038 54.6161C143.427 54.8746 143.883 55.0125 144.351 55.0125C144.662 55.0132 144.971 54.9521 145.259 54.8329C145.547 54.7136 145.808 54.5386 146.028 54.3179C146.247 54.0972 146.42 53.8352 146.538 53.5472C146.655 53.2592 146.714 52.9508 146.71 52.64H146.715Z" fill="#FCFCFC"/>
<path d="M157.462 49.9624V55.3201H157.099L153.929 50.7117V55.3201H153.523V49.9624H153.875L157.058 54.5683V49.9624H157.462Z" fill="#FCFCFC"/>
<path d="M163.765 54.1412L164.117 53.9337C164.301 54.5781 164.852 55.0126 165.731 55.0126C166.609 55.0126 167.082 54.5537 167.082 53.9411C167.082 53.3284 166.514 53.055 165.691 52.7939C164.793 52.5034 163.978 52.2496 163.978 51.3172C163.978 50.436 164.69 49.8771 165.606 49.8771C165.972 49.8685 166.333 49.9717 166.639 50.1727C166.945 50.3738 167.182 50.6632 167.319 51.0023L166.974 51.1927C166.872 50.9127 166.683 50.6722 166.435 50.506C166.187 50.3398 165.892 50.2563 165.593 50.2676C164.847 50.2676 164.369 50.7045 164.369 51.3001C164.369 51.9445 164.915 52.1422 165.682 52.396C166.634 52.7084 167.464 53.0087 167.464 53.9337C167.464 54.8222 166.766 55.3982 165.699 55.3982C164.744 55.4031 164.01 54.8979 163.765 54.1412Z" fill="#FCFCFC"/>
</svg>
