<svg width="38" height="38" viewBox="0 0 38 38" fill="none" xmlns="http://www.w3.org/2000/svg">
<path d="M10.6875 3.85938C10.8636 3.85938 11.0358 3.80714 11.1823 3.70928C11.3288 3.61141 11.4429 3.47232 11.5103 3.30958C11.5777 3.14684 11.5954 2.96776 11.561 2.795C11.5266 2.62223 11.4418 2.46354 11.3173 2.33898C11.1927 2.21443 11.034 2.1296 10.8613 2.09524C10.6885 2.06087 10.5094 2.07851 10.3467 2.14592C10.1839 2.21333 10.0448 2.32748 9.94697 2.47395C9.84911 2.62041 9.79688 2.7926 9.79688 2.96875C9.79688 3.20496 9.89071 3.43149 10.0577 3.59852C10.2248 3.76554 10.4513 3.85938 10.6875 3.85938ZM10.6875 2.67188C10.7462 2.67188 10.8036 2.68929 10.8524 2.72191C10.9013 2.75453 10.9393 2.80089 10.9618 2.85514C10.9842 2.90939 10.9901 2.96908 10.9787 3.02667C10.9672 3.08426 10.9389 3.13715 10.8974 3.17867C10.8559 3.22019 10.803 3.24847 10.7454 3.25992C10.6878 3.27138 10.6281 3.2655 10.5739 3.24303C10.5196 3.22056 10.4733 3.18251 10.4407 3.13369C10.408 3.08486 10.3906 3.02747 10.3906 2.96875C10.3906 2.89001 10.4219 2.8145 10.4776 2.75883C10.5333 2.70315 10.6088 2.67188 10.6875 2.67188Z" fill="#26BAF6"/>
<path d="M13.0625 3.5625C13.3904 3.5625 13.6562 3.29667 13.6562 2.96875C13.6562 2.64083 13.3904 2.375 13.0625 2.375C12.7346 2.375 12.4688 2.64083 12.4688 2.96875C12.4688 3.29667 12.7346 3.5625 13.0625 3.5625Z" fill="#26BAF6"/>
<path d="M8.3125 3.5625C8.64042 3.5625 8.90625 3.29667 8.90625 2.96875C8.90625 2.64083 8.64042 2.375 8.3125 2.375C7.98458 2.375 7.71875 2.64083 7.71875 2.96875C7.71875 3.29667 7.98458 3.5625 8.3125 3.5625Z" fill="#26BAF6"/>
<path d="M35.0311 9.67188H20.7812V3.89062C20.7812 3.12398 20.4684 2.38874 19.9117 1.84664C19.3549 1.30455 18.5998 1 17.8124 1L3.56249 1C3.17263 1 2.78659 1.07477 2.4264 1.22004C2.06622 1.3653 1.73895 1.57823 1.46327 1.84664C0.906525 2.38874 0.593748 3.12398 0.593748 3.89062V5.625C0.436276 5.625 0.285254 5.68591 0.173905 5.79433C0.0625554 5.90275 0 6.0498 0 6.20312L0 8.51562C0 8.66895 0.0625554 8.816 0.173905 8.92442C0.285254 9.03284 0.436276 9.09375 0.593748 9.09375V10.8281C0.436276 10.8281 0.285254 10.889 0.173905 10.9975C0.0625554 11.1059 0 11.2529 0 11.4062L0 13.7188C0 13.8721 0.0625554 14.0191 0.173905 14.1275C0.285254 14.236 0.436276 14.2969 0.593748 14.2969V35.1094C0.593748 35.876 0.906525 36.6113 1.46327 37.1534C1.73895 37.4218 2.06622 37.6347 2.4264 37.78C2.78659 37.9252 3.17263 38 3.56249 38H17.8124C18.5998 38 19.3549 37.6955 19.9117 37.1534C20.4684 36.6113 20.7812 35.876 20.7812 35.1094V31.6406L22.8771 29.7964C23.2032 29.5107 23.626 29.3522 24.0646 29.3512H35.0311C35.2307 29.3492 35.4296 29.3279 35.6249 29.2877C35.8288 29.2435 36.0277 29.1796 36.2186 29.0969H36.2543C36.7786 28.866 37.2228 28.4918 37.5327 28.0196C37.8426 27.5475 38.0049 26.9978 37.9999 26.4375V12.5625C37.9999 11.7959 37.6871 11.0606 37.1304 10.5185C36.5736 9.97642 35.8185 9.67188 35.0311 9.67188ZM13.0625 29.3281H14.25C14.6752 29.3223 15.0885 29.4649 15.4152 29.7299C15.7419 29.995 15.9604 30.3652 16.0312 30.7734H1.78124V4.17969H3.56249C3.86793 4.18729 4.16776 4.26132 4.44001 4.39636C4.71226 4.53141 4.95004 4.72404 5.13592 4.96016C5.37364 5.25328 5.67558 5.49103 6.01969 5.65606C6.36381 5.82109 6.74142 5.90924 7.12498 5.91406H14.25C14.6335 5.90924 15.0111 5.82109 15.3552 5.65606C15.6994 5.49103 16.0013 5.25328 16.239 4.96016C16.4249 4.72404 16.6627 4.53141 16.9349 4.39636C17.2072 4.26132 17.507 4.18729 17.8124 4.17969H19.5937V9.67188H13.0625C12.2751 9.67188 11.52 9.97642 10.9632 10.5185C10.4065 11.0606 10.0937 11.7959 10.0937 12.5625V26.4375C10.0937 27.2041 10.4065 27.9394 10.9632 28.4815C11.52 29.0236 12.2751 29.3281 13.0625 29.3281ZM3.56249 2.15625H17.8124C18.2377 2.15047 18.651 2.29299 18.9777 2.55807C19.3043 2.82315 19.5229 3.19328 19.5937 3.60156H17.8124C17.4289 3.60639 17.0513 3.69453 16.7072 3.85956C16.363 4.02459 16.0611 4.26234 15.8234 4.55547C15.6375 4.79158 15.3997 4.98422 15.1275 5.11926C14.8552 5.25431 14.5554 5.32834 14.25 5.33594H7.12498C6.81954 5.32834 6.51971 5.25431 6.24746 5.11926C5.9752 4.98422 5.73743 4.79158 5.55155 4.55547C5.31382 4.26234 5.01189 4.02459 4.66777 3.85956C4.32366 3.69453 3.94605 3.60639 3.56249 3.60156H1.81093C1.88095 3.19821 2.09514 2.83194 2.41565 2.56747C2.73616 2.303 3.14237 2.15735 3.56249 2.15625ZM19.5937 35.1094C19.5937 35.5694 19.406 36.0105 19.072 36.3358C18.7379 36.661 18.2849 36.8438 17.8124 36.8438H3.56249C3.09007 36.8438 2.63701 36.661 2.30296 36.3358C1.96891 36.0105 1.78124 35.5694 1.78124 35.1094V31.3516H16.0312V33.5195C16.0299 33.7112 16.0852 33.8991 16.1904 34.0611C16.2957 34.223 16.4465 34.3521 16.625 34.433C16.7051 34.4719 16.7914 34.4973 16.8803 34.5081H16.9574H17.0643H17.1178C17.1941 34.5051 17.2698 34.4934 17.3434 34.4734L17.4443 34.4445C17.5533 34.4012 17.6553 34.3428 17.7471 34.2711L19.5937 32.6581V35.1094ZM29.7408 28.1719L26.3505 24.8766C26.143 24.6718 25.8852 24.5218 25.6016 24.4409C25.318 24.36 25.0179 24.3508 24.7296 24.4141C24.013 24.5617 23.2707 24.5439 22.5624 24.362C21.7511 24.1498 21.0114 23.7337 20.4174 23.1553C19.8234 22.5769 19.396 21.8567 19.1781 21.0667C19.0249 20.5191 18.9825 19.9477 19.0534 19.3844L20.8346 21.1187C21.1737 21.434 21.6245 21.6099 22.0934 21.6099C22.5622 21.6099 23.013 21.434 23.3521 21.1187L25.0087 19.5C25.3422 19.1748 25.5296 18.734 25.5296 18.2744C25.5296 17.8148 25.3422 17.3739 25.0087 17.0487L23.2274 15.3144C23.8084 15.2502 24.3966 15.2934 24.9612 15.4416C25.7722 15.6543 26.5116 16.0706 27.1055 16.6489C27.6995 17.2272 28.1271 17.9472 28.3455 18.7369C28.5332 19.4325 28.5495 20.1615 28.393 20.8644C28.3316 21.1465 28.3434 21.4391 28.4274 21.7157C28.5114 21.9923 28.6649 22.2442 28.874 22.4484L34.7758 28.1719H29.7408ZM36.8124 26.4375C36.8108 26.7063 36.745 26.971 36.6204 27.2108C36.4957 27.4506 36.3155 27.6589 36.094 27.8192L29.6874 21.6102C29.6191 21.5417 29.5692 21.4578 29.5423 21.366C29.5153 21.2742 29.5122 21.1773 29.533 21.0841C29.7279 20.2031 29.7055 19.2898 29.4677 18.4189C29.1963 17.434 28.665 16.5353 27.9265 15.8122C27.188 15.0891 26.2681 14.5667 25.258 14.2969C24.5511 14.1185 23.817 14.0657 23.0909 14.1408C22.8682 14.1654 22.6573 14.2508 22.4824 14.3872C22.3076 14.5236 22.1759 14.7054 22.1026 14.9115C22.0293 15.1177 22.0175 15.3398 22.0684 15.5523C22.1193 15.7648 22.2309 15.9589 22.3902 16.1122L24.1715 17.8466C24.2812 17.9542 24.343 18.0996 24.3437 18.2513C24.3441 18.3273 24.3291 18.4028 24.2996 18.4732C24.2701 18.5436 24.2265 18.6077 24.1715 18.6617L22.4912 20.2978C22.436 20.352 22.3703 20.395 22.298 20.4244C22.2256 20.4537 22.148 20.4688 22.0696 20.4688C21.9912 20.4688 21.9136 20.4537 21.8413 20.4244C21.7689 20.395 21.7033 20.352 21.6481 20.2978L19.8668 18.5634C19.7093 18.4082 19.51 18.2996 19.2918 18.25C19.0736 18.2005 18.8455 18.212 18.6337 18.2834C18.422 18.3547 18.2353 18.4829 18.0952 18.6532C17.9552 18.8235 17.8674 19.0289 17.8421 19.2456C17.7593 19.9526 17.8137 20.6684 18.0024 21.3558C18.2759 22.3444 18.8115 23.2457 19.5556 23.9692C20.2997 24.6927 21.226 25.213 22.2418 25.4778C23.1342 25.7095 24.0703 25.7313 24.973 25.5414C25.068 25.5221 25.1663 25.5257 25.2594 25.5519C25.3526 25.5781 25.4377 25.6261 25.5074 25.6917L28.0605 28.1719H24.0706C23.3356 28.1722 22.6268 28.4379 22.0815 28.9177L19.7896 30.9295L17.2187 33.19V31.0625C17.2187 30.2959 16.9059 29.5606 16.3492 29.0185C15.7924 28.4764 15.0373 28.1719 14.25 28.1719H13.0625C12.59 28.1719 12.137 27.9891 11.8029 27.6639C11.4689 27.3386 11.2812 26.8975 11.2812 26.4375V12.5625C11.2812 12.1025 11.4689 11.6614 11.8029 11.3361C12.137 11.0109 12.59 10.8281 13.0625 10.8281H35.0311C35.5036 10.8281 35.9566 11.0109 36.2907 11.3361C36.6247 11.6614 36.8124 12.1025 36.8124 12.5625V26.4375Z" fill="#26BAF6"/>
<path d="M21.2384 16.0312L20.3953 16.8684C20.23 17.0362 20.1373 17.2623 20.1373 17.4978C20.1373 17.7333 20.23 17.9594 20.3953 18.1272L21.2384 19C21.32 19.0841 21.418 19.1506 21.5262 19.1955C21.6344 19.2405 21.7507 19.2628 21.8678 19.2612C21.9849 19.2621 22.1009 19.2395 22.2091 19.1946C22.3172 19.1497 22.4152 19.0835 22.4972 19L23.3344 18.1628C23.4177 18.0805 23.4838 17.9825 23.5289 17.8745C23.5741 17.7664 23.5973 17.6505 23.5973 17.5334C23.5973 17.4163 23.5741 17.3004 23.5289 17.1924C23.4838 17.0843 23.4177 16.9863 23.3344 16.9041L22.4972 16.0312C22.4149 15.9479 22.3169 15.8818 22.2089 15.8367C22.1008 15.7915 21.9849 15.7683 21.8678 15.7683C21.7507 15.7683 21.6348 15.7915 21.5268 15.8367C21.4187 15.8818 21.3207 15.9479 21.2384 16.0312ZM22.9187 17.29C22.9731 17.3455 23.0036 17.4201 23.0036 17.4978C23.0036 17.5755 22.9731 17.6501 22.9187 17.7056L22.0756 18.5487C22.0191 18.6035 21.9435 18.6341 21.8648 18.6341C21.7862 18.6341 21.7106 18.6035 21.6541 18.5487L20.8169 17.7056C20.7625 17.6501 20.732 17.5755 20.732 17.4978C20.732 17.4201 20.7625 17.3455 20.8169 17.29L21.6541 16.4469C21.7126 16.3938 21.7888 16.3642 21.8678 16.3637C21.945 16.3645 22.0192 16.3941 22.0756 16.4469L22.9187 17.29Z" fill="#26BAF6"/>
<path d="M21.9688 10.9844C21.89 10.9844 21.8145 11.0157 21.7588 11.0713C21.7032 11.127 21.6719 11.2025 21.6719 11.2812V12.4688C21.6719 12.5475 21.7032 12.623 21.7588 12.6787C21.8145 12.7343 21.89 12.7656 21.9688 12.7656C22.0475 12.7656 22.123 12.7343 22.1787 12.6787C22.2343 12.623 22.2656 12.5475 22.2656 12.4688V11.2812C22.2656 11.2025 22.2343 11.127 22.1787 11.0713C22.123 11.0157 22.0475 10.9844 21.9688 10.9844Z" fill="#26BAF6"/>
<path d="M20.7813 12.7656C20.8202 12.7661 20.8588 12.7584 20.8946 12.7431C20.9304 12.7278 20.9626 12.7051 20.9891 12.6766C21.0175 12.6499 21.0401 12.6177 21.0556 12.582C21.071 12.5462 21.079 12.5077 21.079 12.4688C21.079 12.4298 21.071 12.3913 21.0556 12.3555C21.0401 12.3198 21.0175 12.2876 20.9891 12.2609L20.3953 11.6672C20.368 11.6399 20.3356 11.6183 20.3 11.6035C20.2643 11.5887 20.2261 11.5811 20.1875 11.5811C20.1489 11.5811 20.1107 11.5887 20.075 11.6035C20.0394 11.6183 20.007 11.6399 19.9797 11.6672C19.9524 11.6945 19.9307 11.7269 19.916 11.7625C19.9012 11.7982 19.8936 11.8364 19.8936 11.875C19.8936 11.9136 19.9012 11.9518 19.916 11.9875C19.9307 12.0231 19.9524 12.0555 19.9797 12.0828L20.5734 12.6766C20.5999 12.7051 20.6321 12.7278 20.6679 12.7431C20.7037 12.7584 20.7423 12.7661 20.7813 12.7656Z" fill="#26BAF6"/>
<path d="M5.34375 31.7656C4.93274 31.7656 4.53095 31.8875 4.18921 32.1159C3.84746 32.3442 3.5811 32.6688 3.42381 33.0485C3.26653 33.4282 3.22537 33.8461 3.30556 34.2492C3.38574 34.6523 3.58366 35.0226 3.87429 35.3132C4.16493 35.6038 4.53521 35.8018 4.93833 35.8819C5.34145 35.9621 5.75929 35.921 6.13901 35.7637C6.51874 35.6064 6.8433 35.34 7.07165 34.9983C7.3 34.6565 7.42188 34.2548 7.42188 33.8438C7.42188 33.2926 7.20293 32.764 6.81321 32.3743C6.42348 31.9846 5.8949 31.7656 5.34375 31.7656ZM5.34375 35.3281C5.05017 35.3281 4.76318 35.2411 4.51908 35.078C4.27497 34.9149 4.08472 34.683 3.97237 34.4118C3.86002 34.1406 3.83062 33.8421 3.8879 33.5542C3.94517 33.2662 4.08655 33.0017 4.29414 32.7941C4.50173 32.5865 4.76622 32.4452 5.05416 32.3879C5.3421 32.3306 5.64056 32.36 5.9118 32.4724C6.18303 32.5847 6.41486 32.775 6.57796 33.0191C6.74107 33.2632 6.82813 33.5502 6.82813 33.8438C6.82813 34.0387 6.78973 34.2317 6.71513 34.4118C6.64054 34.5919 6.5312 34.7555 6.39336 34.8934C6.25553 35.0312 6.09189 35.1405 5.9118 35.2151C5.7317 35.2897 5.53868 35.3281 5.34375 35.3281Z" fill="#26BAF6"/>
<path d="M15.4375 34.7344H10.0938C9.85754 34.7344 9.63101 34.6405 9.46398 34.4735C9.29696 34.3065 9.20312 34.08 9.20312 33.8438C9.20312 33.6075 9.29696 33.381 9.46398 33.214C9.63101 33.047 9.85754 32.9531 10.0938 32.9531H14.8438C14.9225 32.9531 14.998 32.9218 15.0537 32.8662C15.1093 32.8105 15.1406 32.735 15.1406 32.6562C15.1406 32.5775 15.1093 32.502 15.0537 32.4463C14.998 32.3907 14.9225 32.3594 14.8438 32.3594H10.0938C9.70007 32.3594 9.32251 32.5158 9.04414 32.7941C8.76576 33.0725 8.60938 33.4501 8.60938 33.8438C8.60938 34.2374 8.76576 34.615 9.04414 34.8934C9.32251 35.1717 9.70007 35.3281 10.0938 35.3281H15.4375C15.5162 35.3281 15.5917 35.2968 15.6474 35.2412C15.7031 35.1855 15.7344 35.11 15.7344 35.0312C15.7344 34.9525 15.7031 34.877 15.6474 34.8213C15.5917 34.7657 15.5162 34.7344 15.4375 34.7344Z" fill="#26BAF6"/>
</svg>
