<svg width="38" height="38" viewBox="0 0 38 38" fill="none" xmlns="http://www.w3.org/2000/svg">
<path d="M34.4375 17.8125C35.15 17.8125 35.625 17.3375 35.625 16.625C35.625 15.9125 35.15 15.4375 34.4375 15.4375H30.875V13.0625H34.4375C35.15 13.0625 35.625 12.5875 35.625 11.875C35.625 11.1625 35.15 10.6875 34.4375 10.6875H30.875C30.875 8.66875 29.3312 7.125 27.3125 7.125V3.5625C27.3125 2.85 26.8375 2.375 26.125 2.375C25.4125 2.375 24.9375 2.85 24.9375 3.5625V7.125H22.5625V3.5625C22.5625 2.85 22.0875 2.375 21.375 2.375C20.6625 2.375 20.1875 2.85 20.1875 3.5625V7.125H17.8125V3.5625C17.8125 2.85 17.3375 2.375 16.625 2.375C15.9125 2.375 15.4375 2.85 15.4375 3.5625V7.125H13.0625V3.5625C13.0625 2.85 12.5875 2.375 11.875 2.375C11.1625 2.375 10.6875 2.85 10.6875 3.5625V7.125C8.66875 7.125 7.125 8.66875 7.125 10.6875H3.5625C2.85 10.6875 2.375 11.1625 2.375 11.875C2.375 12.5875 2.85 13.0625 3.5625 13.0625H7.125V15.4375H3.5625C2.85 15.4375 2.375 15.9125 2.375 16.625C2.375 17.3375 2.85 17.8125 3.5625 17.8125H7.125V20.1875H3.5625C2.85 20.1875 2.375 20.6625 2.375 21.375C2.375 22.0875 2.85 22.5625 3.5625 22.5625H7.125V24.9375H3.5625C2.85 24.9375 2.375 25.4125 2.375 26.125C2.375 26.8375 2.85 27.3125 3.5625 27.3125H7.125C7.125 29.3312 8.66875 30.875 10.6875 30.875V34.4375C10.6875 35.15 11.1625 35.625 11.875 35.625C12.5875 35.625 13.0625 35.15 13.0625 34.4375V30.875H15.4375V34.4375C15.4375 35.15 15.9125 35.625 16.625 35.625C17.3375 35.625 17.8125 35.15 17.8125 34.4375V30.875H20.1875V34.4375C20.1875 35.15 20.6625 35.625 21.375 35.625C22.0875 35.625 22.5625 35.15 22.5625 34.4375V30.875H24.9375V34.4375C24.9375 35.15 25.4125 35.625 26.125 35.625C26.8375 35.625 27.3125 35.15 27.3125 34.4375V30.875C29.3312 30.875 30.875 29.3312 30.875 27.3125H34.4375C35.15 27.3125 35.625 26.8375 35.625 26.125C35.625 25.4125 35.15 24.9375 34.4375 24.9375H30.875V22.5625H34.4375C35.15 22.5625 35.625 22.0875 35.625 21.375C35.625 20.6625 35.15 20.1875 34.4375 20.1875H30.875V17.8125H34.4375ZM26.125 22.5625C26.125 24.5812 24.5812 26.125 22.5625 26.125H15.4375C13.4187 26.125 11.875 24.5812 11.875 22.5625V15.4375C11.875 13.4187 13.4187 11.875 15.4375 11.875H22.5625C24.5812 11.875 26.125 13.4187 26.125 15.4375V22.5625Z" fill="#26BAF6"/>
</svg>
