<svg width="38" height="38" viewBox="0 0 38 38" fill="none" xmlns="http://www.w3.org/2000/svg">
<g clip-path="url(#clip0)">
<path d="M10.2274 37.9926H5.15821C4.41603 37.9926 3.81485 37.384 3.81485 36.6492V26.2734C3.81485 25.5313 4.42345 24.9301 5.15821 24.9301H10.2274C10.9695 24.9301 11.5707 25.5387 11.5707 26.2734V36.6492C11.5781 37.3914 10.9695 37.9926 10.2274 37.9926Z" fill="#26BAF6"/>
<path d="M21.2934 37.9926H16.7066C15.8383 37.9926 15.1184 37.2801 15.1184 36.4043V21.4344C15.1184 20.566 15.8309 19.8461 16.7066 19.8461H21.2934C22.1617 19.8461 22.8816 20.5586 22.8816 21.4344V36.4043C22.8816 37.2801 22.1691 37.9926 21.2934 37.9926Z" fill="#26BAF6"/>
<path d="M32.3965 37.9926H28.218C27.2309 37.9926 26.4293 37.1836 26.4293 36.2039V16.6473C26.4293 15.6602 27.2383 14.8586 28.218 14.8586H32.3965C33.3836 14.8586 34.1852 15.6676 34.1852 16.6473V36.2039C34.1852 37.191 33.3836 37.9926 32.3965 37.9926Z" fill="#26BAF6"/>
<path d="M33.0348 1.78439e-05C31.402 0.0668147 30.1328 1.44728 30.1996 3.08752L22.659 10.502L16.2316 4.87619L4.46797 16.677C2.9539 16.8699 1.81836 18.1762 1.87773 19.7274C1.94453 21.3602 3.33242 22.6293 4.96523 22.5625C6.59805 22.4957 7.86719 21.1078 7.80039 19.475C7.79297 19.3414 7.76328 19.2153 7.74101 19.0817L16.5953 10.5836L22.8074 16.0238L33.1016 5.91525C33.1609 5.91525 33.2203 5.9301 33.2797 5.92267C34.9125 5.85588 36.1816 4.46799 36.1148 2.83517C36.048 1.20236 34.6676 -0.066779 33.0348 1.78439e-05Z" fill="#26BAF6"/>
</g>
<defs>
<clipPath id="clip0">
<rect width="38" height="38" fill="white"/>
</clipPath>
</defs>
</svg>
