<svg width="38" height="38" viewBox="0 0 38 38" fill="none" xmlns="http://www.w3.org/2000/svg">
<path d="M36 18.9476C36 28.4444 28.5084 36 19.0262 36C9.59626 36 2 28.4444 2 18.9476C2 9.55559 9.59626 2 19.0262 2C28.5084 2.0001 36 9.55559 36 18.9476ZM10.8011 23.3026C10.5915 21.9909 10.4869 20.5216 10.4869 19.1051C10.4869 18.0556 10.5391 17.2161 10.644 16.2191C8.23417 15.747 6.8196 15.3797 5.71955 14.9076C5.35283 16.1668 5.14328 17.5835 5.14328 18.9477C5.14328 19.6298 5.14328 20.3119 5.24806 20.889C5.929 21.676 7.65791 22.7253 10.8011 23.3026ZM13.6825 31.75C12.4776 30.071 11.6918 27.9198 11.1679 25.4013C9.07238 24.929 7.18641 24.3519 5.929 23.6698C6.71492 25.6111 7.71029 27.3427 9.22954 28.7592C10.4869 30.1235 12.0585 31.0679 13.6825 31.75ZM6.50527 13.0711C6.97677 13.4907 7.76259 13.5432 10.8535 14.3827C11.4297 11.0247 12.4251 8.24377 13.9969 6.14503C12.2157 6.98443 10.644 7.71909 9.22954 9.24078C8.02453 10.3426 7.13402 11.7069 6.50527 13.0711ZM12.6872 23.6698C14.4683 23.9847 16.1971 24.1421 17.9783 24.1945V16.7964C16.0924 16.744 14.2064 16.6391 12.4252 16.4292C12.4252 17.3735 12.3728 18.1606 12.3728 19.1052C12.3728 20.6266 12.4776 22.2531 12.6872 23.6698ZM12.6872 14.6451C14.416 14.8026 16.1971 14.9076 17.9783 14.96V5.20069C17.9783 5.20069 17.926 5.20069 17.8736 5.20069C15.5161 6.14512 13.5254 9.81793 12.6872 14.6451ZM17.9783 32.7994V26.0309C16.3543 25.9785 14.7303 25.8735 13.1586 25.716C13.473 27.0802 13.9445 28.287 14.5731 29.3888C15.3589 31.2778 16.5639 32.7994 17.9783 32.7994ZM19.9692 5.20069V14.9599C21.8028 14.9075 23.5316 14.8026 25.3128 14.6451C24.6317 10.8673 23.1125 7.56168 21.3313 5.93515C20.8597 5.62043 20.3359 5.20069 19.9692 5.20069ZM25.2603 23.7222C25.5223 22.3057 25.5747 20.679 25.5747 19.1051C25.5747 18.1605 25.5747 17.3734 25.5223 16.4816C23.7411 16.639 21.9074 16.744 19.9692 16.7964V24.1945C21.8028 24.1421 23.5315 23.9847 25.2603 23.7222ZM24.8413 25.716C23.2172 25.8734 21.5932 25.9785 19.9692 26.0309V32.7994C22.6934 32.7994 24.1602 28.0771 24.8413 25.716ZM24.003 6.09265C25.5746 8.13884 26.5701 11.0248 27.0939 14.4352C29.923 13.9105 31.0754 13.4383 31.4944 13.1235C30.0278 9.87049 27.2511 7.24696 24.003 6.09265ZM31.9137 23.8796C30.5516 24.5093 28.7704 25.0339 26.8321 25.4537C26.2558 27.9721 25.5224 30.0186 24.265 31.7499C25.889 31.0678 27.5131 30.1234 28.7705 28.7592C30.2372 27.395 31.2326 25.716 31.9137 23.8796ZM27.4608 19.1051C27.4608 20.5216 27.3559 22.0432 27.1987 23.355C32.6473 22.4632 32.8567 21.2037 32.8567 18.9477C32.8567 17.636 32.6473 16.2192 32.2281 14.96C31.2327 15.3797 29.4516 16.0094 27.356 16.2192C27.4608 17.2161 27.4608 18.0556 27.4608 19.1051Z" fill="#26BAF6"/>
</svg>
