<svg width="29" height="33" viewBox="0 0 29 33" fill="none" xmlns="http://www.w3.org/2000/svg">
<path d="M10.0385 15.4H13.0128H15.9872H18.9615C19.3705 15.4 19.7051 15.07 19.7051 14.6667V11.7333C19.7051 11.33 19.3705 11 18.9615 11H15.9872H13.0128H10.0385C9.62949 11 9.29487 11.33 9.29487 11.7333V14.6667C9.29487 15.07 9.62949 15.4 10.0385 15.4ZM18.2179 13.9333H16.7308V12.4667H18.2179V13.9333ZM15.2436 13.9333H13.7564V12.4667H15.2436V13.9333ZM10.7821 12.4667H12.2692V13.9333H10.7821V12.4667ZM9.51795 8.58C9.36923 8.43333 9.29487 8.25 9.29487 8.06667C9.29487 8.03 9.29487 7.95667 9.29487 7.92C9.29487 7.88333 9.33205 7.81 9.33205 7.77333C9.33205 7.73667 9.36923 7.7 9.40641 7.66333C9.44359 7.62667 9.44359 7.59 9.48077 7.55333C9.74103 7.26 10.2615 7.26 10.5218 7.55333C10.7077 7.7 10.7821 7.88333 10.7821 8.06667C10.7821 8.10333 10.7821 8.17667 10.7821 8.21333C10.7821 8.25 10.7449 8.28667 10.7449 8.36C10.7449 8.39667 10.7077 8.43333 10.6705 8.50667C10.6333 8.54333 10.6333 8.58 10.5962 8.61667C10.4103 8.72667 10.2244 8.8 10.0385 8.8C9.85256 8.8 9.66667 8.72667 9.51795 8.58ZM18.441 8.58C18.2923 8.43333 18.2179 8.25 18.2179 8.06667C18.2179 8.03 18.2179 7.95667 18.2179 7.92C18.2179 7.88333 18.2551 7.84667 18.2551 7.77333C18.2923 7.73667 18.2923 7.7 18.3295 7.66333C18.3667 7.62667 18.4038 7.59 18.4038 7.55333C18.441 7.51667 18.4782 7.48 18.5154 7.48C18.5526 7.44333 18.5897 7.44333 18.6269 7.40667C18.6641 7.37 18.7013 7.37 18.7756 7.37C18.8872 7.33333 18.9615 7.33333 19.0731 7.37C19.1103 7.37 19.1474 7.40667 19.2218 7.40667C19.259 7.40667 19.2962 7.44333 19.3333 7.48C19.3705 7.51667 19.4077 7.51667 19.4449 7.55333C19.4821 7.59 19.5192 7.62667 19.5192 7.66333C19.5564 7.7 19.5564 7.73667 19.5936 7.77333C19.5936 7.81 19.6308 7.84667 19.6308 7.92C19.6308 7.95667 19.6308 8.03 19.6308 8.06667C19.6308 8.25 19.5564 8.43333 19.4077 8.58C19.3705 8.61667 19.3333 8.65333 19.2962 8.65333C19.259 8.69 19.2218 8.69 19.1846 8.72667C19.1474 8.76333 19.1103 8.76333 19.0359 8.76333C18.9987 8.76333 18.9244 8.76333 18.8872 8.76333C18.85 8.76333 18.7756 8.76333 18.7385 8.76333C18.7013 8.76333 18.6641 8.72667 18.5897 8.72667C18.5526 8.72667 18.5154 8.69 18.4782 8.65333C18.5154 8.65333 18.4782 8.61667 18.441 8.58ZM4.08974 15.4H5.57692V16.8667C5.57692 18.0767 6.58077 19.0667 7.80769 19.0667H21.1923C22.4192 19.0667 23.4231 18.0767 23.4231 16.8667V15.4H24.9103C26.1372 15.4 27.141 14.41 27.141 13.2V9.53333C27.141 8.32333 26.1372 7.33333 24.9103 7.33333H23.4231V5.86667C23.4231 4.65667 22.4192 3.66667 21.1923 3.66667H20.1141L18.5154 1.06333C18.1064 0.403333 17.4 0 16.6192 0H12.3808C11.6 0 10.8564 0.403333 10.4846 1.06333L8.8859 3.66667H7.80769C6.58077 3.66667 5.57692 4.65667 5.57692 5.86667V7.33333H4.08974C2.86282 7.33333 1.85897 8.32333 1.85897 9.53333V13.2C1.85897 14.41 2.86282 15.4 4.08974 15.4ZM24.9103 8.8C25.3192 8.8 25.6538 9.13 25.6538 9.53333V13.2C25.6538 13.6033 25.3192 13.9333 24.9103 13.9333H23.4231V8.8H24.9103ZM11.7115 1.83333C11.8603 1.61333 12.0833 1.46667 12.3436 1.46667H16.6192C16.8795 1.46667 17.1397 1.61333 17.2513 1.83333L18.3667 3.66667H10.5962L11.7115 1.83333ZM7.0641 5.86667C7.0641 5.46333 7.39872 5.13333 7.80769 5.13333H9.29487H19.7051H21.1923C21.6013 5.13333 21.9359 5.46333 21.9359 5.86667V8.06667V14.6667V16.8667C21.9359 17.27 21.6013 17.6 21.1923 17.6H7.80769C7.39872 17.6 7.0641 17.27 7.0641 16.8667V14.6667V8.06667V5.86667ZM3.34615 9.53333C3.34615 9.13 3.68077 8.8 4.08974 8.8H5.57692V13.9333H4.08974C3.68077 13.9333 3.34615 13.6033 3.34615 13.2V9.53333ZM23.0513 21.2667H17.8462H11.1538H5.94872C2.67692 21.2667 0 23.9067 0 27.1333V32.2667C0 32.67 0.334615 33 0.74359 33H11.1538H17.8462H28.2564C28.6654 33 29 32.67 29 32.2667V27.1333C29 23.9067 26.3231 21.2667 23.0513 21.2667ZM18.4038 31.5333L17.1397 27.1333L18.4038 22.7333H20.8205V31.5333H18.4038ZM16.8423 22.7333L15.7641 26.4H13.1615L12.0833 22.7333H16.8423ZM8.17949 31.5333V22.7333H10.5962L11.8603 27.1333L10.5962 31.5333H8.17949ZM1.48718 27.1333C1.48718 24.7133 3.49487 22.7333 5.94872 22.7333H6.69231V31.5333H1.48718V27.1333ZM12.1577 31.5333L13.2359 27.8667H15.8385L16.9167 31.5333H12.1577ZM27.5128 31.5333H22.3077V22.7333H23.0513C25.5051 22.7333 27.5128 24.7133 27.5128 27.1333V31.5333Z" fill="#FCFCFC"/>
</svg>
