<svg width="40" height="34" viewBox="0 0 40 34" fill="none" xmlns="http://www.w3.org/2000/svg">
<path d="M32 25.4331C34.052 25.4341 36.0259 24.643 37.5132 23.2235C39.0005 21.8041 39.8872 19.8649 39.99 17.8074C40.0927 15.7498 39.4036 13.7314 38.0652 12.1697C36.7268 10.608 34.8416 9.62272 32.7997 9.41767C32.8 9.40199 32.8 9.38604 32.8 9.37009C32.801 7.27069 32.0994 5.23181 30.8078 3.58074C29.5162 1.92968 27.7094 0.762189 25.6776 0.265684C23.6457 -0.230822 21.5066 -0.0275457 19.6036 0.842882C17.7007 1.71331 16.1442 3.2004 15.1841 5.06545C13.4594 4.60063 11.6241 4.79756 10.0363 5.61782C8.44844 6.43807 7.22194 7.82281 6.59609 9.50185C4.62759 9.85331 2.86167 10.9324 1.64646 12.5263C0.431246 14.1203 -0.14507 16.1135 0.0311264 18.1129C0.207323 20.1123 1.12325 21.973 2.59833 23.328C4.07341 24.683 6.00061 25.434 7.99999 25.4331H20V28.6998C19.4881 28.8057 19.0184 29.0599 18.6488 29.4309C18.2792 29.8019 18.0261 30.2735 17.9206 30.7874H6.66666C6.52521 30.7874 6.38955 30.8438 6.28953 30.9442C6.18951 31.0446 6.13332 31.1808 6.13332 31.3228C6.13332 31.4648 6.18951 31.601 6.28953 31.7014C6.38955 31.8019 6.52521 31.8583 6.66666 31.8583H17.9206C18.0435 32.4629 18.3707 33.0063 18.8468 33.3966C19.3229 33.7868 19.9187 34 20.5333 34C21.148 34 21.7437 33.7868 22.2199 33.3966C22.696 33.0063 23.0231 32.4629 23.1461 31.8583H34.4C34.5414 31.8583 34.6771 31.8019 34.7771 31.7014C34.8771 31.601 34.9333 31.4648 34.9333 31.3228C34.9333 31.1808 34.8771 31.0446 34.7771 30.9442C34.6771 30.8438 34.5414 30.7874 34.4 30.7874H23.1461C23.0406 30.2735 22.7874 29.8019 22.4178 29.4309C22.0483 29.0599 21.5785 28.8057 21.0666 28.6998V25.4331H32ZM22.1333 31.3228C22.1333 31.6405 22.0395 31.9511 21.8637 32.2152C21.6879 32.4794 21.438 32.6853 21.1456 32.8069C20.8532 32.9284 20.5315 32.9603 20.2212 32.8983C19.9108 32.8363 19.6257 32.6833 19.4019 32.4587C19.1782 32.234 19.0258 31.9478 18.9641 31.6362C18.9023 31.3246 18.934 31.0016 19.0551 30.7081C19.1762 30.4146 19.3813 30.1638 19.6444 29.9872C19.9075 29.8107 20.2169 29.7165 20.5333 29.7165C20.9575 29.717 21.3642 29.8864 21.6642 30.1875C21.9641 30.4887 22.1329 30.897 22.1333 31.3228ZM1.06666 17.4016C1.07176 15.7203 1.6815 14.0974 2.78369 12.8315C3.88588 11.5656 5.40636 10.742 7.06536 10.5121C7.16492 10.4985 7.25865 10.457 7.33576 10.3924C7.41288 10.3277 7.47026 10.2425 7.50129 10.1466C7.75035 9.37108 8.15063 8.6531 8.67882 8.03445C9.207 7.4158 9.85253 6.90885 10.5778 6.54314C11.3031 6.17742 12.0936 5.96025 12.9033 5.90428C13.7129 5.8483 14.5256 5.95464 15.294 6.2171C15.4191 6.25931 15.5552 6.25355 15.6763 6.20093C15.7974 6.14831 15.8948 6.05256 15.9497 5.93213C16.7311 4.20695 18.0774 2.80242 19.7646 1.95228C21.4518 1.10213 23.378 0.857638 25.2228 1.25948C27.0677 1.66131 28.7198 2.68525 29.9043 4.1609C31.0888 5.63654 31.7343 7.47491 31.7333 9.37009C31.7333 9.49794 31.7242 9.62369 31.7156 9.74944L31.7067 9.88461C31.7024 9.95613 31.7123 10.0278 31.736 10.0954C31.7597 10.163 31.7967 10.2251 31.8448 10.2781C31.8928 10.331 31.951 10.3738 32.0158 10.4038C32.0806 10.4338 32.1508 10.4504 32.2221 10.4527C34.0405 10.51 35.7635 11.283 37.0191 12.6048C38.2747 13.9265 38.9621 15.691 38.933 17.5173C38.9038 19.3435 38.1604 21.085 36.8633 22.3656C35.5661 23.6463 33.8193 24.3635 32 24.3622H7.99999C6.16178 24.3602 4.39944 23.6262 3.09963 22.3212C1.79982 21.0163 1.0687 19.247 1.06666 17.4016ZM14.8667 20.0787C14.5502 20.0787 14.2409 20.173 13.9777 20.3495C13.7146 20.526 13.5095 20.7768 13.3884 21.0703C13.2673 21.3639 13.2357 21.6868 13.2974 21.9984C13.3591 22.31 13.5115 22.5962 13.7353 22.8209C13.959 23.0455 14.2441 23.1985 14.5545 23.2605C14.8649 23.3225 15.1866 23.2906 15.4789 23.1691C15.7713 23.0475 16.0212 22.8416 16.197 22.5775C16.3728 22.3133 16.4667 22.0027 16.4667 21.685C16.4662 21.2592 16.2975 20.8509 15.9975 20.5497C15.6976 20.2486 15.2909 20.0792 14.8667 20.0787ZM14.8667 22.2205C14.7612 22.2205 14.6581 22.1891 14.5703 22.1302C14.4826 22.0714 14.4143 21.9878 14.3739 21.8899C14.3335 21.7921 14.323 21.6845 14.3436 21.5806C14.3641 21.4767 14.4149 21.3813 14.4895 21.3064C14.5641 21.2316 14.6591 21.1806 14.7626 21.1599C14.8661 21.1392 14.9733 21.1498 15.0707 21.1904C15.1682 21.2309 15.2515 21.2995 15.3101 21.3876C15.3687 21.4756 15.4 21.5791 15.4 21.685C15.3998 21.827 15.3436 21.9631 15.2436 22.0634C15.1436 22.1638 15.008 22.2203 14.8667 22.2205ZM20.2 22.2205C20.2 22.3625 20.1438 22.4987 20.0438 22.5991C19.9438 22.6995 19.8081 22.7559 19.6666 22.7559C19.5252 22.7559 19.3895 22.6995 19.2895 22.5991C19.1895 22.4987 19.1333 22.3625 19.1333 22.2205C19.1318 20.9429 18.6257 19.718 17.7258 18.8146C16.8259 17.9112 15.6059 17.4031 14.3333 17.4016C14.1919 17.4016 14.0562 17.3452 13.9562 17.2448C13.8562 17.1443 13.8 17.0082 13.8 16.8661C13.8 16.7241 13.8562 16.588 13.9562 16.4875C14.0562 16.3871 14.1919 16.3307 14.3333 16.3307C15.8887 16.3325 17.3799 16.9536 18.4797 18.0577C19.5796 19.1619 20.1982 20.659 20.2 22.2205ZM13.8 12.5827C13.8 12.4407 13.8562 12.3045 13.9562 12.2041C14.0562 12.1037 14.1919 12.0473 14.3333 12.0473C17.0199 12.0503 19.5956 13.1231 21.4953 15.0303C23.395 16.9375 24.4636 19.5233 24.4666 22.2205C24.4666 22.3625 24.4105 22.4987 24.3104 22.5991C24.2104 22.6995 24.0748 22.7559 23.9333 22.7559C23.7919 22.7559 23.6562 22.6995 23.5562 22.5991C23.4562 22.4987 23.4 22.3625 23.4 22.2205C23.3973 19.8072 22.4412 17.4936 20.7415 15.7871C19.0417 14.0807 16.7371 13.1208 14.3333 13.1181C14.1919 13.1181 14.0562 13.0617 13.9562 12.9613C13.8562 12.8609 13.8 12.7247 13.8 12.5827ZM13.8 8.29922C13.8 8.15722 13.8562 8.02103 13.9562 7.92061C14.0562 7.8202 14.1919 7.76379 14.3333 7.76379C18.1511 7.76815 21.8113 9.29266 24.5109 12.0029C27.2104 14.7131 28.729 18.3877 28.7333 22.2205C28.7333 22.3625 28.6771 22.4987 28.5771 22.5991C28.4771 22.6995 28.3414 22.7559 28.2 22.7559C28.0585 22.7559 27.9229 22.6995 27.8229 22.5991C27.7228 22.4987 27.6666 22.3625 27.6666 22.2205C27.6627 18.6716 26.2566 15.2691 23.757 12.7597C21.2574 10.2502 17.8683 8.83865 14.3333 8.83466C14.1919 8.83466 14.0562 8.77825 13.9562 8.67783C13.8562 8.57742 13.8 8.44123 13.8 8.29922Z" fill="#FCFCFC"/>
</svg>
