<svg width="28" height="32" viewBox="0 0 28 32" fill="none" xmlns="http://www.w3.org/2000/svg">
<path d="M27.5686 31.4165C27.6808 31.4165 27.7556 31.3791 27.8304 31.3043C27.9052 31.2295 27.9052 31.1173 27.9052 31.0425C27.8304 30.5188 27.0075 25.9178 25.8853 24.6834C24.6135 23.2993 19.7506 21.8779 18.4414 21.5038C18.591 21.5412 19.0399 21.2794 19.1895 21.2046C23.0424 19.5213 25.6608 15.5936 25.6608 11.4041C25.6608 9.23449 24.9875 7.06491 23.7157 5.30681C22.4813 3.5113 20.6858 2.16466 18.6284 1.37913C17.4688 0.930249 16.197 0.705811 14.9626 0.705811C13.2045 0.705811 11.409 1.15469 9.87531 2.01504C8.37905 2.80057 7.06983 3.99758 6.09726 5.41903C5.12469 6.91529 4.52618 8.59858 4.33915 10.3567C4.11471 12.6011 4.6384 14.8829 5.79801 16.828C5.94763 17.0524 6.09726 17.2769 6.24688 17.5013C5.94763 17.4265 5.68579 17.3143 5.46135 17.1647C4.71322 16.6036 4.52618 15.631 4.56359 14.8829C4.56359 14.8081 4.56359 14.7706 4.56359 14.6958C4.56359 14.6584 4.56359 14.621 4.56359 14.621C4.56359 14.5836 4.56359 14.5836 4.56359 14.5462C4.22693 13.4988 4.0399 12.4514 4.0399 11.3667C4.0399 10.2819 4.22693 9.15968 4.601 8.11229C4.6384 8.00007 4.6384 7.92526 4.56359 7.81304C4.52618 7.73823 4.41397 7.66342 4.33915 7.66342C4.11471 7.62601 3.92768 7.62601 3.70324 7.62601C1.64589 7.62601 0 9.3093 0 11.3293C0 13.3866 1.68329 15.0325 3.70324 15.0325C3.77805 15.0325 3.81546 15.0325 3.89027 15.0325C3.85287 16.1547 4.30175 17.1273 5.04988 17.6884C5.53616 18.0624 6.17207 18.212 6.80798 18.2495C8.04239 19.7083 9.68828 20.8679 11.5586 21.4664C10.2494 21.8779 5.87282 23.3367 4.71322 24.6086C3.59102 25.8804 2.61845 30.7432 2.58105 30.9677C2.54364 31.0799 2.58105 31.1547 2.65586 31.2295C2.73067 31.3043 2.80549 31.3417 2.91771 31.3417H27.5686V31.4165ZM3.81546 14.3592C3.06733 14.5088 2.13217 14.0225 1.60848 13.4988C1.00997 12.9377 0.673316 12.1522 0.673316 11.3293C0.673316 9.64596 2.13217 8.22451 3.81546 8.29933C3.51621 9.3093 3.36658 10.3567 3.36658 11.3667C3.36658 12.414 3.55362 13.3866 3.81546 14.3592ZM10.1746 26.1422L9.50125 24.6834L11.783 22.4764L12.2693 30.7432H9.98753L9.08978 27.227L10.0249 26.5537C10.1746 26.4789 10.2494 26.2918 10.1746 26.1422ZM12.419 22.0649H17.6933L16.8703 30.7432H12.9426L12.419 22.0649ZM24.9875 11.3667C24.9875 11.6285 24.9875 11.9278 24.9501 12.1896C23.0424 11.5911 21.3217 10.3567 20.0873 8.7482C19.788 8.37414 19.5636 8.00007 19.3017 7.5886C18.8529 6.76566 18.4788 5.90531 18.2918 5.00756C18.1047 4.25943 18.0299 3.5113 18.0299 2.76317C18.0299 2.46392 18.0299 2.16466 18.0673 1.86541C18.9277 2.05244 19.788 2.57613 20.4988 3.02501C21.2469 3.5113 21.9202 4.1098 22.4813 4.78312C23.6409 6.12975 24.4638 7.77564 24.8005 9.49633C24.9501 10.0948 24.9875 10.7307 24.9875 11.3667ZM15 1.34172C15.7481 1.34172 16.5337 1.45394 17.3192 1.64097C17.394 1.67838 17.1322 3.06242 17.0948 3.21204C16.9825 3.73574 16.8329 4.25943 16.6085 4.74571C15.8229 6.72825 14.4015 8.41155 12.5686 9.53374C10.6983 10.6559 8.45387 11.1796 6.28429 10.9178C6.02244 10.8804 5.7606 10.843 5.46135 10.8056C5.42394 10.8056 4.97506 10.6933 4.97506 10.6933C5.38653 5.41903 9.72569 1.34172 15 1.34172ZM7.18204 17.6135C5.798 15.8928 4.97506 13.7233 4.97506 11.3667C4.97506 11.3667 4.97506 11.3667 4.97506 11.3293C5.04987 11.3293 5.08728 11.3667 5.16209 11.3667C7.36908 11.8529 9.72569 11.6285 11.783 10.6933C13.616 9.8704 15.187 8.52376 16.3092 6.84047C16.8329 6.05494 17.1322 5.23199 17.5062 4.40905C17.5436 4.63349 17.581 4.82052 17.6185 5.04496C18.0673 7.10232 19.1521 9.01005 20.6858 10.4315C21.8454 11.5537 23.3042 12.3766 24.8379 12.8629C24.8753 12.8629 24.8753 12.8629 24.9127 12.9003C24.1646 17.7632 19.9751 21.3916 15.0374 21.3916C12.1945 21.3916 9.61347 20.1946 7.78055 18.2869L8.71571 18.212C8.90274 18.8105 9.46384 19.2594 10.1372 19.2594H12.1197C12.9426 19.2594 13.616 18.5861 13.616 17.7632C13.616 16.9402 12.9426 16.2669 12.1197 16.2669H10.1372C9.38903 16.2669 8.79052 16.7906 8.6783 17.5013L7.18204 17.6135ZM9.31421 17.7632C9.31421 17.3143 9.68828 16.9402 10.1372 16.9402H12.1197C12.5686 16.9402 12.9426 17.3143 12.9426 17.7632C12.9426 18.212 12.5686 18.5861 12.1197 18.5861H10.1372C9.65087 18.5861 9.31421 18.212 9.31421 17.7632ZM5.23691 25.0948C6.02244 24.2345 8.82793 23.1497 10.7731 22.4764L8.82793 24.3467C8.71571 24.4589 8.6783 24.6086 8.75312 24.7208L9.42643 26.1422L8.52868 26.7781C8.41646 26.8529 8.34165 27.0026 8.37905 27.1522L9.27681 30.7058H3.36658C3.70324 29.1347 4.48878 25.9552 5.23691 25.0948ZM17.5436 30.7432L18.3292 22.5512L20.3117 24.7956L19.601 26.2918C19.5262 26.4415 19.5636 26.6285 19.7132 26.7033L20.6484 27.3766L19.788 30.7432H17.5436ZM20.4613 30.7432L21.3591 27.3018C21.3965 27.1522 21.3591 27.0026 21.2095 26.9278L20.3117 26.2918L20.985 24.8704C21.0598 24.7582 21.0224 24.6086 20.9476 24.4963L19.0399 22.3642C21.1347 23.0001 24.4638 24.1223 25.3616 25.1322C26.1471 25.9926 26.8579 29.1721 27.1571 30.7432H20.4613Z" fill="#FCFCFC"/>
</svg>
