<svg width="53" height="41" viewBox="0 0 53 41" fill="none" xmlns="http://www.w3.org/2000/svg">
<path d="M52.1225 32.0281H49.7533V2.80795C49.7533 1.22848 48.5248 0 46.9454 0H5.96689C4.38742 0 3.15894 1.22848 3.15894 2.80795V32.0281H0.877483C0.350993 32.0281 0 32.3791 0 32.9056V35.8013C0 38.2583 1.93046 40.1887 4.38742 40.1887H48.6126C51.0695 40.1887 53 38.2583 53 35.8013V32.9056C53 32.3791 52.649 32.0281 52.1225 32.0281ZM4.91391 2.80795C4.91391 2.19371 5.35265 1.75497 5.96689 1.75497H46.9454C47.5596 1.75497 47.9983 2.19371 47.9983 2.80795V32.0281H32.0281C31.5017 32.0281 31.1507 32.3791 31.1507 32.9056C31.1507 33.0811 31.1507 33.1689 31.2384 33.2566V34.4851C31.2384 34.6606 31.0629 34.8361 30.8874 34.8361H22.2003C22.0248 34.8361 21.8493 34.6606 21.8493 34.4851V32.9056C21.8493 32.3791 21.4983 32.0281 20.9719 32.0281H4.91391V2.80795ZM51.245 35.8013C51.245 37.293 50.1043 38.4338 48.6126 38.4338H4.38742C2.8957 38.4338 1.75497 37.293 1.75497 35.8013V33.7831H20.0944V34.4851C20.0944 35.6258 21.0596 36.5911 22.2003 36.5911H30.8874C32.0281 36.5911 32.9934 35.6258 32.9934 34.4851V33.7831H51.245V35.8013Z" fill="#FCFCFC"/>
</svg>
