<svg width="34" height="42" viewBox="0 0 34 42" fill="none" xmlns="http://www.w3.org/2000/svg">
<path d="M19.7044 0.000112822C15.9457 0.00646879 12.3414 1.44287 9.674 3.9974C7.00664 6.55194 5.49163 10.0184 5.45794 13.644C4.07475 15.778 3.32525 18.2373 3.29111 20.7539L0.0749993 27.6911C0.0166611 27.8163 -0.00828932 27.9535 0.00241986 28.0904C0.013129 28.2273 0.0591569 28.3594 0.136314 28.4747C0.213471 28.59 0.319306 28.6849 0.444184 28.7507C0.569061 28.8165 0.709015 28.8511 0.851303 28.8514H4.0077L3.8968 30.9004C3.88975 31.0302 3.91468 31.1598 3.96955 31.2785C4.02441 31.3972 4.10765 31.5017 4.21244 31.5834L4.784 32.0278L4.21244 32.4804C4.05198 32.6064 3.94447 32.7844 3.90994 32.9813C3.87542 33.1781 3.91622 33.3803 4.02476 33.5502L4.93756 34.9738V36.2C4.93756 36.9442 5.24404 37.658 5.78959 38.1842C6.33513 38.7105 7.07505 39.0061 7.84656 39.0061H10.6959L11.5489 40.6519C11.6181 40.792 11.7268 40.9103 11.8627 40.9933C11.9985 41.0763 12.1559 41.1206 12.3167 41.121H12.5044L26.3328 38.068C26.5253 38.0262 26.6967 37.9213 26.8181 37.7713C26.9394 37.6213 27.003 37.4353 26.9982 37.2451V31.3201C28.5358 30.0272 29.7679 28.4311 30.6111 26.6395C31.4544 24.8479 31.8893 22.9026 31.8864 20.935C33.2171 18.8499 33.9459 16.4596 33.9971 14.0116C34.0483 11.5636 33.4202 9.14683 32.1778 7.01168C30.9353 4.87653 29.1237 3.1006 26.9306 1.86781C24.7375 0.635015 22.2427 -0.00981026 19.7044 0.000112822ZM25.565 30.3079C25.4687 30.3853 25.3913 30.4822 25.3382 30.5917C25.2851 30.7012 25.2577 30.8207 25.2579 30.9416V36.6197L12.7603 39.3764L12.0011 37.854C11.9319 37.714 11.8232 37.5957 11.6873 37.5127C11.5515 37.4297 11.3941 37.3854 11.2333 37.385H7.82097C7.50196 37.385 7.19601 37.2627 6.97043 37.0451C6.74485 36.8275 6.61813 36.5324 6.61813 36.2247V34.7599C6.61864 34.6058 6.5743 34.4547 6.49016 34.3237L5.85035 33.328L6.66078 32.6861C6.75708 32.6088 6.83452 32.5119 6.8876 32.4024C6.94068 32.2929 6.96809 32.1734 6.96789 32.0525C6.96832 31.9296 6.9402 31.8081 6.88557 31.697C6.83095 31.5859 6.75122 31.4881 6.65225 31.4106L5.61149 30.5877L5.74798 28.119C5.75515 27.895 5.67267 27.6769 5.51765 27.51C5.43737 27.4288 5.34071 27.3643 5.23362 27.3204C5.12652 27.2765 5.01125 27.2542 4.8949 27.2549H2.14799L4.90344 21.3217C4.95348 21.2158 4.97965 21.1008 4.98021 20.9844C4.98087 19.5374 5.24954 18.1022 5.77358 16.7464C6.31707 19.1727 7.53212 21.4116 9.28949 23.225C11.0469 25.0384 13.2809 26.3584 15.7539 27.0447C18.227 27.731 20.8466 27.7579 23.3343 27.1226C25.822 26.4873 28.0846 25.2135 29.8816 23.4366C29.2951 26.1341 27.7724 28.5579 25.565 30.3079ZM29.1565 21.7167L27.894 20.4988L26.6911 21.6674L27.9451 22.877C25.8869 24.6195 23.29 25.6579 20.5575 25.8313V24.1196H18.8513V25.8313C16.1068 25.665 13.4969 24.6261 11.4295 22.877L12.6835 21.6674L11.4807 20.4988L10.2267 21.7167C8.4241 19.7258 7.34826 17.2195 7.1641 14.5821H8.94704V12.9363H7.1641C7.35062 10.3004 8.42963 7.79654 10.2352 5.80987L11.5063 6.99486L12.7091 5.83455L11.4295 4.64133C13.4924 2.90095 16.0912 1.86293 18.8257 1.68708V3.40697H20.5319V1.68708C23.2635 1.86409 25.8592 2.90208 27.9195 4.64133L26.6655 5.85924L27.894 6.99486L29.1565 5.78518C30.9595 7.77262 32.0356 10.2765 32.2191 12.9116H30.4361V14.5574H32.2191C32.041 17.2035 30.9648 19.7195 29.1565 21.7167Z" fill="#FCFCFC"/>
</svg>
