<svg width="41" height="40" viewBox="0 0 41 40" fill="none" xmlns="http://www.w3.org/2000/svg">
<path d="M40.7688 35.3173L28.7853 23.6301C28.4693 23.3219 27.9582 23.3219 27.6421 23.6301L26.3442 22.3643C30.3724 16.8355 29.868 9.10313 24.7841 4.1515C22.0404 1.47565 18.3956 0 14.5154 0C10.6352 0 6.99038 1.47565 4.24668 4.1515C-1.41556 9.67372 -1.41556 18.6654 4.24668 24.1876C6.99038 26.8634 10.6352 28.3391 14.5154 28.3391C17.5751 28.3391 20.4802 27.4078 22.9213 25.7091L24.2125 26.9684C23.8964 27.2766 23.8964 27.775 24.2125 28.0833L36.196 39.7705C36.3507 39.9213 36.5591 40 36.7676 40C36.9761 40 37.1778 39.9213 37.3392 39.7705L40.7621 36.4322C41.0782 36.124 41.0782 35.6255 40.7688 35.3173ZM5.38989 23.0792C0.353049 18.1669 0.353049 10.1787 5.38989 5.27299C7.83098 2.89228 11.0723 1.58715 14.5221 1.58715C17.9719 1.58715 21.2132 2.89884 23.6543 5.27299C28.6844 10.1853 28.6912 18.1669 23.6611 23.0792L23.6543 23.0858C21.2132 25.4599 17.9786 26.7716 14.5288 26.7716C11.0656 26.765 7.82425 25.4534 5.38989 23.0792ZM24.2192 24.745L24.7841 24.1941C24.7841 24.1941 24.7841 24.1941 24.7908 24.1876C24.7908 24.1876 24.7908 24.1876 24.7975 24.181L25.3624 23.6301L26.5056 24.745L25.3624 25.86L24.2192 24.745ZM36.7743 38.1046L25.9273 27.5258L28.207 25.3025L39.054 35.8747L36.7743 38.1046Z" fill="#FCFCFC"/>
</svg>
