<svg width="41" height="42" viewBox="0 0 41 42" fill="none" xmlns="http://www.w3.org/2000/svg">
<path d="M34.9841 7.65072L36.9131 9.9067L32.7281 13.5686C32.7935 13.0781 32.8589 12.6204 32.8915 12.2281C32.9896 11.5742 33.3166 9.28549 33.3166 9.28549L33.4474 8.40271L31.126 8.76236C29.7528 8.99123 27.7257 9.08931 25.437 8.53349L31.2241 3.59649L33.055 5.75439L34.4936 0L28.4777 0.392345L30.4067 2.64833L23.933 8.10845C21.0231 7.0622 19.0614 5.32935 17.9171 4.02153L16.6092 2.55024L15.3341 4.05423C13.8955 5.72169 12.0646 7.0622 10.0375 7.91228C6.93142 9.22009 4.02153 9.08931 2.15789 8.79506L0 8.43541L0.0653907 9.25279C0.0980861 9.71053 0.196172 10.9203 0.196172 11.1164C0.817384 21.4809 2.28868 28.3796 4.47927 31.6164C8.23923 37.1092 13.307 39.7249 15.9553 40.8038L16.6746 41.0981L17.3612 40.7711C18.3421 40.2807 19.2903 39.7249 20.2057 39.1364C21.4155 40.3134 23.0502 41.0654 24.8812 41.0654C28.5431 41.0654 31.5183 38.0901 31.5183 34.4282C31.5183 32.3684 30.5702 30.5375 29.1316 29.3278C30.2105 26.7775 31.126 23.3772 31.878 19.1922C32.1069 17.9171 32.2703 16.74 32.4338 15.6284L37.7305 10.9856L39.5614 13.1435L41 7.38915L34.9841 7.65072ZM32.7935 1.4386L32.4011 3.00797L31.1587 1.53668L32.7935 1.4386ZM30.2759 34.3628C30.2759 37.3054 27.8892 39.6922 24.9466 39.6922C22.004 39.6922 19.6172 37.3054 19.6172 34.3628C19.6172 31.4203 22.004 29.0335 24.9466 29.0335C27.8892 29.0335 30.2759 31.4203 30.2759 34.3628ZM31.6164 12.0646C31.5183 12.8493 31.3876 13.7974 31.2568 14.9091L18.5383 26.0909L15.4322 25.8293L12.3262 28.4777L15.3668 29.4585L16.0861 32.7935L18.8979 30.4067L19.1595 27.3006L30.9625 16.9362C30.8644 17.5901 30.7663 18.244 30.6356 18.9306L31.2568 19.0287L30.6356 18.8979C29.949 22.8541 29.0662 26.0909 28.0853 28.5104C27.1372 28.0199 26.0909 27.7257 24.9466 27.7257C21.2847 27.7257 18.3094 30.701 18.3094 34.3628C18.3094 35.736 18.7344 37.0112 19.4537 38.0574C18.6037 38.6132 17.7536 39.1037 16.8708 39.5287L16.7073 39.5941L16.5439 39.5287C13.9936 38.5152 9.22009 36.0303 5.6563 30.799C3.5311 27.7911 2.15789 21.1212 1.53668 11.0183C1.53668 10.9203 1.50399 10.4298 1.47129 9.97209L1.99442 10.0702C4.02153 10.4298 7.19298 10.5279 10.5933 9.12201C12.8166 8.20654 14.811 6.73525 16.3804 4.90431L16.6746 4.54466L16.9689 4.90431C18.1132 6.21212 20.0423 7.91228 22.8214 9.08931L15.8573 14.9745L12.7512 14.7129L9.64513 17.3612L12.6858 18.3421L13.4051 21.677L16.2169 19.2903L16.4785 16.1842L24.2273 9.61244C27.1045 10.4952 29.6547 10.3644 31.3549 10.1029L31.9107 10.0048C31.7799 10.6914 31.6491 11.6722 31.6164 12.0646ZM17.8517 27.3333L17.6555 29.7201L16.9362 30.3413L16.5112 28.4123L14.9745 27.9545L15.89 27.2026L17.8517 27.3333ZM15.1707 16.2169L14.9745 18.6364L14.2552 19.2576L13.8301 17.3285L12.2935 16.8381L13.2089 16.0861L15.1707 16.2169ZM38.9402 10.2663L37.6978 8.79506L39.3325 8.69697L38.9402 10.2663Z" fill="#FCFCFC"/>
</svg>
