<?xml version="1.0" encoding="utf-8"?>
<!-- Generator: Adobe Illustrator 26.0.0, SVG Export Plug-In . SVG Version: 6.00 Build 0)  -->
<svg version="1.1" id="Layer_1" xmlns="http://www.w3.org/2000/svg" xmlns:xlink="http://www.w3.org/1999/xlink" x="0px" y="0px"
	 viewBox="0 0 128 128" style="enable-background:new 0 0 128 128;" xml:space="preserve">
<style type="text/css">
	.st0{fill:#231F20;}
	.st1{fill:#E7FEFE;}
	.st2{fill:#00ACEE;}
	.st3{fill:#01ADEF;}
	.st4{fill:#FECA05;}
	.st5{fill:#242021;}
	.st6{fill:#ED1C25;}
	.st7{fill:#7F4098;}
</style>
<g>
	<path class="st0" d="M38.57,92.82c0.03,0,0.06,0.01,0.09,0.01c-0.01-0.02-0.02-0.05-0.03-0.08C38.62,92.78,38.6,92.8,38.57,92.82z"
		/>
	<path class="st0" d="M111.81,93.37c-0.03,0.01-0.07,0.03-0.1,0.04C111.74,93.39,111.78,93.38,111.81,93.37z"/>
	<path class="st0" d="M25.96,86.07c0.49-0.02,0.71,0.16,0.71,0.65c0.01,1.77,0.01,3.54,0,5.31c0,0.3-0.09,0.53-0.35,0.7
		c-0.26,0.16-0.13,0.31,0.08,0.33c0.65,0.09,1.3,0.07,1.95,0.01c0.17-0.02,0.29-0.15,0.1-0.29c-0.45-0.31-0.36-0.75-0.4-1.2
		c-0.11-1.41-0.04-2.81-0.07-4.22c0-0.25-0.01-0.49,0.01-0.74c0.03-0.42,0.24-0.59,0.66-0.54c0.41,0.05,0.79,0.2,1.1,0.48
		c0.1,0.09,0.19,0.18,0.3,0.25c0.21,0.12,0.32,0.06,0.35-0.19c0.06-0.7-0.23-1.02-0.93-1.02c-1.42,0-2.84,0.01-4.26-0.01
		c-0.46-0.01-0.84,0.05-0.93,0.6c-0.01,0.08-0.07,0.16-0.18,0.15c0,0.23,0,0.46,0,0.7c0.26-0.1,0.48-0.26,0.69-0.45
		C25.12,86.3,25.5,86.09,25.96,86.07z"/>
	<path class="st0" d="M24.73,86.85c0.41-0.42,0.87-0.72,1.5-0.64c0.19,0.03,0.3,0.07,0.3,0.32c0,1.89,0.01,3.77,0.01,5.66
		c0,0.2-0.04,0.39-0.28,0.43c-0.21,0.03-0.33,0.14-0.3,0.34c0.02,0.19,0.21,0.24,0.37,0.25c0.71,0.01,1.42,0.02,2.13,0
		c0.13,0,0.32-0.03,0.33-0.21c0.01-0.16-0.11-0.28-0.25-0.32c-0.37-0.1-0.39-0.36-0.39-0.68c0.01-1.68,0-3.37,0-5.05
		c0-0.78,0.15-0.89,0.91-0.64c0.25,0.08,0.48,0.21,0.65,0.42c0.09,0.11,0.2,0.22,0.32,0.29c0.32,0.2,0.55,0.07,0.52-0.3
		c-0.01-0.24-0.07-0.49-0.12-0.73c-0.07-0.37-0.28-0.53-0.67-0.53c-1.44,0.01-2.87,0.01-4.31,0.01c-1.02,0-1.02,0-1.36,0.9
		c0.11,0.01,0.17-0.07,0.18-0.15c0.09-0.55,0.46-0.61,0.93-0.6c1.42,0.02,2.84,0.01,4.26,0.01c0.7,0,0.99,0.32,0.93,1.02
		c-0.02,0.24-0.14,0.31-0.35,0.19c-0.11-0.07-0.2-0.16-0.3-0.25c-0.32-0.28-0.69-0.42-1.1-0.48c-0.43-0.05-0.63,0.12-0.66,0.54
		c-0.02,0.25-0.01,0.49-0.01,0.74c0.03,1.4-0.05,2.81,0.07,4.22c0.04,0.45-0.05,0.89,0.4,1.2c0.19,0.13,0.07,0.27-0.1,0.29
		c-0.65,0.06-1.3,0.08-1.95-0.01c-0.21-0.03-0.34-0.17-0.08-0.33c0.26-0.17,0.35-0.4,0.35-0.7c0-1.77,0.01-3.54,0-5.31
		c0-0.49-0.22-0.67-0.71-0.65c-0.46,0.02-0.83,0.23-1.16,0.53c-0.21,0.19-0.42,0.35-0.69,0.45C24.39,87.23,24.56,87.02,24.73,86.85z
		"/>
	<path class="st0" d="M38.06,93.03c0.17-0.14,0.34-0.21,0.51-0.21c0.02-0.02,0.04-0.04,0.06-0.07c0.01,0.03,0.02,0.05,0.03,0.08
		c0.11,0.02,0.23,0.08,0.36,0.18c0.29,0.22,0.7,0.11,1.06,0.08c0.21-0.02,0.17-0.18,0.07-0.28c-0.35-0.33-0.33-0.75-0.33-1.17
		c0.01-0.86,0.01-1.71,0-2.57c-0.01-0.74-0.16-0.86-0.9-0.72c-0.1,0.02-0.2,0.04-0.3,0.06c-0.25,0.06-0.36,0.18-0.2,0.43
		c0.08,0.12,0.14,0.26,0.14,0.41c0.02,0.87,0.05,1.74-0.01,2.61c-0.04,0.55-0.41,0.86-0.92,0.85c-0.52-0.01-0.9-0.34-0.93-0.9
		c-0.05-0.91-0.01-1.83-0.02-2.74c0-0.16,0.01-0.32-0.03-0.48c-0.04-0.19-0.15-0.33-0.35-0.33c-0.32,0-0.63,0.06-0.94,0.15
		c-0.19,0.06-0.21,0.19-0.1,0.34c0.2,0.28,0.19,0.6,0.19,0.92c0,0.57-0.01,1.13,0,1.7c0.01,0.79,0.21,1.47,1.01,1.81
		c0.09,0.04,0.19,0.09,0.17,0.22c0.26,0,0.52,0,0.78,0C37.52,93.09,37.86,93.18,38.06,93.03z"/>
	<path class="st0" d="M38.57,92.82c-0.18-0.01-0.34,0.07-0.51,0.21c-0.2,0.15-0.54,0.06-0.63,0.38
		C37.82,93.25,38.24,93.15,38.57,92.82z"/>
	<path class="st0" d="M36.48,93.19c-0.8-0.35-1-1.03-1.01-1.81c-0.01-0.57,0-1.13,0-1.7c0-0.32,0.01-0.64-0.19-0.92
		c-0.1-0.15-0.08-0.28,0.1-0.34c0.31-0.1,0.62-0.16,0.94-0.15c0.2,0,0.31,0.14,0.35,0.33c0.04,0.16,0.03,0.32,0.03,0.48
		c0.01,0.91-0.03,1.83,0.02,2.74c0.03,0.55,0.41,0.89,0.93,0.9c0.51,0.01,0.88-0.3,0.92-0.85c0.06-0.87,0.04-1.74,0.01-2.61
		c0-0.15-0.06-0.28-0.14-0.41c-0.16-0.25-0.05-0.37,0.2-0.43c0.1-0.02,0.2-0.04,0.3-0.06c0.73-0.15,0.89-0.03,0.9,0.72
		c0.01,0.86,0.01,1.71,0,2.57c0,0.42-0.02,0.84,0.33,1.17c0.1,0.1,0.14,0.26-0.07,0.28c-0.36,0.04-0.77,0.14-1.06-0.08
		c-0.13-0.1-0.25-0.15-0.36-0.18c0.15,0.35,0.43,0.43,0.77,0.4c0.22-0.02,0.43,0.01,0.65,0c0.14,0,0.32,0.04,0.38-0.13
		c0.07-0.18-0.06-0.31-0.2-0.39c-0.27-0.17-0.32-0.4-0.32-0.7c0.01-0.91-0.01-1.83-0.02-2.74c0-0.22,0-0.44-0.02-0.65
		c-0.04-0.36-0.22-0.56-0.61-0.47c-0.3,0.06-0.6,0.12-0.89,0.19c-0.3,0.07-0.4,0.22-0.15,0.48c0.14,0.14,0.22,0.3,0.22,0.5
		c0,0.81,0.02,1.62-0.01,2.43c-0.01,0.38-0.16,0.71-0.59,0.8c-0.63,0.14-1.07-0.21-1.08-0.89c-0.01-1,0-2,0-3
		c0-0.43-0.17-0.6-0.58-0.55c-0.32,0.04-0.63,0.09-0.94,0.16c-0.35,0.08-0.41,0.28-0.16,0.5c0.2,0.18,0.24,0.37,0.24,0.62
		c-0.01,0.75-0.01,1.51,0,2.26c0.01,0.86,0.35,1.34,1.15,1.65c0.05,0.02,0.11,0.03,0.13,0.1C36.67,93.28,36.57,93.23,36.48,93.19z"
		/>
	<path class="st0" d="M112.71,92.05c-0.19,0.18-0.4,0.33-0.64,0.44c-0.92,0.4-1.77,0.03-1.98-0.88c-0.05-0.21-0.04-0.3,0.23-0.31
		c0.68-0.02,1.36-0.13,1.97-0.46c0.46-0.24,0.85-0.55,0.92-1.12c0.09-0.78-0.42-1.43-1.3-1.62c-1.06-0.23-2,0.05-2.73,0.84
		c-0.73,0.79-0.82,1.76-0.51,2.77c0.3,0.97,1.24,1.6,2.22,1.72c0.46,0.06,0.96,0.01,1.4-0.15c0.32-0.12,1-0.5,1-0.92
		c0,0,0-0.35,0-0.35C113.08,91.85,112.89,91.87,112.71,92.05z M110.31,89.02c0.2-0.26,0.48-0.36,0.75-0.35
		c0.57,0.01,0.82,0.3,0.75,0.81c-0.09,0.64-1.11,1.31-1.73,1.13c-0.09-0.03-0.12-0.07-0.12-0.15
		C109.95,89.95,109.98,89.45,110.31,89.02z"/>
	<path class="st0" d="M43.79,93.16c0.65-0.27,1.01-0.78,1.02-1.48c0-0.61-0.27-1.02-0.84-1.24c-0.39-0.15-0.82-0.19-1.22-0.31
		c-0.52-0.15-0.71-0.43-0.61-0.88c0.09-0.4,0.48-0.65,0.93-0.62c0.44,0.03,0.75,0.28,1.01,0.61c0.09,0.11,0.18,0.27,0.34,0.21
		c0.19-0.07,0.12-0.27,0.12-0.42c0-0.33-0.18-0.55-0.48-0.65c-0.8-0.27-1.61-0.26-2.36,0.14c-0.62,0.33-0.82,0.92-0.74,1.59
		c0.07,0.61,0.51,0.87,1.04,1.03c0.25,0.08,0.51,0.09,0.77,0.15c0.17,0.04,0.34,0.09,0.49,0.17c0.25,0.13,0.41,0.33,0.41,0.62
		c0,0.31-0.2,0.5-0.46,0.63c-0.48,0.24-1.09,0.09-1.51-0.34c-0.1-0.11-0.18-0.23-0.28-0.33c-0.12-0.11-0.24-0.24-0.41-0.11
		c-0.18,0.13-0.22,0.32-0.11,0.5c0.23,0.36,0.53,0.64,0.97,0.76c0.13,0.04,0.34,0,0.36,0.23c0.41,0,0.81,0,1.22,0
		C43.45,93.18,43.66,93.21,43.79,93.16z"/>
	<path class="st0" d="M44.94,91.57c-0.02-0.66-0.49-1.17-1.26-1.35c-0.31-0.08-0.62-0.12-0.94-0.19c-0.35-0.08-0.57-0.28-0.54-0.67
		c0.03-0.36,0.34-0.62,0.72-0.62c0.41,0.01,0.77,0.11,1,0.49c0.09,0.14,0.22,0.27,0.36,0.37c0.16,0.12,0.31,0.06,0.38-0.12
		c0.18-0.45-0.08-1.04-0.54-1.22c-0.65-0.25-1.31-0.24-1.97-0.07c-0.92,0.24-1.41,0.92-1.34,1.82c0.05,0.72,0.61,1.18,1.55,1.31
		c0.26,0.04,0.51,0.09,0.76,0.17c0.28,0.09,0.48,0.3,0.45,0.61c-0.03,0.31-0.24,0.48-0.54,0.55c-0.44,0.1-0.84,0.03-1.16-0.3
		c-0.15-0.15-0.27-0.34-0.41-0.5c-0.22-0.27-0.44-0.23-0.65,0.02c-0.2,0.23-0.12,0.45,0.02,0.67c0.32,0.53,0.85,0.71,1.4,0.85
		c-0.02-0.23-0.22-0.19-0.36-0.23c-0.44-0.12-0.74-0.4-0.97-0.76c-0.12-0.18-0.07-0.37,0.11-0.5c0.17-0.12,0.3,0,0.41,0.11
		c0.11,0.1,0.18,0.22,0.28,0.33c0.41,0.44,1.03,0.58,1.51,0.34c0.26-0.13,0.46-0.32,0.46-0.63c0-0.29-0.17-0.48-0.41-0.62
		c-0.15-0.08-0.32-0.13-0.49-0.17c-0.25-0.06-0.52-0.07-0.77-0.15c-0.53-0.16-0.97-0.42-1.04-1.03c-0.07-0.67,0.12-1.26,0.74-1.59
		c0.75-0.4,1.56-0.41,2.36-0.14c0.3,0.1,0.48,0.32,0.48,0.65c0,0.15,0.06,0.35-0.12,0.42c-0.16,0.06-0.26-0.1-0.34-0.21
		c-0.26-0.33-0.57-0.57-1.01-0.61c-0.44-0.03-0.84,0.22-0.93,0.62c-0.1,0.46,0.09,0.73,0.61,0.88c0.4,0.12,0.83,0.16,1.22,0.31
		c0.57,0.22,0.85,0.62,0.84,1.24c0,0.7-0.36,1.21-1.02,1.48c-0.13,0.05-0.34,0.02-0.35,0.25c0.09-0.11,0.24-0.09,0.36-0.13
		C44.55,93.01,44.97,92.38,44.94,91.57z"/>
	<path class="st1" d="M24.3,82.33v0.09c-0.07,0-0.13,0.01-0.2,0.01C24.16,82.39,24.23,82.35,24.3,82.33
		C24.3,82.33,24.3,82.33,24.3,82.33z"/>
	<path class="st0" d="M75.82,93.33c-0.28,0-0.56,0-0.84,0.01c0,0.02,0,0.05-0.02,0.07c0.29,0,0.58,0,0.87,0
		C75.82,93.38,75.81,93.36,75.82,93.33z"/>
	<path class="st0" d="M75.84,93.33c-0.01,0-0.01,0-0.02,0c-0.01,0.02,0,0.05,0.02,0.07C75.83,93.38,75.83,93.36,75.84,93.33z"/>
	<path class="st0" d="M74.98,93.34c-0.01,0-0.02,0-0.02,0c0,0.02,0,0.05,0.01,0.07C74.98,93.38,74.99,93.36,74.98,93.34z"/>
	<path class="st2" d="M36.57,74.85c-0.24-0.24-0.19-0.35-0.05-0.59c0.76-1.33,1-2.85,0.42-4.3c-0.79-2-2.62-2.65-4.63-2.75
		c-2.01-0.1-4.04-0.07-6.05-0.05c-0.51,0.01-1.04-0.02-1.55,0.03c-0.08,0.01-0.16,0.02-0.23,0.03c-0.13,0.02-0.25,0.03-0.38,0.06
		v15.15c0.06-0.05,0.12-0.09,0.2-0.1c0.02,0,0.04,0,0.06,0c-0.02,0.03-0.03,0.06-0.06,0.09c0.06,0.01,0.11,0.03,0.17,0.03
		c3.12,0.02,6.23,0.04,9.35,0.04c0.79,0,1.55-0.18,2.24-0.62C38.28,80.44,38.56,76.79,36.57,74.85z M28.54,72.85
		c0.03-0.53,0.01-1.07,0-1.61c0-0.23,0.08-0.3,0.3-0.3c0.58,0.01,1.16,0,1.74,0c0,0,0,0,0,0c0.52,0,1.04,0,1.56,0
		c0.7,0.01,1.19,0.46,1.21,1.1c0.01,0.62-0.52,1.23-1.16,1.23c-1.09,0.01-2.17-0.02-3.26-0.02C28.66,73.26,28.52,73.17,28.54,72.85z
		 M32.23,79.02c-1.14,0.04-2.29,0.02-3.43,0.03c-0.18,0-0.26-0.08-0.26-0.26c0.01-0.59,0.01-1.19,0-1.78c0-0.23,0.14-0.25,0.31-0.25
		c0.58,0,1.16,0,1.74,0c0.52,0,1.04,0,1.56,0c0.67,0.01,1.17,0.45,1.2,1.06C33.39,78.43,32.9,79,32.23,79.02z"/>
	<path class="st3" d="M24.36,82.33c-0.02,0.03-0.03,0.06-0.06,0.09v-0.09C24.32,82.33,24.34,82.33,24.36,82.33z"/>
	<path class="st3" d="M24.72,67.2c-0.08,0.01-0.16,0.02-0.23,0.03C24.55,67.21,24.62,67.2,24.72,67.2z"/>
	<path class="st2" d="M67.06,81.58c-0.15-0.73-0.1-1.47-0.13-2.21c-0.04-1.2-0.3-2.33-1.03-3.3c-0.17-0.23-0.39-0.43-0.58-0.64
		c0.21-0.19,0.44-0.37,0.63-0.58c1.31-1.38,1.51-4,0.4-5.67c-0.89-1.35-2.26-1.91-3.79-1.96c-3-0.09-6-0.07-9.01-0.1
		c-0.27,0-0.35,0.1-0.35,0.36c0,4.87,0,9.75,0,14.62c0,0.29,0.09,0.37,0.38,0.37c1.29-0.01,2.58-0.01,3.87,0
		c0.28,0,0.38-0.08,0.38-0.37c-0.01-0.81-0.01-1.62,0-2.44c0-0.54,0-1.07,0.01-1.61c0.01-0.35,0.15-0.52,0.53-0.5
		c0.58,0.03,1.16,0.01,1.74,0.01c1.28,0,1.91,0.57,2.06,1.85c0.09,0.85,0.17,1.7,0.25,2.55c0.03,0.31,0.13,0.55,0.49,0.55
		c1.48,0,2.95,0,4.5,0C67.23,82.16,67.12,81.88,67.06,81.58z M61.51,74.08c-1.12,0.13-2.26,0.03-3.39,0.05
		c-0.18,0-0.25-0.09-0.25-0.27c0-0.83,0.01-1.65-0.01-2.48c0-0.26,0.15-0.27,0.34-0.26c0.52,0,1.04,0,1.56,0v0.06
		c0.52,0,1.04-0.02,1.56,0c0.76,0.03,1.36,0.61,1.42,1.33C62.81,73.29,62.3,73.99,61.51,74.08z"/>
	<path class="st2" d="M112.56,81.58c-0.16-0.83-0.11-1.67-0.16-2.51c-0.06-1.14-0.36-2.2-1.09-3.11c-0.15-0.19-0.47-0.35-0.48-0.53
		c-0.01-0.23,0.36-0.31,0.54-0.5c1.44-1.48,1.61-4.32,0.34-5.96c-0.98-1.27-2.36-1.75-3.9-1.78c-2.89-0.06-5.77-0.05-8.66-0.08
		c-0.32,0-0.45,0.07-0.45,0.43c0.01,4.83,0.01,9.66,0,14.49c0,0.31,0.06,0.44,0.4,0.43c1.28-0.02,2.55-0.02,3.83,0
		c0.35,0.01,0.4-0.13,0.39-0.43c-0.02-1.3,0-2.61-0.01-3.92c0-0.39,0.13-0.58,0.56-0.56c0.7,0.03,1.39,0.01,2.09,0.01
		c0.5,0,0.89,0.22,1.2,0.6c0.35,0.42,0.46,0.93,0.51,1.45c0.07,0.78,0.13,1.56,0.21,2.34c0.03,0.26,0.09,0.55,0.43,0.55
		c1.5,0.01,3.01,0,4.57,0C112.76,82.18,112.63,81.9,112.56,81.58z M107.05,74.07c-0.9,0.15-1.82,0.05-2.73,0.06
		c-0.96,0.01-0.96,0-0.96-0.94c0-0.56,0.01-1.13-0.01-1.69c-0.01-0.31,0.1-0.4,0.4-0.38c0.49,0.02,0.98,0.01,1.48,0.01v0.06
		c0.54,0,1.07-0.02,1.61,0c0.76,0.03,1.35,0.58,1.4,1.29C108.3,73.31,107.86,73.94,107.05,74.07z"/>
	<path class="st2" d="M97.42,82.1c0.01,0.29-0.09,0.37-0.37,0.37c-4.16-0.01-8.33-0.01-12.49,0c-0.32,0-0.34-0.14-0.34-0.4
		c0.01-2.42,0-4.85,0-7.27c0-2.37,0.01-4.73-0.01-7.1c0-0.4,0.08-0.54,0.52-0.54c4.03,0.02,8.07,0.02,12.1,0
		c0.45,0,0.57,0.12,0.56,0.56c-0.03,1-0.03,2,0,3c0.01,0.37-0.11,0.46-0.47,0.46c-2.51-0.01-5.02,0-7.53-0.02
		c-0.38,0-0.53,0.09-0.48,0.48c0.05,0.38-0.16,0.89,0.08,1.13c0.24,0.25,0.74,0.08,1.13,0.08c1.83,0.01,3.66,0.01,5.49-0.01
		c0.36,0,0.47,0.09,0.47,0.46c-0.03,1.03-0.02,2.06,0,3.09c0.01,0.35-0.1,0.44-0.44,0.44c-2.05-0.01-4.09,0-6.14-0.02
		c-0.4,0-0.54,0.11-0.5,0.51c0.03,0.39,0.04,0.79,0,1.17c-0.04,0.41,0.14,0.47,0.49,0.47c2.42-0.01,4.85-0.01,7.27-0.01
		c0.77,0,0.65-0.05,0.66,0.65C97.42,80.44,97.4,81.27,97.42,82.1z"/>
	<path class="st2" d="M51.91,82.13c0.01,0.38-0.23,0.33-0.46,0.33c-2.61,0-5.22,0-7.84,0c-1.49,0-2.99-0.01-4.48,0.01
		c-0.33,0-0.42-0.09-0.42-0.42c0.01-2.41,0.01-4.82,0.01-7.23c0-2.39,0.01-4.79-0.01-7.18c0-0.39,0.11-0.48,0.49-0.48
		c4.05,0.01,8.1,0.01,12.15,0c0.44,0,0.56,0.12,0.54,0.56c-0.04,1.01-0.03,2.03,0,3.05c0.01,0.34-0.1,0.42-0.42,0.42
		c-2.51-0.01-5.02,0.01-7.53-0.02c-0.43,0-0.58,0.13-0.51,0.54c0.01,0.08,0,0.17,0,0.26c0,0.9,0,0.9,0.88,0.9
		c1.94,0,3.89,0.01,5.83-0.01c0.34,0,0.44,0.08,0.44,0.43c-0.02,1.04-0.02,2.09,0,3.13c0.01,0.33-0.09,0.42-0.42,0.42
		c-2.06-0.01-4.12,0-6.18-0.02c-0.38,0-0.51,0.1-0.49,0.49c0.03,0.42,0.03,0.84,0,1.26c-0.02,0.35,0.14,0.4,0.44,0.4
		c2.29-0.01,4.59-0.01,6.88-0.01c0.26,0,0.52,0.01,0.78,0c0.22-0.01,0.31,0.07,0.31,0.3C51.9,80.22,51.89,81.18,51.91,82.13z"/>
	<path class="st2" d="M82.66,82.19c0,0.32-0.09,0.43-0.42,0.42c-0.7-0.02-1.39-0.03-2.09,0c-0.42,0.02-0.66-0.1-0.72-0.52
		c-0.05-0.3-0.14-0.37-0.41-0.14c-0.59,0.5-1.33,0.6-2.06,0.71c-2.55,0.38-4.87-0.12-6.79-1.89c-4.51-4.17-2.79-10.09,0.92-12.47
		c1.24-0.8,2.6-1.33,4.07-1.38c3.12-0.11,6.35,1.25,7.39,4.67c0.18,0.58,0.17,0.6-0.45,0.6c-1.16,0-2.32-0.01-3.48,0.01
		c-0.25,0-0.43-0.06-0.61-0.25c-0.38-0.38-0.78-0.74-1.27-0.98c-1.25-0.62-2.53-0.42-3.43,0.64c-1.62,1.92-1.59,4.73,0.24,6.5
		c1.08,1.04,2.71,1.19,3.73,0.37c0.08-0.06,0.16-0.13,0.22-0.21c0.2-0.25,0.49-0.54,0.37-0.83c-0.1-0.24-0.5-0.09-0.77-0.09
		c-0.75-0.02-0.75-0.01-0.75-0.77c0-0.76,0.01-1.51-0.01-2.26c-0.01-0.31,0.05-0.43,0.4-0.43c1.84,0.02,3.69,0.01,5.53,0
		c0.3,0,0.4,0.09,0.39,0.39c-0.01,1.33-0.01,2.67-0.01,4C82.65,79.58,82.64,80.88,82.66,82.19z"/>
	<path class="st4" d="M28.9,46.52c1.33,1.19,2.64,2.39,3.97,3.59c1.31-1.43,2.62-2.86,3.94-4.29c3.16-3.43,6.33-6.86,9.49-10.29
		c0.36-0.39,0.72-0.79,1.09-1.18c0.07-0.07,0.12-0.23,0.27-0.09c0,0,0,0,0,0c0-2.82,0-5.63,0-8.44c-0.19-0.02-0.22,0.08-0.28,0.13
		c-1.28,1.38-2.56,2.77-3.83,4.16c-3.03,3.31-6.06,6.63-9.1,9.94c-1.83,2-3.67,3.99-5.51,5.98C28.78,46.21,28.68,46.32,28.9,46.52z"
		/>
	<path class="st5" d="M39.98,58.32c-3.78-3.45-7.55-6.91-11.33-10.36c-0.28-0.25-0.57-0.7-0.84-0.69c-0.27,0.01-0.54,0.47-0.8,0.74
		c-0.65,0.7-1.33,1.38-1.94,2.12c-1.04,1.27-0.93,2.57,0.27,3.7c0.64,0.61,1.3,1.2,1.93,1.82c0.78,0.78,0.64,1.68-0.32,2.21
		c-0.51,0.28-1.01,0.57-1.53,0.83c-0.81,0.41-1.19,1.06-1.18,1.98c-0.14,1.82,1.87,3.07,3.33,2.46c0.75-0.32,1.11-0.93,1.4-1.63
		c0.21-0.51,0.36-1.04,0.64-1.51c0.48-0.8,1.33-0.92,2.02-0.28c0.45,0.41,0.88,0.84,1.34,1.24c0.56,0.5,1.07,1.07,1.74,1.43
		c0.93,0.5,1.87,0.34,2.56-0.43c0.9-1,1.8-2.01,2.72-2.99C40.28,58.67,40.24,58.55,39.98,58.32z"/>
	<path class="st6" d="M45.51,36.52c-0.85,0.91-1.69,1.83-2.53,2.75c-1.25,1.37-2.52,2.72-3.76,4.09c-0.75,0.82-1.5,1.65-2.27,2.46
		c-1.27,1.35-2.51,2.73-3.78,4.08c-0.09,0.09-0.15,0.22-0.31,0.21c1.38,1.25,2.76,2.51,4.14,3.76c0.51-0.26,0.78-0.76,1.16-1.15
		c0.94-0.97,1.82-1.98,2.73-2.98c1.35-1.47,2.71-2.94,4.06-4.41c0.82-0.89,1.63-1.81,2.46-2.68c0.19-0.2,0.21-0.39,0.21-0.62
		c0-2.34,0-4.67,0-7.01c0-0.2,0.02-0.4,0.03-0.6c0,0.12,0,0.24,0,0.37c0-0.12,0-0.24,0-0.37c0-0.05,0-0.1,0-0.16c0,0,0,0,0,0
		C46.88,34.96,46.22,35.76,45.51,36.52z"/>
	<path class="st6" d="M47.39,34.35c-0.36,0.39-0.73,0.79-1.09,1.18c-3.16,3.43-6.33,6.86-9.49,10.29c-1.32,1.43-2.63,2.86-3.94,4.29
		c0.16,0.01,0.22-0.12,0.31-0.21c1.27-1.35,2.51-2.73,3.78-4.08c0.76-0.81,1.52-1.64,2.27-2.46c1.25-1.37,2.51-2.72,3.76-4.09
		c0.84-0.92,1.68-1.84,2.53-2.75c0.71-0.76,1.37-1.56,2.14-2.26C47.51,34.12,47.46,34.28,47.39,34.35z"/>
	<path class="st7" d="M47.66,42.25c0,0.2-0.06,0.36-0.19,0.51c-0.9,0.98-1.79,1.97-2.71,2.95c-1.1,1.17-2.15,2.39-3.25,3.57
		c-0.84,0.9-1.68,1.8-2.52,2.71c-0.49,0.53-0.97,1.07-1.46,1.61c-0.14,0.15-0.25,0.38-0.53,0.28c1.25,1.15,2.5,2.29,3.73,3.46
		c0.29,0.28,0.44,0.26,0.7-0.03c1.98-2.22,3.96-4.43,5.96-6.63c0.21-0.24,0.29-0.47,0.29-0.78c-0.01-2.58,0-5.16,0-7.74
		c0-2.46-0.01-4.92-0.02-7.37C47.67,37.27,47.66,39.76,47.66,42.25z"/>
	<path class="st7" d="M47.63,35.02c0,2.34,0,4.67,0,7.01c0,0.23-0.01,0.42-0.21,0.62c-0.84,0.88-1.64,1.79-2.46,2.68
		c-1.35,1.47-2.71,2.94-4.06,4.41c-0.91,0.99-1.79,2.01-2.73,2.98c-0.38,0.39-0.65,0.89-1.16,1.15c0.28,0.1,0.39-0.13,0.53-0.28
		c0.49-0.54,0.97-1.08,1.46-1.61c0.84-0.9,1.67-1.81,2.52-2.71c1.1-1.17,2.15-2.39,3.25-3.57c0.91-0.97,1.81-1.96,2.71-2.95
		c0.14-0.15,0.19-0.3,0.19-0.51c-0.01-2.49,0-4.98-0.01-7.47c0-0.12,0-0.24,0-0.37C47.65,34.62,47.63,34.82,47.63,35.02z"/>
	<path class="st0" d="M72.18,85.43c-0.41,0-0.81,0-1.22,0c-0.2,0-0.44-0.04-0.5,0.22c-0.06,0.24,0.17,0.34,0.32,0.41
		c0.38,0.18,0.44,0.46,0.37,0.83c-0.04,0.2-0.07,0.4-0.11,0.6c-0.26,1.34-0.56,2.66-1.09,3.98c-0.08-0.09-0.12-0.11-0.13-0.15
		c-0.56-1.51-1.09-3.02-1.36-4.62c-0.05-0.28-0.06-0.54,0.28-0.69c0.16-0.07,0.18-0.25,0.15-0.42c-0.04-0.18-0.17-0.21-0.33-0.21
		c-0.58,0-1.16,0-1.74,0c-0.16,0-0.29,0.07-0.35,0.21c-0.06,0.15,0.03,0.27,0.13,0.34c0.36,0.27,0.42,0.65,0.4,1.05
		c-0.08,1.46-0.42,2.86-0.96,4.21c-0.04,0.09-0.06,0.22-0.18,0.2c-0.12-0.02-0.12-0.16-0.15-0.25c-0.49-1.44-0.85-2.92-1.01-4.44
		c-0.03-0.29-0.04-0.54,0.29-0.69c0.14-0.06,0.19-0.22,0.16-0.37c-0.03-0.18-0.18-0.24-0.32-0.24c-0.62-0.01-1.25-0.02-1.87,0
		c-0.15,0-0.31,0.09-0.36,0.27c-0.05,0.17,0.05,0.29,0.17,0.37c0.23,0.14,0.25,0.37,0.3,0.59c0.37,2.04,0.76,4.07,1.67,5.96
		c0.17,0.35,0.34,0.64,0.75,0.69c0.44,0.04,0.64-0.28,0.82-0.6c0.38-0.67,0.63-1.4,0.86-2.13c0.1-0.33,0.21-0.66,0.33-1.07
		c0.42,1.08,0.8,2.06,1.19,3.04c0.17,0.42,0.48,0.72,0.94,0.74c0.45,0.02,0.68-0.32,0.83-0.71c0.78-1.94,1.43-3.92,1.68-6
		c0.03-0.23,0.05-0.45,0.29-0.59c0.12-0.07,0.22-0.21,0.14-0.37C72.48,85.45,72.33,85.43,72.18,85.43z"/>
	<path class="st0" d="M107.91,92.56c-0.27-0.18-0.3-0.43-0.29-0.72c0.04-2.06-0.07-4.11,0.06-6.17c0.02-0.26-0.06-0.57-0.36-0.54
		c-0.53,0.04-1.06,0.18-1.54,0.4c-0.17,0.08-0.29,0.31-0.03,0.44c0.42,0.21,0.46,0.54,0.44,0.94c-0.02,0.38,0,0.75,0,1.18
		c-0.24-0.07-0.4-0.14-0.57-0.17c-0.18-0.04-0.37-0.06-0.56-0.04c-1.68,0.15-2.52,1.44-2.42,3.11c0.04,0.73,0.34,1.38,0.92,1.85
		c0.84,0.68,1.73,0.48,2.62,0.09c0.09-0.04,0.17-0.24,0.28-0.08c0.35,0.5,0.85,0.2,1.28,0.26c0.13,0.02,0.29-0.06,0.33-0.22
		C108.09,92.76,108.01,92.63,107.91,92.56z M106.23,91.48c-0.02,0.44-0.28,0.75-0.68,0.86c-0.37,0.11-0.74,0-1.02-0.31
		c-0.65-0.72-0.57-2.54,0.15-3.18c0.26-0.23,0.57-0.38,0.92-0.24c0.37,0.15,0.61,0.44,0.63,0.86c0.01,0.33,0,0.67,0,1h0.01
		C106.23,90.81,106.24,91.15,106.23,91.48z"/>
	<path class="st0" d="M91.31,92.6c-0.32-0.25-0.32-0.55-0.32-0.89c0.04-2-0.08-4,0.06-6c0.03-0.38-0.17-0.64-0.46-0.58
		c-0.45,0.09-0.91,0.2-1.35,0.34c-0.3,0.1-0.36,0.38-0.12,0.5c0.41,0.22,0.45,0.55,0.44,0.95c-0.01,0.37,0,0.75,0,1.18
		c-1.45-0.62-3.25,0.16-3.53,2.05c-0.15,1.06,0.06,2.01,0.92,2.7c0.87,0.71,1.79,0.46,2.69,0.02c0.06-0.03,0.12-0.1,0.18-0.02
		c0.35,0.51,0.87,0.25,1.32,0.25C91.45,93.12,91.56,92.79,91.31,92.6z M89.6,91.5c-0.01,0.45-0.3,0.74-0.69,0.85
		c-0.35,0.1-0.72,0.01-0.99-0.29c-0.17-0.18-0.29-0.4-0.35-0.64c-0.19-0.76-0.13-1.5,0.21-2.2c0.22-0.45,0.72-0.73,1.09-0.64
		c0.43,0.1,0.71,0.51,0.73,1.06c0.01,0.29,0,0.58,0,0.87h0.01C89.6,90.83,89.61,91.16,89.6,91.5z"/>
	<path class="st0" d="M59.46,92.6c-0.36-0.22-0.34-0.57-0.33-0.92c0.04-1.99-0.08-3.97,0.06-5.96c0.02-0.31-0.05-0.64-0.44-0.59
		c-0.47,0.06-0.94,0.2-1.39,0.35c-0.32,0.11-0.32,0.35-0.03,0.53c0.28,0.17,0.39,0.4,0.38,0.72c-0.01,0.43,0,0.87,0,1.35
		c-1.75-0.63-3.25,0.43-3.51,1.94c-0.18,1.09-0.02,2.07,0.85,2.81c0.87,0.74,1.8,0.51,2.72,0.06c0.06-0.03,0.12-0.12,0.18-0.03
		c0.33,0.52,0.84,0.21,1.27,0.28c0.13,0.02,0.29-0.04,0.34-0.22C59.59,92.79,59.56,92.66,59.46,92.6z M57.73,91.49
		c-0.01,0.46-0.3,0.75-0.68,0.85c-0.38,0.1-0.77-0.01-1.05-0.35c-0.58-0.72-0.51-2.44,0.14-3.09c0.26-0.26,0.57-0.43,0.94-0.29
		c0.39,0.15,0.65,0.44,0.65,0.88c0.01,0.3,0,0.61,0,0.91h0.01C57.73,90.77,57.74,91.13,57.73,91.49z"/>
	<path class="st0" d="M98.76,88.19c-0.32-0.01-0.64,0-0.96,0c-0.16,0-0.29,0.06-0.35,0.21c-0.08,0.17,0.03,0.3,0.15,0.37
		c0.29,0.17,0.3,0.43,0.28,0.71c-0.04,0.71-0.27,1.36-0.54,2c-0.09,0.22-0.13,0.47-0.38,0.65c-0.46-0.91-0.68-1.84-0.85-2.8
		c-0.04-0.25-0.11-0.49,0.16-0.69c0.16-0.12,0.16-0.37-0.07-0.4c-0.54-0.07-1.1-0.11-1.63,0.02c-0.21,0.05-0.31,0.29-0.11,0.38
		c0.42,0.18,0.34,0.52,0.36,0.83c0.05,0.85-0.21,1.63-0.56,2.38c-0.03,0.07-0.05,0.19-0.15,0.18c-0.12-0.01-0.14-0.13-0.18-0.22
		c-0.38-0.87-0.57-1.79-0.69-2.73c-0.02-0.18,0-0.31,0.19-0.38c0.14-0.05,0.19-0.19,0.14-0.32c-0.04-0.13-0.15-0.22-0.3-0.22
		c-0.52-0.01-1.04-0.01-1.57,0c-0.14,0-0.25,0.1-0.28,0.23c-0.03,0.11-0.02,0.25,0.1,0.3c0.27,0.11,0.28,0.35,0.3,0.58
		c0.13,1.21,0.51,2.34,1.03,3.43c0.14,0.28,0.23,0.59,0.65,0.6c0.47,0.01,0.85-0.06,1.1-0.52c0.22-0.39,0.38-0.81,0.62-1.32
		c0.21,0.48,0.41,0.85,0.53,1.24c0.15,0.47,0.45,0.6,0.91,0.6c0.44,0,0.65-0.25,0.83-0.58c0.58-1.06,0.94-2.21,1.24-3.37
		c0.05-0.2,0.07-0.43,0.27-0.57c0.13-0.09,0.17-0.25,0.12-0.39C99.09,88.22,98.92,88.19,98.76,88.19z"/>
	<path class="st0" d="M75.74,88.12c-1.38-0.03-2.33,0.57-2.65,1.72c-0.17,0.58-0.16,1.19-0.05,1.77c0.14,0.74,0.66,1.2,1.35,1.47
		c0.19,0.07,0.4,0.09,0.57,0.21c0.01,0.01,0.02,0.02,0.02,0.04c0.28-0.2,0.56-0.19,0.84,0c0.01-0.01,0.01-0.02,0.02-0.03
		c0.07-0.05,0.15-0.08,0.24-0.1c1.26-0.31,1.82-1.21,1.97-2.41C78.22,89.47,77.06,88.16,75.74,88.12z M76.47,92.02
		c-0.21,0.51-0.61,0.8-1.09,0.78c-0.5-0.02-0.71-0.38-0.86-0.79c-0.32-0.87-0.39-1.74,0-2.61c0.2-0.45,0.51-0.8,1.04-0.78
		c0.53,0.02,0.8,0.39,0.98,0.86c0.14,0.38,0.18,0.79,0.18,1.19C76.72,91.14,76.65,91.59,76.47,92.02z"/>
	<path class="st0" d="M74.95,93.29c-0.17-0.12-0.38-0.13-0.57-0.21c-0.69-0.28-1.2-0.74-1.35-1.47c-0.11-0.58-0.12-1.19,0.05-1.77
		c0.33-1.14,1.28-1.75,2.65-1.72c1.32,0.03,2.48,1.35,2.31,2.65c-0.15,1.21-0.71,2.1-1.97,2.41c-0.08,0.02-0.17,0.05-0.24,0.1
		c-0.01,0.01-0.02,0.02-0.02,0.03c0.01,0,0.01,0.01,0.02,0.01c0.29-0.04,0.57-0.1,0.83-0.22c1.16-0.54,1.78-2.03,1.36-3.27
		c-0.47-1.41-1.67-2.09-3.09-1.79c-1.18,0.24-2.22,1.15-2.09,3.13c0.08,1.14,0.85,1.97,2.1,2.16c0.01-0.01,0.01-0.01,0.02-0.01
		C74.97,93.31,74.97,93.3,74.95,93.29z"/>
	<path class="st0" d="M74.98,93.32c0,0,0,0.01,0,0.01c0.28,0,0.56,0,0.84-0.01c0,0,0-0.01,0-0.01
		C75.54,93.13,75.26,93.12,74.98,93.32z"/>
	<path class="st0" d="M75.82,93.33c0.01,0,0.01,0,0.02,0c-0.01,0-0.01-0.01-0.02-0.01C75.82,93.33,75.82,93.33,75.82,93.33z"/>
	<path class="st0" d="M74.98,93.32c-0.01,0-0.01,0.01-0.02,0.01c0.01,0,0.02,0,0.02,0C74.98,93.33,74.98,93.33,74.98,93.32z"/>
	<path class="st0" d="M53.55,91.88c-0.16-0.18-0.32-0.06-0.45,0.05c-0.3,0.26-0.62,0.48-1.01,0.57c-0.82,0.19-1.48-0.2-1.66-0.98
		c-0.05-0.21-0.03-0.3,0.23-0.32c0.64-0.03,1.27-0.11,1.86-0.4c0.39-0.19,0.78-0.4,0.95-0.84c0.32-0.79-0.11-1.63-1-1.9
		c-1.11-0.33-2.11-0.09-2.91,0.75c-0.81,0.86-0.87,1.91-0.47,2.96c0.42,1.09,1.34,1.5,2.53,1.54c0.72-0.02,1.38-0.34,1.91-0.93
		C53.66,92.23,53.7,92.04,53.55,91.88z M50.43,89.66c0.17-0.65,0.55-1.02,1.06-1.05c0.47-0.03,0.7,0.2,0.68,0.68
		c-0.02,0.52-0.37,0.91-1.01,1.1c-0.26,0.07-0.59,0.24-0.78,0.06C50.2,90.26,50.37,89.92,50.43,89.66z"/>
	<path class="st0" d="M85.16,92.58c-0.35-0.11-0.34-0.38-0.34-0.66c0-1.06,0-2.12,0-3.17c0.01,0,0.02,0,0.02,0
		c0-1.09-0.01-2.17,0.01-3.26c0-0.32-0.17-0.4-0.41-0.33c-0.47,0.14-0.93,0.31-1.39,0.49c-0.23,0.09-0.29,0.3-0.05,0.41
		c0.41,0.18,0.43,0.5,0.42,0.86c0,1.72,0,3.45,0.01,5.17c0,0.23-0.07,0.38-0.28,0.48c-0.14,0.07-0.29,0.19-0.24,0.37
		c0.05,0.17,0.21,0.22,0.39,0.22c0.57-0.01,1.13-0.01,1.7-0.01c0.16,0,0.29-0.05,0.33-0.21C85.39,92.77,85.3,92.63,85.16,92.58z"/>
	<path class="st0" d="M48.27,92.46c-0.07,0-0.15,0-0.22,0c-0.4,0.03-0.53-0.17-0.52-0.55c0.02-0.71,0-1.42,0.01-2.13
		c0-0.29-0.11-0.63,0.05-0.84c0.15-0.18,0.49-0.04,0.75-0.08c0.01,0,0.03,0,0.04,0c0.22-0.03,0.4-0.12,0.38-0.38
		c-0.02-0.24-0.15-0.37-0.39-0.38c-0.14-0.01-0.29-0.01-0.43,0c-0.29,0.02-0.43-0.05-0.4-0.39c0.03-0.33,0.01-0.67,0-1
		c0-0.16-0.07-0.28-0.24-0.33c-0.19-0.05-0.32,0.05-0.38,0.21c-0.08,0.2-0.14,0.41-0.19,0.62c-0.14,0.52-0.42,0.88-1,0.92
		c-0.22,0.02-0.42,0.12-0.41,0.36c0.01,0.26,0.22,0.37,0.46,0.34c0.31-0.04,0.35,0.1,0.35,0.38c-0.02,1.1-0.01,2.2-0.01,3.31
		c0,0.46,0.15,0.62,0.62,0.63c0.25,0.01,0.49,0,0.74,0c0,0,0,0.01,0,0.01c0.28,0,0.55,0.01,0.83,0c0.22-0.01,0.47-0.02,0.46-0.33
		C48.75,92.51,48.53,92.45,48.27,92.46z"/>
	<path class="st0" d="M34.22,88.02c-0.22-0.09-0.45-0.1-0.68-0.02c-0.32,0.12-0.61,0.28-0.82,0.55c-0.16,0.22-0.24,0.17-0.36-0.04
		c-0.37-0.63-0.93-0.7-1.48-0.21c-0.32,0.28-0.32,0.44,0.05,0.66c0.32,0.2,0.44,0.46,0.43,0.83c-0.02,0.75-0.02,1.51,0,2.26
		c0.01,0.3-0.02,0.54-0.35,0.66c-0.13,0.04-0.21,0.16-0.19,0.31c0.02,0.17,0.16,0.2,0.29,0.2c0.68,0.01,1.36,0.01,2.04,0.01
		c0.14,0,0.26-0.06,0.3-0.21c0.04-0.17-0.04-0.29-0.2-0.33c-0.39-0.1-0.47-0.37-0.43-0.73c0.02-0.26,0-0.52,0-0.78
		c0,0-0.01,0-0.01,0c0-0.28,0-0.55,0-0.83c0-0.28,0.06-0.55,0.16-0.8c0.21-0.52,0.3-0.55,0.83-0.38c0.36,0.12,0.73-0.03,0.84-0.34
		C34.73,88.53,34.55,88.15,34.22,88.02z"/>
	<path class="st0" d="M81.95,87.91c-0.49-0.03-0.87,0.23-1.17,0.57c-0.18,0.2-0.25,0.22-0.39-0.01c-0.38-0.63-0.92-0.7-1.48-0.19
		c-0.29,0.26-0.29,0.43,0.04,0.63c0.34,0.21,0.46,0.48,0.45,0.87c-0.02,0.72-0.02,1.45,0,2.17c0.01,0.33-0.02,0.6-0.38,0.73
		c-0.12,0.04-0.22,0.17-0.17,0.31c0.05,0.14,0.19,0.16,0.33,0.16c0.32,0,0.64,0,0.96,0c0,0,0,0.01,0,0.01c0.33,0,0.67,0,1,0
		c0.17,0,0.33-0.03,0.36-0.23c0.02-0.18-0.1-0.26-0.25-0.3c-0.23-0.06-0.4-0.2-0.4-0.45c0-0.74-0.05-1.48,0.03-2.21
		c0.03-0.26,0.12-0.5,0.26-0.73c0.14-0.23,0.3-0.33,0.57-0.17c0.27,0.16,0.57,0.14,0.81-0.06c0.21-0.17,0.21-0.41,0.12-0.64
		C82.51,88.06,82.26,87.93,81.95,87.91z"/>
	<path class="st0" d="M101.79,92.62c-0.26-0.07-0.28-0.26-0.28-0.47c0-0.61,0-1.22,0-1.83c0,0,0,0,0,0c0-0.61,0.01-1.22,0-1.83
		c-0.01-0.41-0.19-0.6-0.51-0.52c-0.45,0.12-0.88,0.27-1.32,0.41c-0.13,0.04-0.23,0.14-0.21,0.29c0.02,0.13,0.11,0.2,0.24,0.22
		c0.36,0.04,0.42,0.28,0.42,0.59c-0.01,0.81-0.01,1.62,0,2.43c0,0.31-0.01,0.57-0.33,0.73c-0.11,0.05-0.22,0.17-0.16,0.32
		c0.05,0.14,0.18,0.18,0.32,0.18c0.57,0,1.13,0,1.7,0c0.16,0,0.29-0.06,0.32-0.23C101.99,92.79,101.94,92.66,101.79,92.62z"/>
	<path class="st5" d="M101.56,86.67c-0.01-0.48-0.31-0.78-0.79-0.78c-0.52,0.01-0.9,0.34-0.9,0.8c0,0.41,0.38,0.74,0.86,0.73
		C101.21,87.41,101.56,87.1,101.56,86.67z"/>
</g>
</svg>
