<svg width="100" height="100" viewBox="0 0 100 100" fill="none" xmlns="http://www.w3.org/2000/svg">
<path d="M65.0943 59.9838C66.8143 58.808 69.2004 57.7904 69.2004 57.7904C69.2004 57.7904 62.4098 59.0189 55.6539 59.5805C47.3895 60.2646 38.5106 60.4049 34.0535 59.8084C23.5074 58.4047 39.844 54.5264 39.844 54.5264C39.844 54.5264 33.5094 54.1057 25.7008 57.8604C16.4887 62.3176 48.5123 64.3529 65.0943 59.9838ZM50.1094 54.351C46.7754 46.8584 35.5275 40.2779 50.1094 28.767C68.3061 14.4135 58.9705 5.07812 58.9705 5.07812C62.7432 19.9057 45.7051 24.3979 39.5457 33.6102C35.3518 39.9096 41.5988 46.6654 50.1094 54.351ZM70.2182 23.4326C70.2359 23.4326 39.4756 31.1184 54.1627 48.0338C58.4967 53.0174 53.0221 57.5096 53.0221 57.5096C53.0221 57.5096 64.0244 51.8244 58.9705 44.7176C54.2504 38.0846 50.6356 34.7857 70.2182 23.4326ZM69.148 70.8982C69.0604 71.1088 68.7971 71.3371 68.7971 71.3545C91.3102 65.441 83.0277 50.4904 72.2713 54.2811C71.3234 54.6145 70.8326 55.3865 70.8326 55.3865C70.8326 55.3865 71.4289 55.1406 72.7629 54.86C78.2023 53.7195 86.0109 62.1422 69.148 70.8982ZM77.4303 81.8303C77.4303 81.8303 79.9746 83.9186 74.6402 85.5504C64.4803 88.6211 32.3865 89.551 23.4725 85.6734C20.2613 84.2869 26.2799 82.3391 28.1752 81.9357C30.1402 81.5145 31.2809 81.5844 31.2809 81.5844C27.7188 79.0752 8.24122 86.5154 21.3842 88.6389C57.2156 94.4643 86.7307 86.024 77.4303 81.8303ZM38.1947 74.5656C24.385 78.4262 46.6 86.3928 64.182 78.8646C61.3045 77.742 59.234 76.4434 59.234 76.4434C51.3902 77.935 47.7582 78.04 40.6338 77.233C34.7555 76.5662 38.1947 74.5656 38.1947 74.5656ZM69.7443 91.6217C55.935 94.2186 38.8967 93.9207 28.8066 92.2531C28.8066 92.2359 30.8773 93.9555 41.5109 94.6398C57.6895 95.6754 82.5363 94.0605 83.1154 86.4102C83.1156 86.4102 81.9928 89.3057 69.7443 91.6217ZM62.0941 67.0203C51.7059 69.0209 45.6873 68.9682 38.0895 68.1785C32.2109 67.5643 36.0539 64.7219 36.0539 64.7219C20.8231 69.7754 44.5117 75.4961 65.7963 69.2666C63.5328 68.4768 62.0941 67.0203 62.0941 67.0203Z" fill="#FCFCFC"/>
</svg>
