<svg width="80" height="80" viewBox="0 0 80 80" fill="none" xmlns="http://www.w3.org/2000/svg">
<path d="M40 79.0625C61.5736 79.0625 79.0625 61.5736 79.0625 40C79.0625 18.4264 61.5736 0.9375 40 0.9375C18.4264 0.9375 0.9375 18.4264 0.9375 40C0.9375 61.5736 18.4264 79.0625 40 79.0625Z" fill="#0E0428"/>
<path d="M42.4219 19.9375C41.7187 20.1719 40.7812 20.3281 39.4531 20.4062C39.5312 17.5937 40.2344 15.1719 41.6406 13.1406C43.0469 11.1094 45.3906 9.70312 48.6719 9C48.6719 9.07812 48.75 9.15625 48.75 9.3125C48.75 9.46875 48.8281 9.54687 48.8281 9.625C48.8281 9.70312 48.8281 9.78125 48.8281 9.9375C48.8281 10.0156 48.8281 10.1719 48.8281 10.25C48.8281 11.4219 48.5938 12.6719 48.0469 14.0781C47.5 15.4844 46.6406 16.8125 45.4688 17.9844C44.4531 18.9219 43.4375 19.625 42.4219 19.9375ZM55.0781 39.7031C53.75 37.8281 53.125 35.7188 53.125 33.4531C53.125 31.3438 53.75 29.3906 54.9219 27.5938C55.5469 26.6562 56.6406 25.5625 58.125 24.2344C57.1094 23.0625 56.1719 22.125 55.1562 21.4219C53.3594 20.1719 51.4062 19.625 49.1406 19.625C47.8125 19.625 46.1719 19.9375 44.2969 20.5625C42.4219 21.1875 41.0938 21.5 40.2344 21.5C39.6094 21.5 38.2812 21.1875 36.3281 20.6406C34.375 20.0938 32.6563 19.7812 31.3281 19.7812C28.125 19.7812 25.4688 21.1094 23.3594 23.8438C21.25 26.5781 20.1562 30.0938 20.1562 34.3906C20.1562 38.9219 21.5625 43.6875 24.2969 48.5312C27.1094 53.375 29.9219 55.7969 32.8125 55.7969C33.75 55.7969 35 55.4844 36.5625 54.8594C38.0469 54.2344 39.4531 53.9219 40.5469 53.9219C41.7969 53.9219 43.2031 54.2344 44.7656 54.8594C46.4844 55.4844 47.8125 55.7969 48.6719 55.7969C51.0937 55.7969 53.5156 53.9219 55.9375 50.25C57.5 47.9063 58.6719 45.5625 59.375 43.2188C57.8906 42.75 56.4062 41.5 55.0781 39.7031Z" fill="#FCFCFC"/>
</svg>
