<svg width="164" height="64" viewBox="0 0 164 64" fill="none" xmlns="http://www.w3.org/2000/svg">
<path d="M31.9465 37.312C34.9038 37.312 37.3011 34.9146 37.3011 31.9573C37.3011 29 34.9038 26.6026 31.9465 26.6026C28.9892 26.6026 26.5918 29 26.5918 31.9573C26.5918 34.9146 28.9892 37.312 31.9465 37.312Z" fill="#FCFCFC"/>
<path d="M31.947 44.224C24.427 44.224 17.8563 43.3387 12.939 41.6533C9.74963 40.5653 7.0403 39.1147 5.10963 37.4613C3.06163 35.712 1.97363 33.8027 1.97363 31.9573C1.97363 28.416 5.8563 24.9493 12.3736 22.688C17.707 20.832 24.6616 19.7973 31.9363 19.7973C39.083 19.7973 45.9416 20.8 51.243 22.6347C54.347 23.7013 56.9603 25.088 58.8163 26.624C60.8323 28.3093 61.899 30.1547 61.899 31.9573C61.899 35.6373 57.5576 39.36 50.5603 41.6747C45.611 43.3174 38.9976 44.224 31.947 44.224ZM31.947 22.3573C25.0456 22.3573 18.219 23.36 13.227 25.0987C7.2323 27.1893 4.5443 30.048 4.5443 31.9573C4.5443 33.9413 7.43497 37.0667 13.771 39.232C18.4216 40.8213 24.715 41.664 31.947 41.664C38.731 41.664 45.0563 40.8107 49.7603 39.2427C56.3416 37.056 59.3496 33.9307 59.3496 31.9573C59.3496 30.944 58.5816 29.7493 57.1843 28.5867C55.5736 27.2427 53.227 26.016 50.4216 25.0453C45.3763 23.3173 38.8163 22.3573 31.947 22.3573Z" fill="#FCFCFC"/>
<path d="M19.7976 58.6454C18.7096 58.6454 17.7496 58.4107 16.939 57.9414C13.8776 56.1707 12.811 51.072 14.1016 44.2987C15.1576 38.7414 17.739 32.2134 21.3763 25.9094C24.9496 19.7227 29.2376 14.2827 33.4723 10.6027C35.947 8.44803 38.4536 6.86936 40.715 6.03736C43.179 5.13069 45.3123 5.13069 46.8696 6.02669C50.059 7.86136 51.115 13.4934 49.6216 20.704C48.5656 25.824 46.0483 32 42.5283 38.112C38.7736 44.6187 34.7203 49.8667 30.8056 53.2907C28.267 55.5094 25.6536 57.1307 23.2643 57.9734C22.0163 58.4214 20.843 58.6454 19.7976 58.6454ZM22.475 26.5494L23.5843 27.1894C20.139 33.1627 17.5896 39.5734 16.6083 44.7787C15.4243 51.0187 16.5656 54.7734 18.2083 55.7227C18.6136 55.9574 19.147 56.0854 19.7976 56.0854C21.9203 56.0854 25.259 54.7414 29.1203 51.3707C32.8216 48.1387 36.6936 43.104 40.3096 36.8427C43.7016 30.9654 46.1123 25.056 47.115 20.2027C48.5123 13.408 47.307 9.24803 45.5896 8.25603C44.715 7.75469 43.2963 7.81869 41.5896 8.44803C39.6163 9.17336 37.387 10.592 35.147 12.544C31.1256 16.0427 27.019 21.248 23.5843 27.2L22.475 26.5494Z" fill="#FCFCFC"/>
<path d="M44.0962 58.6774C41.1949 58.6774 37.5149 56.9281 33.6749 53.6214C29.3869 49.9307 25.0242 44.4374 21.3762 38.1334C17.7922 31.9467 15.2322 25.5147 14.1549 20C13.5255 16.7787 13.4082 13.824 13.8135 11.4454C14.2615 8.85336 15.3175 7.00803 16.8855 6.10136C20.0642 4.25603 25.4722 6.15469 30.9762 11.0507C34.8802 14.5174 38.9762 19.7867 42.5069 25.888C46.2722 32.3947 48.8002 38.528 49.8029 43.6267C50.4535 46.9334 50.5602 50.0054 50.1015 52.5014C49.6109 55.1574 48.5015 57.0454 46.9015 57.9734C46.1015 58.4427 45.1522 58.6774 44.0962 58.6774ZM23.5949 36.8534C27.0509 42.8267 31.3389 48.2347 35.3495 51.68C40.1602 55.8187 43.9789 56.7147 45.6322 55.7547C47.3495 54.7627 48.6082 50.6987 47.3069 44.128C46.3469 39.3067 43.9255 33.44 40.2989 27.1787C36.8962 21.3014 32.9815 16.256 29.2802 12.9707C24.0962 8.36269 19.8935 7.32803 18.1762 8.32003C17.3015 8.82136 16.6509 10.0907 16.3415 11.8827C15.9895 13.952 16.0962 16.5974 16.6722 19.5094C17.6962 24.7467 20.1495 30.9014 23.5949 36.8534Z" fill="#FCFCFC"/>
<path d="M92.32 41L87.072 32.04H80.8V41H78.56V18.6H87.52C89.376 18.6 90.9547 19.2613 92.256 20.584C93.5787 21.8853 94.24 23.464 94.24 25.32C94.24 26.8347 93.7813 28.1893 92.864 29.384C91.968 30.5573 90.816 31.3467 89.408 31.752L94.88 41H92.32ZM80.8 20.712V29.928H87.52C88.7573 29.928 89.8133 29.48 90.688 28.584C91.5627 27.6667 92 26.5787 92 25.32C92 24.04 91.5627 22.952 90.688 22.056C89.8133 21.16 88.7573 20.712 87.52 20.712H80.8ZM104.351 24.616C106.719 24.616 108.628 25.4587 110.079 27.144C111.551 28.808 112.287 30.7813 112.287 33.064C112.287 33.2987 112.265 33.6293 112.223 34.056H98.1748C98.3881 35.6773 99.0708 36.968 100.223 37.928C101.396 38.8667 102.836 39.336 104.543 39.336C105.759 39.336 106.804 39.0907 107.679 38.6C108.575 38.088 109.247 37.4267 109.695 36.616L111.551 37.704C110.847 38.8347 109.887 39.7307 108.671 40.392C107.455 41.0533 106.068 41.384 104.511 41.384C101.993 41.384 99.9454 40.5947 98.3668 39.016C96.7881 37.4373 95.9988 35.432 95.9988 33C95.9988 30.6107 96.7774 28.616 98.3348 27.016C99.8921 25.416 101.897 24.616 104.351 24.616ZM104.351 26.664C102.687 26.664 101.289 27.1653 100.159 28.168C99.0494 29.1493 98.3881 30.4293 98.1748 32.008H110.111C109.897 30.3227 109.247 29.0107 108.159 28.072C107.071 27.1333 105.801 26.664 104.351 26.664ZM129.406 25H131.518V41H129.406V37.864C127.934 40.2107 125.78 41.384 122.942 41.384C120.66 41.384 118.708 40.5733 117.086 38.952C115.486 37.3307 114.686 35.3467 114.686 33C114.686 30.6533 115.486 28.6693 117.086 27.048C118.708 25.4267 120.66 24.616 122.942 24.616C125.78 24.616 127.934 25.7893 129.406 28.136V25ZM118.622 37.512C119.838 38.728 121.332 39.336 123.102 39.336C124.873 39.336 126.366 38.728 127.582 37.512C128.798 36.2747 129.406 34.7707 129.406 33C129.406 31.2293 128.798 29.736 127.582 28.52C126.366 27.2827 124.873 26.664 123.102 26.664C121.332 26.664 119.838 27.2827 118.622 28.52C117.406 29.736 116.798 31.2293 116.798 33C116.798 34.7707 117.406 36.2747 118.622 37.512ZM143.446 41.384C141.035 41.384 139.03 40.584 137.43 38.984C135.83 37.3627 135.03 35.368 135.03 33C135.03 30.632 135.83 28.648 137.43 27.048C139.03 25.4267 141.035 24.616 143.446 24.616C145.025 24.616 146.443 25 147.702 25.768C148.961 26.5147 149.878 27.528 150.454 28.808L148.726 29.8C148.299 28.84 147.606 28.0827 146.646 27.528C145.707 26.952 144.641 26.664 143.446 26.664C141.675 26.664 140.182 27.2827 138.966 28.52C137.75 29.736 137.142 31.2293 137.142 33C137.142 34.7707 137.75 36.2747 138.966 37.512C140.182 38.728 141.675 39.336 143.446 39.336C144.641 39.336 145.707 39.0587 146.646 38.504C147.585 37.928 148.321 37.16 148.854 36.2L150.614 37.224C149.953 38.504 148.982 39.5173 147.702 40.264C146.422 41.0107 145.003 41.384 143.446 41.384ZM162.126 27.048H157.518V36.744C157.518 37.6187 157.689 38.248 158.03 38.632C158.372 38.9947 158.884 39.1867 159.566 39.208C160.249 39.208 161.102 39.1867 162.126 39.144V41C159.886 41.3413 158.201 41.1813 157.07 40.52C155.961 39.8587 155.406 38.6 155.406 36.744V27.048H152.046V25H155.406V21.16L157.518 20.52V25H162.126V27.048Z" fill="#FCFCFC"/>
</svg>
