<svg width="148" height="64" viewBox="0 0 148 64" fill="none" xmlns="http://www.w3.org/2000/svg">
<path d="M38.6912 6.77643C63.9691 23.6906 55.772 42.2772 55.772 42.2772C55.772 42.2772 62.952 50.2444 60.0659 57.2237C60.0659 57.2237 57.0871 52.3482 52.1424 52.3482C47.362 52.3482 44.5341 57.2237 34.8848 57.2237C13.4234 57.2237 3.25 39.5892 3.25 39.5892C22.5906 52.1289 35.8049 43.2426 35.8049 43.2426C27.0725 38.2774 8.55075 14.4977 8.55075 14.4977C24.6971 28.0148 31.6649 31.5638 31.6649 31.5638C27.4751 28.1914 15.7989 11.6618 15.7989 11.6618C25.1425 20.9551 43.715 33.9137 43.715 33.9137C49.0407 19.5934 38.6912 6.77643 38.6912 6.77643Z" fill="#FCFCFC"/>
<path d="M85.6 41.384C83.552 41.384 81.792 40.904 80.32 39.944C78.8693 38.9627 77.856 37.6187 77.28 35.912L79.2 34.792C79.6053 36.1787 80.352 37.2667 81.44 38.056C82.528 38.824 83.9253 39.208 85.632 39.208C87.296 39.208 88.5867 38.8453 89.504 38.12C90.4427 37.3733 90.912 36.392 90.912 35.176C90.912 34.0027 90.4853 33.1173 89.632 32.52C88.7787 31.9227 87.3707 31.304 85.408 30.664C83.0827 29.896 81.5467 29.2773 80.8 28.808C79.0933 27.784 78.24 26.3013 78.24 24.36C78.24 22.4613 78.9013 20.968 80.224 19.88C81.5467 18.7707 83.1787 18.216 85.12 18.216C86.8693 18.216 88.384 18.6747 89.664 19.592C90.944 20.488 91.8933 21.64 92.512 23.048L90.624 24.104C89.6 21.6293 87.7653 20.392 85.12 20.392C83.7333 20.392 82.6133 20.7333 81.76 21.416C80.9067 22.0987 80.48 23.048 80.48 24.264C80.48 25.3733 80.864 26.2053 81.632 26.76C82.4 27.3147 83.6693 27.88 85.44 28.456C86.2507 28.7333 86.8267 28.936 87.168 29.064C87.5307 29.1707 88.0427 29.3627 88.704 29.64C89.3867 29.896 89.888 30.1307 90.208 30.344C90.528 30.536 90.912 30.8133 91.36 31.176C91.8293 31.5173 92.16 31.8693 92.352 32.232C92.5653 32.5733 92.7467 33 92.896 33.512C93.0667 34.0027 93.152 34.536 93.152 35.112C93.152 37.0107 92.4587 38.536 91.072 39.688C89.6853 40.8187 87.8613 41.384 85.6 41.384ZM115.317 25H117.493L112.565 41H110.26L106.133 28.104L102.005 41H99.7005L94.7725 25H96.9485L100.885 38.28L105.077 25H107.189L111.381 38.28L115.317 25ZM122.822 21.16C122.523 21.4587 122.16 21.608 121.734 21.608C121.307 21.608 120.944 21.4587 120.646 21.16C120.347 20.8613 120.198 20.4987 120.198 20.072C120.198 19.6453 120.347 19.2827 120.646 18.984C120.944 18.6853 121.307 18.536 121.734 18.536C122.16 18.536 122.523 18.6853 122.822 18.984C123.12 19.2827 123.27 19.6453 123.27 20.072C123.27 20.4987 123.12 20.8613 122.822 21.16ZM120.678 41V25H122.79V41H120.678ZM135.271 20.264C133.714 20.136 132.551 20.4027 131.783 21.064C131.037 21.7253 130.663 22.824 130.663 24.36V25H135.271V27.048H130.663V41H128.551V27.048H125.831V25H128.551V24.36C128.551 22.2693 129.127 20.6907 130.279 19.624C131.453 18.536 133.117 18.0667 135.271 18.216V20.264ZM146.626 27.048H142.018V36.744C142.018 37.6187 142.189 38.248 142.53 38.632C142.872 38.9947 143.384 39.1867 144.066 39.208C144.749 39.208 145.602 39.1867 146.626 39.144V41C144.386 41.3413 142.701 41.1813 141.57 40.52C140.461 39.8587 139.906 38.6 139.906 36.744V27.048H136.546V25H139.906V21.16L142.018 20.52V25H146.626V27.048Z" fill="#FCFCFC"/>
</svg>
