<svg width="50" height="60" viewBox="0 0 50 60" fill="none" xmlns="http://www.w3.org/2000/svg">
<g clip-path="url(#clip0)">
<path d="M23.2576 13.2676C24.1781 13.2676 24.9242 12.4352 24.9242 11.4084C24.9242 10.3817 24.1781 9.54929 23.2576 9.54929C22.3371 9.54929 21.5909 10.3817 21.5909 11.4084C21.5909 12.4352 22.3371 13.2676 23.2576 13.2676Z" fill="#26BAF6"/>
<path d="M16.9697 26.7042C17.8901 26.7042 18.6363 25.8718 18.6363 24.8451C18.6363 23.8183 17.8901 22.9859 16.9697 22.9859C16.0492 22.9859 15.303 23.8183 15.303 24.8451C15.303 25.8718 16.0492 26.7042 16.9697 26.7042Z" fill="#26BAF6"/>
<path d="M29.4697 21.7183C30.3902 21.7183 31.1363 20.8859 31.1363 19.8592C31.1363 18.8324 30.3902 18 29.4697 18C28.5492 18 27.803 18.8324 27.803 19.8592C27.803 20.8859 28.5492 21.7183 29.4697 21.7183Z" fill="#26BAF6"/>
<path d="M46.2879 35.3239L43.1818 22.6479C43.0303 -6.42255 3.63635 -6.25353 3.63635 22.8169C3.63635 37.5211 13.8636 34.1408 16.2879 54.0845C16.3636 54.507 16.6667 54.8451 17.0454 54.8451H34.0909C34.5454 54.8451 34.8485 54.507 34.8485 54V44.7887H40.606C41.0606 44.7887 41.3636 44.3662 41.3636 43.9436V36.4225H45.6818C45.9091 36.4225 46.1364 36.338 46.2879 36.0845C46.4394 35.831 46.3636 35.5774 46.2879 35.3239ZM30.2273 23.3239V26.0282C30.2273 26.3662 30.0757 26.6197 29.8485 26.7887L24.0151 30.338V41.0704C24.0151 41.5774 23.7121 41.9155 23.2576 41.9155C22.803 41.9155 22.5 41.5774 22.5 41.0704V35.3239L16.6667 31.6901C16.4394 31.5211 16.2879 31.2676 16.2879 30.9296V28.2253C14.9242 27.8028 13.8636 26.4507 13.8636 24.7606C13.8636 22.8169 15.303 21.2113 17.0454 21.2113C18.7879 21.2113 20.2273 22.8169 20.2273 24.7606C20.2273 26.4507 19.1667 27.8028 17.803 28.2253V30.4225L22.5 33.2958V14.8732C21.1364 14.4507 20.0757 13.0986 20.0757 11.4084C20.0757 9.46478 21.5151 7.85915 23.2576 7.85915C25 7.85915 26.4394 9.46478 26.4394 11.4084C26.4394 13.0986 25.3788 14.4507 24.0151 14.8732V28.3944L28.7121 25.5211V23.3239C27.3485 22.9014 26.2879 21.5493 26.2879 19.8591C26.2879 17.9155 27.7273 16.3098 29.4697 16.3098C31.2121 16.3098 32.6515 17.9155 32.6515 19.8591C32.6515 21.5493 31.5909 22.9014 30.2273 23.3239Z" fill="#26BAF6"/>
</g>
<defs>
<clipPath id="clip0">
<rect width="50" height="60" fill="white"/>
</clipPath>
</defs>
</svg>
