<svg width="60" height="60" viewBox="0 0 60 60" fill="none" xmlns="http://www.w3.org/2000/svg">
<path fill-rule="evenodd" clip-rule="evenodd" d="M8.75 25.7944C8.75 14.2947 18.3597 5 29.9836 5C41.6403 5 51.25 14.2947 51.25 25.7944C51.25 31.5892 49.1425 36.9691 45.6737 41.5289C41.847 46.5588 37.1304 50.9412 31.8214 54.3811C30.6063 55.176 29.5097 55.236 28.1761 54.3811C22.8368 50.9412 18.1202 46.5588 14.3263 41.5289C10.855 36.9691 8.75 31.5892 8.75 25.7944ZM22.9855 26.4419C22.9855 30.2943 26.1291 33.3242 29.9836 33.3242C33.8406 33.3242 37.0144 30.2943 37.0144 26.4419C37.0144 22.6195 33.8406 19.4421 29.9836 19.4421C26.1291 19.4421 22.9855 22.6195 22.9855 26.4419Z" fill="#26BAF6"/>
</svg>
