<svg width="60" height="60" viewBox="0 0 60 60" fill="none" xmlns="http://www.w3.org/2000/svg">
<path fill-rule="evenodd" clip-rule="evenodd" d="M29.3203 54.7841C29.5971 54.9288 29.9067 55.0023 30.2163 54.9999C30.5258 54.9974 30.8329 54.9214 31.1123 54.7743L40.032 50.0062C42.5614 48.6578 44.5421 47.1501 46.0875 45.3949C49.4475 41.5705 51.2822 36.6895 51.2495 31.6566L51.1438 15.055C51.1338 13.1428 49.8778 11.4365 48.0204 10.8163L31.4269 5.24891C30.4277 4.9106 29.3328 4.91796 28.3513 5.26607L11.8206 11.032C9.97327 11.6768 8.74002 13.3953 8.75009 15.3099L8.85579 31.8993C8.88851 36.9396 10.7862 41.7985 14.2016 45.5836C15.762 47.3144 17.7604 48.8 20.3175 50.1263L29.3203 54.7841ZM26.9589 35.2723C27.3314 35.6303 27.8146 35.8068 28.2979 35.8019C28.7811 35.7994 29.2618 35.618 29.6293 35.2552L39.377 25.6452C40.1094 24.9221 40.1019 23.76 39.3619 23.0466C38.6194 22.3333 37.4239 22.3382 36.6915 23.0614L28.2702 31.3622L24.8221 28.0477C24.0796 27.3343 22.8866 27.3417 22.1517 28.0649C21.4193 28.7881 21.4269 29.9501 22.1693 30.6635L26.9589 35.2723Z" fill="#26BAF6"/>
</svg>
