<svg width="60" height="60" viewBox="0 0 60 60" fill="none" xmlns="http://www.w3.org/2000/svg">
<path fill-rule="evenodd" clip-rule="evenodd" d="M30 55.0003C16.2 55.0003 5 43.8253 5 30.0003C5 16.2003 16.2 5.00027 30 5.00027C43.825 5.00027 55 16.2003 55 30.0003C55 43.8253 43.825 55.0003 30 55.0003ZM37.975 39.2754C38.275 39.4504 38.6 39.5504 38.95 39.5504C39.575 39.5504 40.2 39.2254 40.55 38.6254C41.075 37.7504 40.8 36.6004 39.9 36.0504L31 30.7504V19.2004C31 18.1504 30.15 17.3254 29.125 17.3254C28.1 17.3254 27.25 18.1504 27.25 19.2004V31.8254C27.25 32.4754 27.6 33.0754 28.175 33.4254L37.975 39.2754Z" fill="#26BAF6"/>
</svg>
