<svg width="60" height="60" viewBox="0 0 60 60" fill="none" xmlns="http://www.w3.org/2000/svg">
<path fill-rule="evenodd" clip-rule="evenodd" d="M40.3958 20.5821C40.3958 26.4563 35.7128 31.1665 29.8726 31.1665C24.0323 31.1665 19.3494 26.4563 19.3494 20.5821C19.3494 14.7057 24.0323 10 29.8726 10C35.7128 10 40.3958 14.7057 40.3958 20.5821ZM29.8726 50.0001C21.2946 50.0001 13.9702 48.6402 13.9702 43.2005C13.9702 37.7586 21.2476 36.3491 29.8726 36.3491C38.4505 36.3491 45.7749 37.709 45.7749 43.151C45.7749 48.5906 38.4975 50.0001 29.8726 50.0001ZM44.8927 20.7731C44.8927 23.7676 43.9996 26.5573 42.4326 28.8763C42.2714 29.115 42.4147 29.437 42.699 29.4865C43.0907 29.554 43.4959 29.5923 43.9078 29.6036C48.0154 29.7116 51.7023 27.0526 52.7208 23.0494C54.2295 17.1031 49.7995 11.7648 44.1585 11.7648C43.5451 11.7648 42.9587 11.8301 42.3878 11.9472C42.3095 11.9652 42.2267 12.0012 42.1819 12.071C42.1282 12.1566 42.1685 12.2714 42.2222 12.3457C43.9167 14.7345 44.8927 17.648 44.8927 20.7731ZM51.6956 33.7815C54.4556 34.3241 56.2711 35.4318 57.0232 37.0417C57.6589 38.3633 57.6589 39.8966 57.0232 41.216C55.8726 43.7129 52.1634 44.5145 50.7218 44.7216C50.4241 44.7666 50.1846 44.5077 50.2159 44.2082C50.9524 37.2893 45.0942 34.0089 43.5787 33.2546C43.5138 33.2208 43.5004 33.1691 43.5071 33.1375C43.5116 33.115 43.5384 33.079 43.5877 33.0722C46.8671 33.0115 50.3927 33.4618 51.6956 33.7815ZM16.0928 29.6033C16.5047 29.592 16.9076 29.556 17.3016 29.4862C17.5859 29.4367 17.7292 29.1147 17.568 28.8761C16.001 26.557 15.1079 23.7674 15.1079 20.7728C15.1079 17.6477 16.0838 14.7343 17.7784 12.3454C17.8321 12.2711 17.8702 12.1563 17.8187 12.0707C17.7739 12.0032 17.6889 11.9649 17.6127 11.9469C17.0397 11.8298 16.4532 11.7645 15.8399 11.7645C10.1988 11.7645 5.76881 17.1029 7.2798 23.0491C8.29832 27.0523 11.9851 29.7114 16.0928 29.6033ZM16.4923 33.1362C16.4991 33.17 16.4856 33.2195 16.423 33.2555C14.9052 34.0098 9.04707 37.2902 9.78354 44.2069C9.81488 44.5086 9.5776 44.7653 9.27988 44.7225C7.83828 44.5154 4.12907 43.7138 2.97848 41.2169C2.34051 39.8953 2.34051 38.3642 2.97848 37.0426C3.73062 35.4327 5.54381 34.325 8.30389 33.7801C9.60894 33.4627 13.1323 33.0124 16.414 33.0732C16.4632 33.0799 16.4879 33.1159 16.4923 33.1362Z" fill="#26BAF6"/>
</svg>
