<svg width="55" height="55" viewBox="0 0 55 55" fill="none" xmlns="http://www.w3.org/2000/svg">
<g clip-path="url(#clip0)">
<path d="M42.5755 38.6265C41.2899 38.6265 40.0331 39.008 38.9645 39.7228C37.8958 40.4375 37.0633 41.4532 36.5723 42.6414C36.0814 43.8296 35.954 45.1367 36.2064 46.3973C36.4589 47.6579 37.0797 48.8153 37.9903 49.7228C38.9009 50.6304 40.0604 51.2472 41.3218 51.4954C42.5833 51.7435 43.89 51.6118 45.0765 51.1167C46.263 50.6217 47.2759 49.7858 47.987 48.7147C48.6981 47.6436 49.0753 46.3856 49.071 45.1C49.0623 43.382 48.3744 41.7372 47.1575 40.5244C45.9407 39.3117 44.2935 38.6294 42.5755 38.6265ZM42.5755 47.223C42.1622 47.223 41.7582 47.1008 41.4142 46.8717C41.0702 46.6426 40.8016 46.317 40.6423 45.9357C40.4829 45.5544 40.4398 45.1344 40.5185 44.7287C40.5971 44.323 40.794 43.9496 41.0843 43.6555C41.3746 43.3613 41.7454 43.1596 42.1501 43.0757C42.5547 42.9918 42.9752 43.0294 43.3585 43.1838C43.7419 43.3381 44.071 43.6024 44.3045 43.9434C44.5381 44.2844 44.6656 44.6868 44.671 45.1C44.6739 45.3773 44.6219 45.6524 44.5179 45.9095C44.414 46.1666 44.2602 46.4006 44.0654 46.5979C43.8706 46.7953 43.6386 46.9522 43.3829 47.0594C43.1272 47.1667 42.8528 47.2223 42.5755 47.223Z" fill="#FCFCFC"/>
<path d="M48.4 10.5655L15.95 10.7525V8.87701C15.95 8.15474 15.8077 7.43955 15.5313 6.77226C15.2549 6.10496 14.8498 5.49865 14.3391 4.98793C13.8284 4.4772 13.222 4.07208 12.5548 3.79568C11.8875 3.51928 11.1723 3.37701 10.45 3.37701H6.59999C6.01652 3.37701 5.45694 3.6088 5.04436 4.02138C4.63178 4.43396 4.39999 4.99354 4.39999 5.57701C4.39999 6.16049 4.63178 6.72007 5.04436 7.13265C5.45694 7.54523 6.01652 7.77701 6.59999 7.77701H10.45C10.7417 7.77701 11.0215 7.89291 11.2278 8.0992C11.4341 8.30549 11.55 8.58528 11.55 8.87701V32.0265C11.55 33.4852 12.1295 34.8842 13.1609 35.9156C14.1924 36.9471 15.5913 37.5265 17.05 37.5265H48.0755C48.659 37.5265 49.2185 37.2947 49.6311 36.8821C50.0437 36.4696 50.2755 35.91 50.2755 35.3265C50.2755 34.743 50.0437 34.1835 49.6311 33.7709C49.2185 33.3583 48.659 33.1265 48.0755 33.1265H17.05C16.7583 33.1265 16.4785 33.0106 16.2722 32.8043C16.0659 32.598 15.95 32.3183 15.95 32.0265V31.801L41.415 31.6305C42.6176 31.6229 43.7846 31.2213 44.7372 30.4872C45.6899 29.7531 46.3756 28.727 46.6895 27.566L50.5395 13.3375C50.6233 13.013 50.6318 12.6736 50.5645 12.3453C50.4971 12.017 50.3556 11.7084 50.1508 11.4431C49.946 11.1778 49.6833 10.9628 49.3827 10.8145C49.0821 10.6663 48.7516 10.5886 48.4165 10.5875L48.4 10.5655Z" fill="#FCFCFC"/>
<path d="M18.832 38.6265C17.5464 38.6265 16.2897 39.008 15.221 39.7228C14.1524 40.4375 13.3199 41.4532 12.8289 42.6414C12.3379 43.8296 12.2106 45.1367 12.463 46.3973C12.7154 47.6579 13.3362 48.8153 14.2468 49.7228C15.1575 50.6304 16.3169 51.2472 17.5783 51.4954C18.8398 51.7435 20.1465 51.6118 21.333 51.1167C22.5195 50.6217 23.5325 49.7858 24.2435 48.7147C24.9546 47.6436 25.3319 46.3856 25.3275 45.1C25.3188 43.382 24.631 41.7372 23.4141 40.5244C22.1972 39.3117 20.55 38.6294 18.832 38.6265ZM18.832 47.223C18.4187 47.223 18.0147 47.1008 17.6707 46.8717C17.3267 46.6426 17.0582 46.317 16.8988 45.9357C16.7394 45.5544 16.6963 45.1344 16.775 44.7287C16.8536 44.323 17.0505 43.9496 17.3408 43.6555C17.6311 43.3613 18.0019 43.1596 18.4066 43.0757C18.8113 42.9918 19.2317 43.0294 19.6151 43.1838C19.9984 43.3381 20.3275 43.6024 20.5611 43.9434C20.7946 44.2844 20.9221 44.6868 20.9275 45.1C20.9304 45.3773 20.8784 45.6524 20.7745 45.9095C20.6705 46.1666 20.5167 46.4006 20.3219 46.5979C20.1271 46.7953 19.8952 46.9522 19.6395 47.0594C19.3837 47.1667 19.1093 47.2223 18.832 47.223Z" fill="#FCFCFC"/>
</g>
<defs>
<clipPath id="clip0">
<rect width="55" height="55" fill="white"/>
</clipPath>
</defs>
</svg>
