<svg width="55" height="55" viewBox="0 0 55 55" fill="none" xmlns="http://www.w3.org/2000/svg">
<g clip-path="url(#clip0)">
<path d="M22.99 49.3263C24.8732 49.3263 26.4 47.7193 26.4 45.7368C26.4 43.7544 24.8732 42.1474 22.99 42.1474C21.1067 42.1474 19.58 43.7544 19.58 45.7368C19.58 47.7193 21.1067 49.3263 22.99 49.3263Z" fill="#FCFCFC"/>
<path d="M38.665 49.3263C40.5483 49.3263 42.075 47.7193 42.075 45.7368C42.075 43.7544 40.5483 42.1474 38.665 42.1474C36.7817 42.1474 35.255 43.7544 35.255 45.7368C35.255 47.7193 36.7817 49.3263 38.665 49.3263Z" fill="#FCFCFC"/>
<path d="M40.645 17.4842H38.225V20.1474C38.225 20.6684 37.84 21.0737 37.345 21.0737H36.85C36.355 21.0737 35.97 20.6684 35.97 20.1474V17.4842H33.44C32.945 17.4842 32.56 17.0789 32.56 16.5579V16.0368C32.56 15.5158 32.945 15.1105 33.44 15.1105H35.97V12.5053C35.97 11.9842 36.355 11.5789 36.85 11.5789H37.345C37.84 11.5789 38.225 11.9842 38.225 12.5053V15.1105H40.645C41.14 15.1105 41.525 15.5158 41.525 16.0368V16.5579C41.525 17.0789 41.14 17.4842 40.645 17.4842Z" fill="#FCFCFC"/>
<path d="M47.355 16.3842V16.3263C47.355 10.3632 42.735 5.5 37.07 5.5C31.405 5.5 26.785 10.3632 26.785 16.3263H19.635L19.25 15.0526C18.48 12.3316 16.115 10.4789 13.42 10.4789H5.55498C3.90498 10.4789 2.63998 11.9842 2.80498 13.7211C2.96998 15.2263 4.23498 16.3263 5.71998 16.3263H10.175C11.55 16.3263 12.815 17.3105 13.2 18.7L14.08 21.8263C14.08 21.9421 14.08 22.0579 14.08 22.1158L18.04 35.8947C18.7 38.1526 20.68 39.7158 22.935 39.7158H39.985C42.295 39.7158 44.33 38.0947 44.88 35.7211L47.63 22C48.675 21.6526 49.5 20.7263 49.61 19.5105C49.665 18.0632 48.675 16.7316 47.355 16.3842ZM37.015 23.6789C33.165 23.6789 30.03 20.3789 30.03 16.3263C30.03 12.2737 33.165 8.97368 37.015 8.97368C40.865 8.97368 44 12.2737 44 16.3263C44 20.3789 40.92 23.6789 37.015 23.6789Z" fill="#FCFCFC"/>
</g>
<defs>
<clipPath id="clip0">
<rect width="55" height="55" fill="white"/>
</clipPath>
</defs>
</svg>
