<svg width="76" height="55" viewBox="0 0 76 55" fill="none" xmlns="http://www.w3.org/2000/svg">
<g clip-path="url(#clip0)">
<path d="M3.32467 49.5342C3.22538 49.4729 3.14096 49.3903 3.07754 49.2924C3.01412 49.1945 2.97329 49.0837 2.95801 48.968C2.6882 47.1237 2.6882 45.25 2.95801 43.4057C3.64734 38.961 5.67134 23.5742 7.44307 19.4521C7.56407 19.1734 7.49954 19.2475 7.49954 19.2475C7.49954 19.2475 6.76181 18.9952 6.24701 18.8148C5.73221 18.6344 6.16854 18.795 5.44034 18.5215L0.747006 16.8304C0.52921 16.7486 0.341547 16.6024 0.209076 16.4111C0.0766048 16.2199 0.00563049 15.9928 0.00563049 15.7601C0.00563049 15.5275 0.0766048 15.3004 0.209076 15.1091C0.341547 14.9179 0.52921 14.7716 0.747006 14.6898L37.2413 0.0730255C37.5112 -0.0288991 37.809 -0.0288991 38.0788 0.0730255L74.6113 14.6297C74.8295 14.7161 75.0158 14.8676 75.1449 15.0636C75.2739 15.2596 75.3395 15.4906 75.3327 15.7251C75.3259 15.9597 75.247 16.1865 75.1068 16.3747C74.9666 16.5629 74.7718 16.7033 74.5489 16.7769C66.1251 19.5936 42.5646 27.3816 38.2123 28.7031C37.8757 28.8058 15.5127 21.977 12.8118 21.1197C12.6079 21.0566 12.0785 20.8264 10.9565 20.3328C8.67874 27.1066 10.8157 45.1129 9.92981 47.5439C9.84765 47.7569 9.8313 47.9896 9.88287 48.212C10.1029 49.1719 9.93787 49.4469 9.44287 49.6786C8.48828 50.1556 7.43158 50.3921 6.36474 50.3674C5.29791 50.3427 4.25326 50.0577 3.32174 49.5371L3.32467 49.5342ZM10.9616 20.3174V20.3101V20.3174ZM10.9726 20.2808V20.2764V20.2808ZM10.9785 20.2617V20.258V20.2617ZM10.9785 20.2478L10.9821 20.2353L10.9785 20.2478ZM33.4405 45.173C29.7153 44.9255 26.0525 44.092 22.5871 42.7032C20.528 41.9487 18.6903 40.6913 17.2411 39.0453C16.48 38.1511 16.0587 37.0171 16.0517 35.8428V25.2095C16.0453 25.1023 16.0453 24.9948 16.0517 24.8876L18.5956 25.6744C24.8104 27.5811 31.0227 29.4926 37.2325 31.4091C37.5065 31.4855 37.7961 31.4855 38.07 31.4091L52.6391 26.9248L58.7757 25.0291C58.9611 24.9786 59.1495 24.9391 59.3396 24.911V35.5869C59.3396 37.7869 58.2205 39.3152 56.5918 40.5508C53.899 42.5961 50.7677 43.603 47.5271 44.3268C44.3046 45.023 41.0171 45.374 37.7202 45.374C36.2917 45.374 34.8651 45.307 33.4405 45.173Z" fill="#FCFCFC"/>
</g>
<defs>
<clipPath id="clip0">
<rect width="75.5333" height="55" fill="white"/>
</clipPath>
</defs>
</svg>
