<svg width="51" height="55" viewBox="0 0 51 55" fill="none" xmlns="http://www.w3.org/2000/svg">
<g clip-path="url(#clip0)">
<path d="M25.2083 31.8841C26.4548 31.8841 27.6732 31.5101 28.7096 30.8094C29.746 30.1087 30.5537 29.1128 31.0307 27.9475C31.5077 26.7823 31.6325 25.5002 31.3893 24.2632C31.1462 23.0262 30.5459 21.89 29.6646 20.9982C28.7832 20.1063 27.6603 19.499 26.4378 19.253C25.2153 19.0069 23.9482 19.1332 22.7966 19.6158C21.6451 20.0985 20.6608 20.9158 19.9683 21.9645C19.2759 23.0131 18.9062 24.246 18.9062 25.5072C18.9082 27.1979 19.5728 28.8187 20.7542 30.0142C21.9357 31.2097 23.5375 31.8821 25.2083 31.8841ZM25.2083 26.3043C24.6514 26.3057 24.112 26.1075 23.6857 25.7449C23.2594 25.3822 22.9737 24.8786 22.8793 24.3232C22.785 23.7678 22.8879 23.1965 23.1701 22.7106C23.4522 22.2247 23.8952 21.8556 24.4206 21.6686V20.7246C24.4206 20.5132 24.5036 20.3105 24.6513 20.161C24.799 20.0115 24.9994 19.9275 25.2083 19.9275C25.4173 19.9275 25.6176 20.0115 25.7654 20.161C25.9131 20.3105 25.9961 20.5132 25.9961 20.7246V21.5217H26.7839C26.9928 21.5217 27.1932 21.6057 27.3409 21.7552C27.4886 21.9047 27.5716 22.1074 27.5716 22.3188C27.5716 22.5302 27.4886 22.733 27.3409 22.8825C27.1932 23.032 26.9928 23.1159 26.7839 23.1159H25.2083C24.9994 23.1159 24.799 23.1999 24.6513 23.3494C24.5036 23.4989 24.4206 23.7016 24.4206 23.913C24.4206 24.1244 24.5036 24.3272 24.6513 24.4767C24.799 24.6262 24.9994 24.7101 25.2083 24.7101C25.7653 24.7088 26.3047 24.907 26.731 25.2696C27.1573 25.6323 27.443 26.1359 27.5373 26.6913C27.6317 27.2467 27.5287 27.818 27.2466 28.3039C26.9645 28.7897 26.5215 29.1589 25.9961 29.3458V30.2899C25.9961 30.5013 25.9131 30.704 25.7654 30.8535C25.6176 31.003 25.4173 31.087 25.2083 31.087C24.9994 31.087 24.799 31.003 24.6513 30.8535C24.5036 30.704 24.4206 30.5013 24.4206 30.2899V29.4928H23.6328C23.4239 29.4928 23.2235 29.4088 23.0758 29.2593C22.928 29.1098 22.8451 28.9071 22.8451 28.6957C22.8451 28.4842 22.928 28.2815 23.0758 28.132C23.2235 27.9825 23.4239 27.8986 23.6328 27.8986H25.2083C25.4173 27.8986 25.6176 27.8146 25.7654 27.6651C25.9131 27.5156 25.9961 27.3129 25.9961 27.1015C25.9961 26.89 25.9131 26.6873 25.7654 26.5378C25.6176 26.3883 25.4173 26.3043 25.2083 26.3043Z" fill="#FCFCFC"/>
<path d="M11.8164 39.058H38.6003V11.9565H11.8164V39.058ZM25.2083 17.5362C26.7664 17.5362 28.2894 18.0037 29.5849 18.8796C30.8804 19.7554 31.8901 21.0003 32.4863 22.4569C33.0825 23.9134 33.2385 25.5161 32.9346 27.0623C32.6306 28.6085 31.8803 30.0288 30.7786 31.1436C29.6769 32.2584 28.2733 33.0175 26.7452 33.3251C25.2171 33.6327 23.6331 33.4748 22.1937 32.8715C20.7543 32.2682 19.5239 31.2465 18.6583 29.9357C17.7927 28.6249 17.3307 27.0838 17.3307 25.5072C17.3331 23.3939 18.1638 21.3679 19.6407 19.8735C21.1175 18.3792 23.1198 17.5386 25.2083 17.5362Z" fill="#FCFCFC"/>
<path d="M11.8164 43.0435C11.8176 44.1001 12.233 45.1131 12.9714 45.8603C13.7098 46.6074 14.711 47.0277 15.7552 47.029H34.6615C35.7057 47.0277 36.7069 46.6074 37.4453 45.8603C38.1837 45.1131 38.599 44.1001 38.6003 43.0435V40.6522H11.8164V43.0435ZM24.4836 43.5377C24.5216 43.4401 24.5778 43.3508 24.649 43.2746L24.7668 43.179C24.8108 43.1486 24.8586 43.1245 24.9091 43.1072C24.956 43.0832 25.0066 43.067 25.0587 43.0594C25.1852 43.0338 25.3161 43.04 25.4397 43.0775C25.5633 43.115 25.6759 43.1827 25.7676 43.2746C25.8389 43.3508 25.8951 43.4401 25.9331 43.5377C25.9945 43.6826 26.0116 43.8429 25.9821 43.9978C25.9526 44.1527 25.878 44.2951 25.7677 44.4066C25.6575 44.5181 25.5168 44.5937 25.3637 44.6235C25.2106 44.6533 25.0523 44.636 24.909 44.5739C24.8135 44.5336 24.7256 44.4769 24.649 44.4065C24.5387 44.295 24.464 44.1527 24.4345 43.9978C24.405 43.8429 24.4221 43.6826 24.4836 43.5377Z" fill="#FCFCFC"/>
<path d="M34.6615 3.9855H15.7552C14.711 3.98675 13.7098 4.40705 12.9714 5.15421C12.233 5.90136 11.8176 6.91437 11.8164 7.97101V10.3623H38.6003V7.97101C38.599 6.91437 38.1837 5.90136 37.4453 5.15421C36.7069 4.40705 35.7057 3.98675 34.6615 3.9855ZM26.7839 7.97101H23.6328C23.4239 7.97101 23.2235 7.88703 23.0758 7.73755C22.928 7.58806 22.8451 7.38531 22.8451 7.17391C22.8451 6.96251 22.928 6.75976 23.0758 6.61027C23.2235 6.46079 23.4239 6.37681 23.6328 6.37681H26.7839C26.9928 6.37681 27.1932 6.46079 27.3409 6.61027C27.4886 6.75976 27.5716 6.96251 27.5716 7.17391C27.5716 7.38531 27.4886 7.58806 27.3409 7.73755C27.1932 7.88703 26.9928 7.97101 26.7839 7.97101Z" fill="#FCFCFC"/>
</g>
<defs>
<clipPath id="clip0">
<rect width="50.4167" height="55" fill="white"/>
</clipPath>
</defs>
</svg>
