<svg width="51" height="55" viewBox="0 0 51 55" fill="none" xmlns="http://www.w3.org/2000/svg">
<g clip-path="url(#clip0)">
<path d="M25.2083 3.23529C22.7155 3.23529 20.2786 3.99428 18.2058 5.41627C16.1331 6.83827 14.5176 8.8594 13.5636 11.2241C12.6096 13.5888 12.36 16.1908 12.8463 18.7012C13.3327 21.2115 14.5331 23.5174 16.2958 25.3273C18.0586 27.1371 20.3044 28.3696 22.7494 28.869C25.1943 29.3683 27.7286 29.112 30.0317 28.1326C32.3349 27.1531 34.3034 25.4944 35.6883 23.3662C37.0733 21.238 37.8125 18.736 37.8125 16.1765C37.8125 12.7443 36.4846 9.45262 34.1208 7.02567C31.7571 4.59873 28.5512 3.23529 25.2083 3.23529ZM31.5104 18.3333H27.309V22.6471H23.1077V18.3333H18.9062V14.0195H23.1077V9.70588H27.309V14.0195H31.5104V18.3333Z" fill="#FCFCFC"/>
<path d="M15.4926 34.2407L11.9766 30.6307L11.0287 29.6577C10.8321 29.4613 10.6015 29.3044 10.3488 29.195C10.2141 29.1437 10.0746 29.1067 9.9325 29.0845C9.83416 29.0576 9.73414 29.0377 9.63315 29.0248C9.41909 29.0118 9.20431 29.0303 8.99539 29.08L8.94058 29.091C8.70351 29.1538 8.47757 29.2546 8.27111 29.3897C8.13065 29.4637 7.99866 29.5536 7.87761 29.6577C7.46036 30.087 7.22602 30.6688 7.22602 31.2753C7.22602 31.8819 7.46036 32.4636 7.87761 32.893L12.7273 37.8723C12.8025 37.947 12.8625 38.0362 12.9038 38.1349C12.9451 38.2336 12.9668 38.3397 12.9677 38.4471C12.9686 38.5545 12.9487 38.661 12.9091 38.7604C12.8695 38.8598 12.811 38.9501 12.737 39.0261C12.6631 39.102 12.5751 39.1621 12.4783 39.2027C12.3815 39.2434 12.2778 39.2639 12.1732 39.2629C12.0686 39.262 11.9652 39.2397 11.8691 39.1973C11.773 39.1549 11.686 39.0933 11.6134 39.016L6.76372 34.0367C6.31243 33.5771 5.98105 33.0082 5.8001 32.3826C5.61915 31.7569 5.59444 31.0946 5.72825 30.4565C5.86206 29.8185 6.15009 29.2253 6.56581 28.7316C6.98152 28.2378 7.51156 27.8595 8.1071 27.6313L7.51965 20.3938C7.47294 19.816 7.21047 19.2791 6.78712 18.8954C6.36378 18.5117 5.81235 18.3109 5.24815 18.335C4.68394 18.3591 4.15066 18.6063 3.75982 19.0247C3.36898 19.4432 3.15085 20.0006 3.15105 20.5804V32.2934C3.15105 32.9963 3.28588 33.6922 3.54784 34.3416C3.80981 34.9909 4.19377 35.5809 4.67782 36.0779L10.7686 42.3315C11.282 42.8587 11.6876 43.4858 11.9618 44.176C12.2359 44.8663 12.373 45.6059 12.365 46.3513L12.3415 48.53H23.1077L23.1078 43.9273C23.1078 41.9517 22.5225 40.0228 21.4296 38.3967C20.3367 36.7707 18.7879 35.5245 16.9888 34.8236L15.4926 34.2407H15.4926Z" fill="#FCFCFC"/>
<path d="M34.9241 34.2407L38.4401 30.6307L39.388 29.6577C39.5846 29.4613 39.8152 29.3044 40.0679 29.195C40.2026 29.1437 40.3421 29.1067 40.4842 29.0845C40.7901 28.994 41.1145 28.9924 41.4213 29.08L41.4761 29.091C41.7132 29.1538 41.9391 29.2546 42.1456 29.3897C42.286 29.4637 42.418 29.5536 42.5391 29.6577C42.9563 30.087 43.1907 30.6688 43.1907 31.2753C43.1907 31.8819 42.9563 32.4636 42.5391 32.893L37.6894 37.8723C37.6142 37.947 37.5542 38.0362 37.5129 38.1349C37.4716 38.2336 37.4499 38.3397 37.4489 38.4471C37.448 38.5545 37.468 38.661 37.5076 38.7604C37.5472 38.8598 37.6057 38.9501 37.6796 39.0261C37.7536 39.102 37.8416 39.1621 37.9384 39.2027C38.0352 39.2434 38.1389 39.2639 38.2435 39.2629C38.3481 39.262 38.4515 39.2397 38.5476 39.1973C38.6437 39.1549 38.7306 39.0933 38.8033 39.016L43.653 34.0367C44.1042 33.5771 44.4356 33.0082 44.6166 32.3826C44.7975 31.7569 44.8222 31.0946 44.6884 30.4565C44.5546 29.8185 44.2666 29.2253 43.8509 28.7316C43.4352 28.2378 42.9051 27.8595 42.3096 27.6313L42.897 20.3938C42.9437 19.816 43.2062 19.2791 43.6296 18.8954C44.0529 18.5117 44.6043 18.3109 45.1685 18.335C45.7327 18.3591 46.266 18.6063 46.6569 19.0247C47.0477 19.4432 47.2658 20.0006 47.2656 20.5804V32.2934C47.2656 32.9963 47.1308 33.6922 46.8688 34.3416C46.6069 34.9909 46.2229 35.5809 45.7389 36.0779L39.6481 42.3315C39.1347 42.8587 38.729 43.4858 38.4549 44.176C38.1808 44.8663 38.0437 45.6059 38.0517 46.3513L38.0751 48.53H27.309L27.3089 43.9273C27.3089 41.9517 27.8942 40.0228 28.9871 38.3967C30.08 36.7707 31.6288 35.5245 33.4278 34.8236L34.924 34.2407L34.9241 34.2407Z" fill="#FCFCFC"/>
</g>
<defs>
<clipPath id="clip0">
<rect width="50.4167" height="55" fill="white"/>
</clipPath>
</defs>
</svg>
