<svg width="55" height="55" viewBox="0 0 55 55" fill="none" xmlns="http://www.w3.org/2000/svg">
<g clip-path="url(#clip0)">
<path d="M2.75 45.65C2.75 44.671 3.04031 43.714 3.58423 42.9C4.12814 42.0859 4.90122 41.4515 5.80572 41.0768C6.71021 40.7022 7.70549 40.6041 8.6657 40.7951C9.6259 40.9861 10.5079 41.4576 11.2002 42.1498C11.8924 42.8421 12.3639 43.7241 12.5549 44.6843C12.7459 45.6445 12.6479 46.6398 12.2732 47.5443C11.8986 48.4488 11.2641 49.2219 10.4501 49.7658C9.63605 50.3097 8.67902 50.6 7.7 50.6C6.38718 50.6 5.12813 50.0785 4.19982 49.1502C3.27152 48.2219 2.75 46.9628 2.75 45.65ZM7.7 14.3C8.67902 14.3 9.63605 14.0097 10.4501 13.4658C11.2641 12.9219 11.8986 12.1488 12.2732 11.2443C12.6479 10.3398 12.7459 9.34453 12.5549 8.38433C12.3639 7.42412 11.8924 6.54212 11.2002 5.84985C10.5079 5.15758 9.6259 4.68614 8.6657 4.49514C7.70549 4.30414 6.71021 4.40217 5.80572 4.77682C4.90122 5.15148 4.12814 5.78593 3.58423 6.59995C3.04031 7.41398 2.75 8.37101 2.75 9.35003C2.75 10.6628 3.27152 11.9219 4.19982 12.8502C5.12813 13.7785 6.38718 14.3 7.7 14.3ZM7.7 32.45C8.67902 32.45 9.63605 32.1597 10.4501 31.6158C11.2641 31.0719 11.8986 30.2988 12.2732 29.3943C12.6479 28.4898 12.7459 27.4945 12.5549 26.5343C12.3639 25.5741 11.8924 24.6921 11.2002 23.9998C10.5079 23.3076 9.6259 22.8361 8.6657 22.6451C7.70549 22.4541 6.71021 22.5522 5.80572 22.9268C4.90122 23.3015 4.12814 23.9359 3.58423 24.75C3.04031 25.564 2.75 26.521 2.75 27.5C2.75 28.8128 3.27152 30.0719 4.19982 31.0002C5.12813 31.9285 6.38718 32.45 7.7 32.45ZM24.2 12.65H48.95C49.8252 12.65 50.6646 12.3023 51.2835 11.6835C51.9023 11.0646 52.25 10.2252 52.25 9.35003C52.25 8.47481 51.9023 7.63544 51.2835 7.01657C50.6646 6.3977 49.8252 6.05003 48.95 6.05003H24.2C23.3248 6.05003 22.4854 6.3977 21.8665 7.01657C21.2477 7.63544 20.9 8.47481 20.9 9.35003C20.9 10.2252 21.2477 11.0646 21.8665 11.6835C22.4854 12.3023 23.3248 12.65 24.2 12.65ZM24.2 30.8H48.95C49.8252 30.8 50.6646 30.4523 51.2835 29.8335C51.9023 29.2146 52.25 28.3752 52.25 27.5C52.25 26.6248 51.9023 25.7854 51.2835 25.1666C50.6646 24.5477 49.8252 24.2 48.95 24.2H24.2C23.3248 24.2 22.4854 24.5477 21.8665 25.1666C21.2477 25.7854 20.9 26.6248 20.9 27.5C20.9 28.3752 21.2477 29.2146 21.8665 29.8335C22.4854 30.4523 23.3248 30.8 24.2 30.8ZM24.2 48.95H48.95C49.8252 48.95 50.6646 48.6023 51.2835 47.9835C51.9023 47.3646 52.25 46.5252 52.25 45.65C52.25 44.7748 51.9023 43.9354 51.2835 43.3166C50.6646 42.6977 49.8252 42.35 48.95 42.35H24.2C23.3248 42.35 22.4854 42.6977 21.8665 43.3166C21.2477 43.9354 20.9 44.7748 20.9 45.65C20.9 46.5252 21.2477 47.3646 21.8665 47.9835C22.4854 48.6023 23.3248 48.95 24.2 48.95Z" fill="#FCFCFC"/>
</g>
<defs>
<clipPath id="clip0">
<rect width="55" height="55" fill="white"/>
</clipPath>
</defs>
</svg>
