<svg width="55" height="55" viewBox="0 0 55 55" fill="none" xmlns="http://www.w3.org/2000/svg">
<g clip-path="url(#clip0)">
<path fill-rule="evenodd" clip-rule="evenodd" d="M48.1578 28.465C47.5895 28.4721 46.9836 28.608 46.3875 28.8947L36.0922 33.8447C35.6036 32.7166 34.4243 31.9505 33.1015 31.9884L27.189 32.1603C25.7396 32.1603 24.6357 31.8025 23.2531 31.4041C21.8661 31.0044 20.2221 30.5791 17.9422 30.5791C16.0643 30.5791 13.5259 31.136 11.4625 31.8337V30.5447C11.4625 30.4007 11.4317 30.2652 11.3765 30.1322C11.3214 29.9991 11.2549 29.8731 11.1531 29.7712C11.0513 29.6694 10.9251 29.5858 10.7922 29.5306C10.6592 29.4755 10.5065 29.4447 10.3625 29.4447H4.39846C4.25442 29.4447 4.11895 29.4755 3.98596 29.5306C3.85292 29.5858 3.7268 29.6694 3.625 29.7712C3.52319 29.8731 3.43948 29.9991 3.38437 30.1322C3.32926 30.2652 3.29846 30.4007 3.29846 30.5447V35.0478V46.9071C3.29846 47.0511 3.32926 47.2038 3.38437 47.3368C3.43948 47.4698 3.52319 47.596 3.625 47.6978C3.7268 47.7995 3.85297 47.8833 3.98596 47.9384C4.11895 47.9935 4.25447 48.0071 4.39846 48.0071H10.3625C10.5064 48.0071 10.6592 47.9934 10.7922 47.9384C10.9252 47.8833 11.0513 47.7995 11.1531 47.6978C11.2549 47.596 11.3214 47.4698 11.3765 47.3368C11.4316 47.2038 11.4625 47.0511 11.4625 46.9071V45.515C18.7047 44.2335 23.0198 46.414 29.5437 46.4087C30.8933 46.4084 32.3115 45.7454 34.0812 44.8275C35.8515 43.9093 37.8765 42.6781 39.925 41.3556C44.0219 38.7105 48.2084 35.6994 50.3922 34.2228C51.1401 33.7146 51.5904 32.9156 51.6813 32.1259C51.7721 31.3362 51.5537 30.5659 51.114 29.9259C50.5095 29.0459 49.4081 28.4493 48.1578 28.465ZM5.49846 31.6447H6.5125V45.8071H5.49846V35.0478V31.6447Z" fill="#FCFCFC"/>
<path fill-rule="evenodd" clip-rule="evenodd" d="M29.0797 6.99779C28.9556 6.99834 28.8357 7.00757 28.7188 7.04932C28.6019 7.09112 28.4886 7.16013 28.3922 7.23838C28.1994 7.39488 28.0663 7.61435 28.0141 7.85713C27.7652 9.01706 27.0081 11.3391 26.9485 13.5118C26.9188 14.5982 27.0452 15.7157 27.6875 16.6571C28.2266 17.4472 29.1558 17.9829 30.2828 18.1353C30.3473 18.6105 30.2224 19.0299 29.9906 19.5446C29.9653 19.6004 29.9499 19.6426 29.9219 19.6993C29.7644 19.4582 29.5654 19.2397 29.3547 19.029C28.3607 18.0349 26.9996 17.6259 25.711 17.8259C25.4831 17.8612 25.2557 17.9725 25.0922 18.1353C24.9287 18.298 24.8193 18.5262 24.7828 18.754C24.575 20.0531 24.9803 21.4264 25.9688 22.4149C26.5339 22.9801 27.2198 23.3519 27.9453 23.5321C27.7085 24.4781 27.7222 25.3893 27.8594 26.2133H26.4156C25.0971 26.2133 24.0266 27.2904 24.0266 28.6024V29.9087C24.0266 30.0527 24.0403 30.1881 24.0953 30.3212C24.1504 30.4542 24.2341 30.5803 24.336 30.6821C24.4377 30.784 24.5639 30.8677 24.6969 30.9227C24.8299 30.9778 24.9826 31.0087 25.1266 31.0087H33.2563C33.4003 31.0087 33.5357 30.9779 33.6688 30.9227C33.8018 30.8676 33.9279 30.784 34.0297 30.6821C34.1315 30.5803 34.2152 30.4542 34.2703 30.3212C34.3254 30.1881 34.3563 30.0527 34.3563 29.9087V28.6024C34.3563 27.2904 33.2685 26.2133 31.95 26.2133H30.0938C29.8505 25.257 29.8535 24.2209 30.4719 23.0853C30.8805 22.3333 31.5295 21.487 32.0015 20.4384C32.3081 19.7573 32.517 18.9493 32.4656 18.0837C33.4565 17.8828 34.2617 17.3761 34.7515 16.6571C35.3933 15.7154 35.5213 14.5981 35.4906 13.5118C35.4294 11.3392 34.6738 9.01632 34.425 7.85713C34.3838 7.6641 34.2846 7.48595 34.15 7.34151C34.0154 7.19707 33.8412 7.0871 33.6515 7.03213C33.462 6.97719 33.2581 6.98208 33.0672 7.03213C32.8762 7.08218 32.707 7.1834 32.5688 7.32432L30.7125 9.19776C30.5314 8.75376 30.338 8.26186 30.111 7.68526C30.0303 7.48055 29.8805 7.31022 29.6985 7.18682C29.5163 7.06342 29.2997 6.99674 29.0797 6.99776V6.99779Z" fill="#FCFCFC"/>
</g>
<defs>
<clipPath id="clip0">
<rect width="55" height="55" fill="white"/>
</clipPath>
</defs>
</svg>
