<svg width="52" height="55" viewBox="0 0 52 55" fill="none" xmlns="http://www.w3.org/2000/svg">
<g clip-path="url(#clip0)">
<path d="M10.4688 36.03C8.99878 36.03 7.61877 36.6 6.57879 37.64C4.6488 39.57 4.0888 45.72 3.98877 46.93C3.96881 47.23 4.07879 47.51 4.27881 47.72C4.46881 47.91 4.72882 48.01 4.98877 48.01H5.06878C6.27881 47.91 12.4388 47.35 14.3588 45.43C16.5088 43.28 16.5088 39.79 14.3588 37.64C13.3188 36.6 11.9388 36.03 10.4688 36.03Z" fill="#FCFCFC"/>
<path d="M38.7354 2.15118C33.7866 3.27222 28.1306 5.46289 23.8388 9.76001C21.2888 12.3 19.0588 15.1 17.3188 17.91C16.0288 17.25 14.5788 16.89 13.1488 16.89C10.8088 16.89 8.58881 17.82 6.89881 19.52L1.28882 25.12C1.00879 25.41 0.918828 25.84 1.0788 26.21C1.22883 26.58 1.59882 26.83 1.99878 26.83H13.4888C12.5688 31 13.2388 34.44 15.3988 36.6C17.5388 38.74 21.0388 39.42 25.1688 38.51V50C25.1688 50.41 25.4188 50.77 25.7888 50.93C25.9188 50.98 26.0488 51 26.1688 51C26.4388 51 26.6888 50.9 26.8788 50.71L32.4788 45.11C35.2988 42.29 35.8988 38.14 34.0888 34.68C36.8988 32.95 39.6988 30.71 42.2388 28.16C46.7132 23.6902 48.9201 17.8144 49.9981 12.7589C45.5703 11.4188 40.1846 6.47736 38.7354 2.15118ZM40.5788 18.58C39.6288 19.54 38.3488 20.06 36.9988 20.06C35.6488 20.06 34.3788 19.54 33.4188 18.58C31.4488 16.61 31.4488 13.39 33.4188 11.42C34.3788 10.46 35.6488 9.94 36.9988 9.94C38.3488 9.94 39.6288 10.46 40.5788 11.42C42.5588 13.39 42.5588 16.61 40.5788 18.58Z" fill="#FCFCFC"/>
<path d="M50.9688 1.96997C50.9488 1.46002 50.5388 1.06 50.0288 1.02997C50.0288 1.02997 49.5888 1 48.7988 1C47.2778 1 44.2779 1.10986 40.7172 1.74768C42.0528 5.34546 46.6766 9.56586 50.3722 10.7829C51.1713 5.9715 50.9876 2.28455 50.9688 1.96997Z" fill="#FCFCFC"/>
</g>
<defs>
<clipPath id="clip0">
<rect width="52" height="55" fill="white"/>
</clipPath>
</defs>
</svg>
