<svg width="55" height="55" viewBox="0 0 55 55" fill="none" xmlns="http://www.w3.org/2000/svg">
<g clip-path="url(#clip0)">
<path d="M6.84887 3.42398C4.96677 3.42398 3.42487 4.96583 3.42487 6.848V27.3921H51.3594V6.848C51.3594 4.96584 49.8159 3.42398 47.9338 3.42398H6.84887ZM25.6358 6.848C25.652 6.84724 25.665 6.84724 25.6792 6.848H29.1049C29.3401 6.84709 29.532 7.03578 29.5346 7.27099V9.33911C29.8626 9.43928 30.1778 9.57742 30.4742 9.72531L31.9354 8.2691C32.102 8.10527 32.369 8.10527 32.5356 8.2691L34.9548 10.69C35.1227 10.8573 35.1227 11.1296 34.9548 11.2969L33.5002 12.7548C33.652 13.0528 33.7882 13.3807 33.8948 13.6977H35.9546C36.1898 13.6968 36.3817 13.8855 36.3843 14.1207V17.5464C36.3852 17.7841 36.1924 17.977 35.9546 17.9761H33.8898C33.7863 18.2912 33.6517 18.6189 33.5036 18.9157L34.9548 20.3769C35.1227 20.5442 35.1227 20.8165 34.9548 20.9838L32.5356 23.403C32.369 23.5668 32.102 23.5668 31.9354 23.403L30.4775 21.9451C30.152 22.1083 29.8853 22.2257 29.5312 22.338L29.5345 24.3961C29.5354 24.6338 29.3426 24.8267 29.1048 24.8258H25.6791C25.4413 24.8267 25.2485 24.6338 25.2494 24.3961V22.3313C24.9092 22.2247 24.6051 22.0925 24.3098 21.9451L22.8486 23.403C22.682 23.5668 22.415 23.5668 22.2484 23.403L19.8208 20.9838C19.6529 20.8165 19.6529 20.5442 19.8208 20.3769L21.2871 18.9157C21.1399 18.6392 20.9833 18.2746 20.8908 17.9761H18.8294C18.5916 17.977 18.3988 17.7841 18.3997 17.5464V14.1207C18.4023 13.8855 18.5941 13.6968 18.8294 13.6977H20.8975C21.0026 13.383 21.1356 13.0576 21.2854 12.7615L19.8208 11.2969C19.6529 11.1296 19.6529 10.8573 19.8208 10.69L22.2484 8.2691C22.415 8.10527 22.682 8.10527 22.8486 8.2691L24.3132 9.72531C24.6089 9.57448 24.9351 9.44219 25.2494 9.33577V7.27099C25.2507 7.05206 25.4176 6.86978 25.6356 6.848H25.6358ZM26.109 7.70066V9.64674C26.1108 9.84144 25.9808 10.0137 25.7929 10.0647C25.322 10.1983 24.8715 10.3861 24.447 10.6298C24.2814 10.7254 24.0728 10.6993 23.9354 10.5663L22.5444 9.17358L20.7321 10.9926L22.1147 12.3769C22.2529 12.5138 22.2823 12.7267 22.1849 12.8952C21.9436 13.3195 21.7599 13.771 21.6282 14.2411C21.5748 14.4265 21.405 14.5529 21.2119 14.5504H19.2592V17.1234H21.2052C21.3958 17.1237 21.5638 17.2495 21.6165 17.4327C21.7495 17.9041 21.9417 18.3601 22.1849 18.7852C22.2788 18.9522 22.2497 19.161 22.1147 19.2968L20.7321 20.6795L22.5444 22.4935L23.9287 21.1158C24.0646 20.9807 24.2734 20.9533 24.4403 21.0473C24.8668 21.2875 25.3209 21.4726 25.7929 21.6024C25.9786 21.6527 26.1077 21.8213 26.109 22.0136V23.9731H28.6736V22.0253C28.6719 21.8306 28.8018 21.66 28.9897 21.609C29.4617 21.4762 29.9117 21.2907 30.3373 21.0473C30.5058 20.95 30.717 20.9776 30.8539 21.1158L32.2382 22.4935L34.0522 20.6795L32.6746 19.3019C32.5393 19.166 32.507 18.9605 32.6011 18.7936C32.8415 18.3666 33.0316 17.9053 33.1612 17.4327C33.2139 17.2495 33.3818 17.1236 33.5725 17.1234H35.5253V14.5504H33.5775C33.387 14.5501 33.2206 14.4242 33.1679 14.2411C33.0346 13.7691 32.8434 13.314 32.5995 12.8885C32.5021 12.72 32.5299 12.5071 32.668 12.3702L34.0524 10.9926L32.2384 9.17358L30.854 10.5579C30.7182 10.693 30.5094 10.7204 30.3424 10.6265C29.9154 10.3861 29.4624 10.201 28.9899 10.0714C28.8019 10.0204 28.6722 9.84813 28.6738 9.65342V7.70066L26.109 7.70066ZM27.3913 12.8384C29.0409 12.8384 30.3873 14.1831 30.3873 15.8327C30.3873 17.4824 29.0409 18.8354 27.3913 18.8354C25.7417 18.8354 24.397 17.4824 24.397 15.8327C24.397 14.1831 25.7417 12.8384 27.3913 12.8384ZM27.3913 13.6977C26.2043 13.6977 25.2563 14.6457 25.2563 15.8327C25.2563 17.0197 26.2043 17.9761 27.3913 17.9761C28.5783 17.9761 29.5347 17.0197 29.5347 15.8327C29.5347 14.6457 28.5783 13.6977 27.3913 13.6977ZM3.42487 28.2448V30.8178C3.42487 32.7 4.96677 34.2418 6.84887 34.2418H47.9338C49.8159 34.2418 51.3594 32.7 51.3594 30.8178V28.2448H3.42487ZM22.16 35.0978C22.16 38.5203 20.0767 44.7707 19.6873 46.2242H35.0954C34.7059 44.7707 32.6227 38.5203 32.6227 35.0978H22.16ZM15.4073 47.0802C14.933 47.0802 14.5512 47.462 14.5512 47.9362V50.5043C14.5512 50.9785 14.933 51.3603 15.4073 51.3603H39.3754C39.8496 51.3603 40.2314 50.9785 40.2314 50.5043V47.9362C40.2314 47.462 39.8496 47.0802 39.3754 47.0802H15.4073Z" fill="#FCFCFC"/>
</g>
<defs>
<clipPath id="clip0">
<rect width="55" height="55" fill="white"/>
</clipPath>
</defs>
</svg>
