<svg width="299" height="15" viewBox="0 0 299 15" fill="none" xmlns="http://www.w3.org/2000/svg">
<path d="M254.847 10.2703C257.874 10.2703 277.108 15.0001 269.495 15.0001H29.035C21.4219 15.0001 40.6552 10.2703 43.6825 10.2703H254.847Z" fill="url(#paint0_linear)"/>
<path d="M175 7.57159V6.04138H123.808V7.57159C124.039 7.89618 125.06 8.54536 127.285 8.54536H171.522C173.748 8.54536 174.768 7.89618 175 7.57159Z" fill="url(#paint1_linear)"/>
<path d="M123.808 6.04135H0V7.84978H124.119C123.966 7.74725 123.864 7.64994 123.808 7.57156V6.04135Z" fill="url(#paint2_linear)"/>
<path d="M175 6.04135V7.57156C174.944 7.64994 174.842 7.74725 174.688 7.84978H298.808V6.04135H175Z" fill="url(#paint3_linear)"/>
<path d="M123.937 7.71078C124.321 8.05235 125.346 8.54544 127.285 8.54544H171.522C173.462 8.54544 174.486 8.05235 174.871 7.71078H298.808C296.257 9.47284 287.178 12.7187 271.264 12.7187H27.5437C11.6296 12.7187 2.55035 9.47284 0 7.71078H123.937Z" fill="url(#paint4_linear)"/>
<path d="M27.8213 0.0596924H270.707V0.902298C270.707 3.66372 268.468 5.9023 265.707 5.9023H32.8213C30.0599 5.9023 27.8213 3.66372 27.8213 0.902298V0.0596924Z" fill="#101010"/>
<path d="M142.015 4.11688V1.45087H141.629L140.709 3.69379H140.694L139.774 1.45087H139.388V4.11688H139.698V2.06241H139.711L140.561 4.11688H140.842L141.692 2.06241H141.705V4.11688H142.015Z" fill="#909092"/>
<path d="M142.989 4.15014C143.247 4.15014 143.491 4.00603 143.606 3.78617H143.613V4.11688H143.918V2.78849C143.918 2.40605 143.633 2.16217 143.183 2.16217C142.728 2.16217 142.444 2.41714 142.421 2.74969H142.732C142.772 2.56124 142.928 2.44485 143.175 2.44485C143.441 2.44485 143.596 2.58526 143.596 2.8199V2.98064L143.046 3.01205C142.602 3.03791 142.349 3.24484 142.349 3.5737C142.349 3.91919 142.606 4.15014 142.989 4.15014ZM143.061 3.8767C142.83 3.8767 142.676 3.75661 142.676 3.5737C142.676 3.39264 142.824 3.27809 143.083 3.26147L143.596 3.23006V3.3871C143.596 3.66423 143.364 3.8767 143.061 3.8767Z" fill="#909092"/>
<path d="M145.922 2.82544C145.882 2.47995 145.595 2.16217 145.115 2.16217C144.585 2.16217 144.232 2.55016 144.232 3.15616C144.232 3.77509 144.587 4.15014 145.119 4.15014C145.555 4.15014 145.876 3.8804 145.926 3.49795H145.61C145.555 3.7289 145.383 3.86746 145.121 3.86746C144.788 3.86746 144.559 3.60326 144.559 3.15616C144.559 2.72013 144.784 2.44485 145.117 2.44485C145.4 2.44485 145.562 2.61667 145.608 2.82544H145.922Z" fill="#909092"/>
<path d="M147.279 4.11688C147.846 4.11688 148.182 3.8379 148.182 3.36862C148.182 3.01389 147.949 2.75893 147.587 2.71274V2.69796C147.844 2.65177 148.047 2.39312 148.047 2.11598C148.047 1.71691 147.739 1.45087 147.282 1.45087H146.272V4.11688H147.279ZM146.604 1.74463H147.207C147.53 1.74463 147.711 1.89058 147.711 2.15478C147.711 2.443 147.497 2.60004 147.103 2.60004H146.604V1.74463ZM146.604 3.82312V2.88641H147.197C147.622 2.88641 147.84 3.04346 147.84 3.352C147.84 3.66054 147.63 3.82312 147.229 3.82312H146.604Z" fill="#909092"/>
<path d="M149.305 4.15014C149.836 4.15014 150.194 3.7677 150.194 3.15616C150.194 2.54277 149.836 2.16217 149.305 2.16217C148.773 2.16217 148.415 2.54277 148.415 3.15616C148.415 3.7677 148.773 4.15014 149.305 4.15014ZM149.305 3.86746C148.965 3.86746 148.742 3.60881 148.742 3.15616C148.742 2.70351 148.965 2.44485 149.305 2.44485C149.645 2.44485 149.867 2.70351 149.867 3.15616C149.867 3.60881 149.645 3.86746 149.305 3.86746Z" fill="#909092"/>
<path d="M151.315 4.15014C151.846 4.15014 152.204 3.7677 152.204 3.15616C152.204 2.54277 151.846 2.16217 151.315 2.16217C150.783 2.16217 150.425 2.54277 150.425 3.15616C150.425 3.7677 150.783 4.15014 151.315 4.15014ZM151.315 3.86746C150.976 3.86746 150.752 3.60881 150.752 3.15616C150.752 2.70351 150.976 2.44485 151.315 2.44485C151.655 2.44485 151.877 2.70351 151.877 3.15616C151.877 3.60881 151.655 3.86746 151.315 3.86746Z" fill="#909092"/>
<path d="M152.867 3.39264L153.047 3.22267L153.76 4.11688H154.133L153.274 3.02498L154.107 2.19543H153.717L152.867 3.049V1.45087H152.546V4.11688H152.867V3.39264Z" fill="#909092"/>
<path d="M156.925 4.11688H157.274L156.291 1.45087H155.962L154.979 4.11688H155.328L155.596 3.35384H156.657L156.925 4.11688ZM156.121 1.85548H156.132L156.559 3.07117H155.694L156.121 1.85548Z" fill="#909092"/>
<path d="M157.706 1.85363C157.819 1.85363 157.908 1.7631 157.908 1.65225C157.908 1.53955 157.819 1.45087 157.706 1.45087C157.595 1.45087 157.505 1.53955 157.505 1.65225C157.505 1.7631 157.595 1.85363 157.706 1.85363ZM157.545 4.11688H157.867V2.19543H157.545V4.11688Z" fill="#909092"/>
<path d="M158.301 4.11688H158.623V2.91967C158.623 2.64808 158.785 2.46887 159.035 2.46887C159.112 2.46887 159.181 2.4781 159.206 2.48734V2.17511C159.181 2.17141 159.132 2.16217 159.077 2.16217C158.852 2.16217 158.674 2.29704 158.611 2.50951H158.604V2.19543H158.301V4.11688Z" fill="#909092"/>
<defs>
<linearGradient id="paint0_linear" x1="149.265" y1="15.0001" x2="149.265" y2="10.2703" gradientUnits="userSpaceOnUse">
<stop stop-color="#9B9EA0" stop-opacity="0"/>
<stop offset="1" stop-color="#1B1D1E"/>
</linearGradient>
<linearGradient id="paint1_linear" x1="123.808" y1="6.87602" x2="175" y2="6.87605" gradientUnits="userSpaceOnUse">
<stop stop-color="#2E2F34"/>
<stop offset="0.116817" stop-color="#5C5D62"/>
<stop offset="0.253445" stop-color="#7E7F84"/>
<stop offset="0.505951" stop-color="#7E7F84"/>
<stop offset="0.734504" stop-color="#7E7F84"/>
<stop offset="0.908586" stop-color="#57585D"/>
<stop offset="1" stop-color="#303136"/>
</linearGradient>
<linearGradient id="paint2_linear" x1="1.66247e-06" y1="7.01689" x2="298.808" y2="7.0158" gradientUnits="userSpaceOnUse">
<stop stop-color="#3E3F43"/>
<stop offset="0.0244084" stop-color="#8A8B8F"/>
<stop offset="0.979558" stop-color="#8A8B8F"/>
<stop offset="1" stop-color="#46474B"/>
</linearGradient>
<linearGradient id="paint3_linear" x1="1.66247e-06" y1="7.01689" x2="298.808" y2="7.0158" gradientUnits="userSpaceOnUse">
<stop stop-color="#3E3F43"/>
<stop offset="0.0244084" stop-color="#8A8B8F"/>
<stop offset="0.979558" stop-color="#8A8B8F"/>
<stop offset="1" stop-color="#46474B"/>
</linearGradient>
<linearGradient id="paint4_linear" x1="149.404" y1="7.84989" x2="149.404" y2="15.7791" gradientUnits="userSpaceOnUse">
<stop stop-color="#55565A"/>
<stop offset="1"/>
</linearGradient>
</defs>
</svg>
